<?xml version="1.0" encoding="UTF-8" standalone="no"?>
<!-- Created with Inkscape (http://www.inkscape.org/) -->

<svg
   xmlns:dc="http://purl.org/dc/elements/1.1/"
   xmlns:cc="http://creativecommons.org/ns#"
   xmlns:rdf="http://www.w3.org/1999/02/22-rdf-syntax-ns#"
   xmlns:svg="http://www.w3.org/2000/svg"
   xmlns="http://www.w3.org/2000/svg"
   xmlns:sodipodi="http://sodipodi.sourceforge.net/DTD/sodipodi-0.dtd"
   xmlns:inkscape="http://www.inkscape.org/namespaces/inkscape"
   width="3200"
   height="800"
   id="svg2825"
   version="1.1"
   inkscape:version="0.91 r13725"
   sodipodi:docname="bulbisarre.svg">
  <sodipodi:namedview
     id="base"
     pagecolor="#ffffff"
     bordercolor="#666666"
     borderopacity="1.0"
     inkscape:pageopacity="0.0"
     inkscape:pageshadow="2"
     inkscape:zoom="0.35949437"
     inkscape:cx="1483.73"
     inkscape:cy="526.17183"
     inkscape:document-units="px"
     inkscape:current-layer="layer3"
     showgrid="false"
     inkscape:window-width="1920"
     inkscape:window-height="1057"
     inkscape:window-x="-8"
     inkscape:window-y="-8"
     inkscape:window-maximized="1" />
  <defs
     id="defs2827">
    <inkscape:path-effect
       back_thickness="0.25"
       front_thickness="1"
       stroke_width_bottom="1"
       stroke_width_top="1"
       fat_output="false"
       bottom_smth_variation="0;1"
       top_smth_variation="0;1"
       scale_tb="2"
       scale_tf="2"
       scale_bb="2"
       scale_bf="2"
       top_tgt_variation="0;1"
       bottom_tgt_variation="0;1"
       top_edge_variation="0;1"
       bottom_edge_variation="0;1"
       bender="2348.5536,227.81156 , 5,0"
       do_bend="false"
       growth="0"
       dist_rdm="0;1"
       direction="2348.5536,222.81156 , 12.96568,0"
       is_visible="true"
       id="path-effect5354"
       effect="rough_hatches" />
    <inkscape:path-effect
       back_thickness="0.25"
       front_thickness="1"
       stroke_width_bottom="1"
       stroke_width_top="1"
       fat_output="false"
       bottom_smth_variation="0;1"
       top_smth_variation="0;1"
       scale_tb="2"
       scale_tf="2"
       scale_bb="2"
       scale_bf="2"
       top_tgt_variation="0;1"
       bottom_tgt_variation="0;1"
       top_edge_variation="0;1"
       bottom_edge_variation="0;1"
       bender="2409.3933,210.47363 , 5,0"
       do_bend="false"
       growth="0"
       dist_rdm="0;1"
       direction="2409.3933,205.47363 , 12.086662,0.61800124"
       is_visible="true"
       id="path-effect5352"
       effect="rough_hatches" />
    <inkscape:path-effect
       back_thickness="0.25"
       front_thickness="1"
       stroke_width_bottom="1"
       stroke_width_top="1"
       fat_output="false"
       bottom_smth_variation="0;1"
       top_smth_variation="0;1"
       scale_tb="2"
       scale_tf="2"
       scale_bb="2"
       scale_bf="2"
       top_tgt_variation="0;1"
       bottom_tgt_variation="0;1"
       top_edge_variation="0;1"
       bottom_edge_variation="0;1"
       bender="1017.2612,242.74003 , 5,0"
       do_bend="false"
       growth="0"
       dist_rdm="0;1"
       direction="1017.2612,237.74003 , 11.323805,-5.6843419e-014"
       is_visible="true"
       id="path-effect5350"
       effect="rough_hatches" />
    <inkscape:path-effect
       back_thickness="0.25"
       front_thickness="1"
       stroke_width_bottom="1"
       stroke_width_top="1"
       fat_output="false"
       bottom_smth_variation="0;1"
       top_smth_variation="0;1"
       scale_tb="2"
       scale_tf="2"
       scale_bb="2"
       scale_bf="2"
       top_tgt_variation="0;1"
       bottom_tgt_variation="0;1"
       top_edge_variation="0;1"
       bottom_edge_variation="0;1"
       bender="953.05264,227.8496 , 5,0"
       do_bend="false"
       growth="0"
       dist_rdm="0;1"
       direction="953.05264,222.8496 , 10.823941,0"
       is_visible="true"
       id="path-effect5348"
       effect="rough_hatches" />
    <inkscape:path-effect
       effect="rough_hatches"
       id="path-effect5167"
       is_visible="true"
       direction="1667.4891,854.22057 , 19.688473,5.3534028"
       dist_rdm="0;1"
       growth="0"
       do_bend="true"
       bender="1667.4891,859.22057 , 5,0"
       bottom_edge_variation="0;1"
       top_edge_variation="0;1"
       bottom_tgt_variation="0;1"
       top_tgt_variation="0;1"
       scale_bf="2"
       scale_bb="2"
       scale_tf="2"
       scale_tb="2"
       top_smth_variation="0;1"
       bottom_smth_variation="0;1"
       fat_output="false"
       stroke_width_top="1"
       stroke_width_bottom="1"
       front_thickness="1"
       back_thickness="0.25" />
    <inkscape:path-effect
       back_thickness="0.25"
       front_thickness="1"
       stroke_width_bottom="1"
       stroke_width_top="1"
       fat_output="false"
       bottom_smth_variation="0;1"
       top_smth_variation="0;1"
       scale_tb="2"
       scale_tf="2"
       scale_bb="2"
       scale_bf="2"
       top_tgt_variation="0;1"
       bottom_tgt_variation="0;1"
       top_edge_variation="0;1"
       bottom_edge_variation="0;1"
       bender="258.82187,1794.4257 , 5,0"
       do_bend="false"
       growth="0"
       dist_rdm="0;1"
       direction="258.82187,1789.4257 , 7.8375656,-0.077044636"
       is_visible="true"
       id="path-effect4991"
       effect="rough_hatches" />
    <inkscape:path-effect
       back_thickness="0.25"
       front_thickness="1"
       stroke_width_bottom="1"
       stroke_width_top="1"
       fat_output="false"
       bottom_smth_variation="0;1"
       top_smth_variation="0;1"
       scale_tb="2"
       scale_tf="2"
       scale_bb="2"
       scale_bf="2"
       top_tgt_variation="0;1"
       bottom_tgt_variation="0;1"
       top_edge_variation="0;1"
       bottom_edge_variation="0;1"
       bender="1419.1417,-1217.9385 , 5,0"
       do_bend="false"
       growth="0"
       dist_rdm="0;1"
       direction="1419.1417,-1222.9385 , 7.4076167,-1.3289221"
       is_visible="true"
       id="path-effect4989"
       effect="rough_hatches" />
    <inkscape:path-effect
       effect="rough_hatches"
       id="path-effect4867"
       is_visible="true"
       direction="1765.2782,472.13302 , 12.351723,0"
       dist_rdm="0;1"
       growth="0"
       do_bend="false"
       bender="1765.2782,477.13302 , 5,0"
       bottom_edge_variation="0;1"
       top_edge_variation="0;1"
       bottom_tgt_variation="0;1"
       top_tgt_variation="0;1"
       scale_bf="2"
       scale_bb="2"
       scale_tf="2"
       scale_tb="2"
       top_smth_variation="0;1"
       bottom_smth_variation="0;1"
       fat_output="false"
       stroke_width_top="1"
       stroke_width_bottom="1"
       front_thickness="1"
       back_thickness="0.25" />
    <inkscape:path-effect
       effect="rough_hatches"
       id="path-effect4865"
       is_visible="true"
       direction="1602.9616,519.32687 , 13.640421,0.69542118"
       dist_rdm="0;1"
       growth="0"
       do_bend="false"
       bender="1602.9616,524.32687 , 5,0"
       bottom_edge_variation="0;1"
       top_edge_variation="0;1"
       bottom_tgt_variation="0;1"
       top_tgt_variation="0;1"
       scale_bf="2"
       scale_bb="2"
       scale_tf="2"
       scale_tb="2"
       top_smth_variation="0;1"
       bottom_smth_variation="0;1"
       fat_output="false"
       stroke_width_top="1"
       stroke_width_bottom="1"
       front_thickness="1"
       back_thickness="0.25" />
    <inkscape:path-effect
       effect="rough_hatches"
       id="path-effect4863"
       is_visible="true"
       direction="1641.1226,364.66352 , 15.817198,0.69542118"
       dist_rdm="0;1"
       growth="0"
       do_bend="false"
       bender="1641.1226,369.66352 , 5,0"
       bottom_edge_variation="0;1"
       top_edge_variation="0;1"
       bottom_tgt_variation="0;1"
       top_tgt_variation="0;1"
       scale_bf="2"
       scale_bb="2"
       scale_tf="2"
       scale_tb="2"
       top_smth_variation="0;1"
       bottom_smth_variation="0;1"
       fat_output="false"
       stroke_width_top="1"
       stroke_width_bottom="1"
       front_thickness="1"
       back_thickness="0.25" />
    <inkscape:path-effect
       back_thickness="0.25"
       front_thickness="1"
       stroke_width_bottom="1"
       stroke_width_top="1"
       fat_output="false"
       bottom_smth_variation="0;1"
       top_smth_variation="0;1"
       scale_tb="2"
       scale_tf="2"
       scale_bb="2"
       scale_bf="2"
       top_tgt_variation="0;1"
       bottom_tgt_variation="0;1"
       top_edge_variation="0;1"
       bottom_edge_variation="0;1"
       bender="1162.6319,547.0293 , 5,0"
       do_bend="false"
       growth="0"
       dist_rdm="0;1"
       direction="1162.6319,542.0293 , 11.390554,6.9901789"
       is_visible="true"
       id="path-effect4770"
       effect="rough_hatches" />
    <inkscape:path-effect
       back_thickness="0.25"
       front_thickness="1"
       stroke_width_bottom="1"
       stroke_width_top="1"
       fat_output="false"
       bottom_smth_variation="0;1"
       top_smth_variation="0;1"
       scale_tb="2"
       scale_tf="2"
       scale_bb="2"
       scale_bf="2"
       top_tgt_variation="0;1"
       bottom_tgt_variation="0;1"
       top_edge_variation="0;1"
       bottom_edge_variation="0;1"
       bender="1132.958,537.08105 , 5,0"
       do_bend="false"
       growth="0"
       dist_rdm="0;1"
       direction="1132.958,532.08105 , 9.6887557,6.2134923"
       is_visible="true"
       id="path-effect4768"
       effect="rough_hatches" />
    <inkscape:path-effect
       effect="rough_hatches"
       id="path-effect4660"
       is_visible="true"
       direction="1414.0982,232.60425 , 14.613875,-6.2225882"
       dist_rdm="0;1"
       growth="0"
       do_bend="false"
       bender="1414.0982,239.28067 , 6.676426,0"
       bottom_edge_variation="0;1"
       top_edge_variation="0;1"
       bottom_tgt_variation="0;1"
       top_tgt_variation="0;1"
       scale_bf="2"
       scale_bb="2"
       scale_tf="2"
       scale_tb="2"
       top_smth_variation="0;1"
       bottom_smth_variation="0;1"
       fat_output="false"
       stroke_width_top="1"
       stroke_width_bottom="1"
       front_thickness="1"
       back_thickness="0.25" />
    <inkscape:path-effect
       effect="rough_hatches"
       id="path-effect4658"
       is_visible="true"
       direction="1957.0546,244.32551 , 15.064525,7.2596863"
       dist_rdm="0;1"
       growth="0"
       do_bend="false"
       bender="1957.0546,251.00194 , 6.676426,0"
       bottom_edge_variation="0;1"
       top_edge_variation="0;1"
       bottom_tgt_variation="0;1"
       top_tgt_variation="0;1"
       scale_bf="2"
       scale_bb="2"
       scale_tf="2"
       scale_tb="2"
       top_smth_variation="0;1"
       bottom_smth_variation="0;1"
       fat_output="false"
       stroke_width_top="1"
       stroke_width_bottom="1"
       front_thickness="1"
       back_thickness="0.25" />
    <inkscape:path-effect
       effect="rough_hatches"
       id="path-effect4626"
       is_visible="true"
       direction="1670.6264,641.90651 , 18.40852,0"
       dist_rdm="0;1"
       growth="0"
       do_bend="false"
       bender="1670.6264,648.58293 , 6.676426,0"
       bottom_edge_variation="0;1"
       top_edge_variation="0;1"
       bottom_tgt_variation="0;1"
       top_tgt_variation="0;1"
       scale_bf="2"
       scale_bb="2"
       scale_tf="2"
       scale_tb="2"
       top_smth_variation="0;1"
       bottom_smth_variation="0;1"
       fat_output="false"
       stroke_width_top="1"
       stroke_width_bottom="1"
       front_thickness="1"
       back_thickness="0.25" />
    <inkscape:path-effect
       effect="rough_hatches"
       id="path-effect4609"
       is_visible="true"
       direction="1207.748,560.4414 , 31.938475,0"
       dist_rdm="0;1"
       growth="0"
       do_bend="false"
       bender="1207.748,565.4414 , 5,0"
       bottom_edge_variation="0;1"
       top_edge_variation="0;1"
       bottom_tgt_variation="0;1"
       top_tgt_variation="0;1"
       scale_bf="2"
       scale_bb="2"
       scale_tf="2"
       scale_tb="2"
       top_smth_variation="0;1"
       bottom_smth_variation="0;1"
       fat_output="false"
       stroke_width_top="1"
       stroke_width_bottom="1"
       front_thickness="1"
       back_thickness="0.25" />
    <inkscape:perspective
       id="perspective2833"
       inkscape:persp3d-origin="372.04724 : 350.78739 : 1"
       inkscape:vp_z="744.09448 : 526.18109 : 1"
       inkscape:vp_y="0 : 1000 : 0"
       inkscape:vp_x="0 : 526.18109 : 1"
       sodipodi:type="inkscape:persp3d" />
    <inkscape:path-effect
       effect="rough_hatches"
       id="path-effect4542"
       is_visible="true"
       direction="1620.6041,524.31325 , 33.742323,1.3502925e-013"
       dist_rdm="0;1"
       growth="0"
       do_bend="false"
       bender="1620.6041,536.19055 , 11.877298,0"
       bottom_edge_variation="0;1"
       top_edge_variation="0;1"
       bottom_tgt_variation="0;1"
       top_tgt_variation="0;1"
       scale_bf="2"
       scale_bb="2"
       scale_tf="2"
       scale_tb="2"
       top_smth_variation="0;1"
       bottom_smth_variation="0;1"
       fat_output="false"
       stroke_width_top="1"
       stroke_width_bottom="1"
       front_thickness="1"
       back_thickness="0.25" />
    <inkscape:path-effect
       effect="rough_hatches"
       id="path-effect4346"
       is_visible="true"
       direction="613.92859,221.52151 , 12.367072,2.8421709e-014"
       dist_rdm="0;1"
       growth="0"
       do_bend="false"
       bender="613.92859,226.52151 , 5,0"
       bottom_edge_variation="0;1"
       top_edge_variation="0;1"
       bottom_tgt_variation="0;1"
       top_tgt_variation="0;1"
       scale_bf="2"
       scale_bb="2"
       scale_tf="2"
       scale_tb="2"
       top_smth_variation="0;1"
       bottom_smth_variation="0;1"
       fat_output="false"
       stroke_width_top="1"
       stroke_width_bottom="1"
       front_thickness="1"
       back_thickness="0.25" />
    <inkscape:path-effect
       effect="rough_hatches"
       id="path-effect4329"
       is_visible="true"
       direction="217.61212,222.52214 , 13.662296,2.8421709e-014"
       dist_rdm="0;1"
       growth="0"
       do_bend="false"
       bender="217.61212,227.52214 , 5,0"
       bottom_edge_variation="0;1"
       top_edge_variation="0;1"
       bottom_tgt_variation="0;1"
       top_tgt_variation="0;1"
       scale_bf="2"
       scale_bb="2"
       scale_tf="2"
       scale_tb="2"
       top_smth_variation="0;1"
       bottom_smth_variation="0;1"
       fat_output="false"
       stroke_width_top="1"
       stroke_width_bottom="1"
       front_thickness="1"
       back_thickness="0.25" />
    <inkscape:path-effect
       back_thickness="0.25"
       front_thickness="1"
       stroke_width_bottom="1"
       stroke_width_top="1"
       fat_output="false"
       bottom_smth_variation="0;1"
       top_smth_variation="0;1"
       scale_tb="2"
       scale_tf="2"
       scale_bb="2"
       scale_bf="2"
       top_tgt_variation="0;1"
       bottom_tgt_variation="0;1"
       top_edge_variation="0;1"
       bottom_edge_variation="0;1"
       bender="266.98926,108.33887 , 5,0"
       do_bend="false"
       growth="0"
       dist_rdm="0;1"
       direction="266.98926,103.33887 , -9.1728653,-6.363961"
       is_visible="true"
       id="path-effect4426-2"
       effect="rough_hatches" />
    <inkscape:path-effect
       back_thickness="0.25"
       front_thickness="1"
       stroke_width_bottom="1"
       stroke_width_top="1"
       fat_output="false"
       bottom_smth_variation="0;1"
       top_smth_variation="0;1"
       scale_tb="2"
       scale_tf="2"
       scale_bb="2"
       scale_bf="2"
       top_tgt_variation="0;1"
       bottom_tgt_variation="0;1"
       top_edge_variation="0;1"
       bottom_edge_variation="0;1"
       bender="283.66895,114.87988 , 5,0"
       do_bend="false"
       growth="0"
       dist_rdm="0;1"
       direction="283.66895,109.87988 , 9.3006274,6.0104076"
       is_visible="true"
       id="path-effect4424-0"
       effect="rough_hatches" />
    <inkscape:path-effect
       back_thickness="0.25"
       front_thickness="1"
       stroke_width_bottom="1"
       stroke_width_top="1"
       fat_output="false"
       bottom_smth_variation="0;1"
       top_smth_variation="0;1"
       scale_tb="2"
       scale_tf="2"
       scale_bb="2"
       scale_bf="2"
       top_tgt_variation="0;1"
       bottom_tgt_variation="0;1"
       top_edge_variation="0;1"
       bottom_edge_variation="0;1"
       bender="266.98926,108.33887 , 5,0"
       do_bend="false"
       growth="0"
       dist_rdm="0;1"
       direction="266.98926,103.33887 , -9.1728653,-6.363961"
       is_visible="true"
       id="path-effect4426"
       effect="rough_hatches" />
    <inkscape:path-effect
       back_thickness="0.25"
       front_thickness="1"
       stroke_width_bottom="1"
       stroke_width_top="1"
       fat_output="false"
       bottom_smth_variation="0;1"
       top_smth_variation="0;1"
       scale_tb="2"
       scale_tf="2"
       scale_bb="2"
       scale_bf="2"
       top_tgt_variation="0;1"
       bottom_tgt_variation="0;1"
       top_edge_variation="0;1"
       bottom_edge_variation="0;1"
       bender="283.66895,114.87988 , 5,0"
       do_bend="false"
       growth="0"
       dist_rdm="0;1"
       direction="283.66895,109.87988 , 9.3006274,6.0104076"
       is_visible="true"
       id="path-effect4424"
       effect="rough_hatches" />
    <inkscape:path-effect
       back_thickness="0.25"
       front_thickness="1"
       stroke_width_bottom="1"
       stroke_width_top="1"
       fat_output="false"
       bottom_smth_variation="0;1"
       top_smth_variation="0;1"
       scale_tb="2"
       scale_tf="2"
       scale_bb="2"
       scale_bf="2"
       top_tgt_variation="0;1"
       bottom_tgt_variation="0;1"
       top_edge_variation="0;1"
       bottom_edge_variation="0;1"
       bender="1620.2884,445.79101 , 2.9693245,-1.4846622"
       do_bend="false"
       growth="0"
       dist_rdm="0;1"
       direction="1622.6639,436.88304 , 15.18634,-0.29693245"
       is_visible="true"
       id="path-effect4236"
       effect="rough_hatches" />
    <inkscape:path-effect
       back_thickness="0.25"
       front_thickness="1"
       stroke_width_bottom="1"
       stroke_width_top="1"
       fat_output="false"
       bottom_smth_variation="0;1"
       top_smth_variation="0;1"
       scale_tb="2"
       scale_tf="2"
       scale_bb="2"
       scale_bf="2"
       top_tgt_variation="0;1"
       bottom_tgt_variation="0;1"
       top_edge_variation="0;1"
       bottom_edge_variation="0;1"
       bender="1748.5005,398.7383 , 8.535169,0"
       do_bend="false"
       growth="0"
       dist_rdm="0;1"
       direction="1748.5005,390.56086 , 14.892322,-4.647647"
       is_visible="true"
       id="path-effect4179"
       effect="rough_hatches" />
    <inkscape:path-effect
       back_thickness="0.25"
       front_thickness="1"
       stroke_width_bottom="1"
       stroke_width_top="1"
       fat_output="false"
       bottom_smth_variation="0;1"
       top_smth_variation="0;1"
       scale_tb="2"
       scale_tf="2"
       scale_bb="2"
       scale_bf="2"
       top_tgt_variation="0;1"
       bottom_tgt_variation="0;1"
       top_edge_variation="0;1"
       bottom_edge_variation="0;1"
       bender="1483.7621,397.99872 , 8.535169,0"
       do_bend="false"
       growth="0"
       dist_rdm="0;1"
       direction="1483.7621,389.82127 , 15.332581,3.253353"
       is_visible="true"
       id="path-effect4183"
       effect="rough_hatches" />
    <inkscape:path-effect
       back_thickness="0.25"
       front_thickness="1"
       stroke_width_bottom="1"
       stroke_width_top="1"
       fat_output="false"
       bottom_smth_variation="0;1"
       top_smth_variation="0;1"
       scale_tb="2"
       scale_tf="2"
       scale_bb="2"
       scale_bf="2"
       top_tgt_variation="0;1"
       bottom_tgt_variation="0;1"
       top_edge_variation="0;1"
       bottom_edge_variation="0;1"
       bender="1635.7902,534.38316 , 13.640715,0"
       do_bend="false"
       growth="0"
       dist_rdm="0;1"
       direction="1635.7902,520.52818 , 17.711692,-1.5751295e-013"
       is_visible="true"
       id="path-effect4320"
       effect="rough_hatches" />
    <inkscape:path-effect
       effect="rough_hatches"
       id="path-effect4198-9"
       is_visible="true"
       direction="334.46355,362.89976 , 3.9435519,3.0141287"
       dist_rdm="0;1"
       growth="0"
       do_bend="false"
       bender="334.46355,367.89976 , 5,0"
       bottom_edge_variation="0;1"
       top_edge_variation="0;1"
       bottom_tgt_variation="0;1"
       top_tgt_variation="0;1"
       scale_bf="2"
       scale_bb="2"
       scale_tf="2"
       scale_tb="2"
       top_smth_variation="0;1"
       bottom_smth_variation="0;1"
       fat_output="false"
       stroke_width_top="1"
       stroke_width_bottom="1"
       front_thickness="1"
       back_thickness="0.25" />
    <inkscape:path-effect
       effect="rough_hatches"
       id="path-effect4196-8"
       is_visible="true"
       direction="340.02506,364.77812 , 3.8801809,2.8131868"
       dist_rdm="0;1"
       growth="0"
       do_bend="false"
       bender="340.02506,369.77812 , 5,0"
       bottom_edge_variation="0;1"
       top_edge_variation="0;1"
       bottom_tgt_variation="0;1"
       top_tgt_variation="0;1"
       scale_bf="2"
       scale_bb="2"
       scale_tf="2"
       scale_tb="2"
       top_smth_variation="0;1"
       bottom_smth_variation="0;1"
       fat_output="false"
       stroke_width_top="1"
       stroke_width_bottom="1"
       front_thickness="1"
       back_thickness="0.25" />
    <inkscape:path-effect
       effect="rough_hatches"
       id="path-effect4198"
       is_visible="true"
       direction="334.46355,362.89976 , 3.9435519,3.0141287"
       dist_rdm="0;1"
       growth="0"
       do_bend="false"
       bender="334.46355,367.89976 , 5,0"
       bottom_edge_variation="0;1"
       top_edge_variation="0;1"
       bottom_tgt_variation="0;1"
       top_tgt_variation="0;1"
       scale_bf="2"
       scale_bb="2"
       scale_tf="2"
       scale_tb="2"
       top_smth_variation="0;1"
       bottom_smth_variation="0;1"
       fat_output="false"
       stroke_width_top="1"
       stroke_width_bottom="1"
       front_thickness="1"
       back_thickness="0.25" />
    <inkscape:path-effect
       effect="rough_hatches"
       id="path-effect4196"
       is_visible="true"
       direction="340.02506,364.77812 , 3.8801809,2.8131868"
       dist_rdm="0;1"
       growth="0"
       do_bend="false"
       bender="340.02506,369.77812 , 5,0"
       bottom_edge_variation="0;1"
       top_edge_variation="0;1"
       bottom_tgt_variation="0;1"
       top_tgt_variation="0;1"
       scale_bf="2"
       scale_bb="2"
       scale_tf="2"
       scale_tb="2"
       top_smth_variation="0;1"
       bottom_smth_variation="0;1"
       fat_output="false"
       stroke_width_top="1"
       stroke_width_bottom="1"
       front_thickness="1"
       back_thickness="0.25" />
    <inkscape:path-effect
       back_thickness="0.25"
       front_thickness="1"
       stroke_width_bottom="1"
       stroke_width_top="1"
       fat_output="false"
       bottom_smth_variation="0;1"
       top_smth_variation="0;1"
       scale_tb="2"
       scale_tf="2"
       scale_bb="2"
       scale_bf="2"
       top_tgt_variation="0;1"
       bottom_tgt_variation="0;1"
       top_edge_variation="0;1"
       bottom_edge_variation="0;1"
       bender="1162.6319,547.0293 , 5,0"
       do_bend="false"
       growth="0"
       dist_rdm="0;1"
       direction="1162.6319,542.0293 , 11.390554,6.9901789"
       is_visible="true"
       id="path-effect4770-5"
       effect="rough_hatches" />
    <inkscape:path-effect
       back_thickness="0.25"
       front_thickness="1"
       stroke_width_bottom="1"
       stroke_width_top="1"
       fat_output="false"
       bottom_smth_variation="0;1"
       top_smth_variation="0;1"
       scale_tb="2"
       scale_tf="2"
       scale_bb="2"
       scale_bf="2"
       top_tgt_variation="0;1"
       bottom_tgt_variation="0;1"
       top_edge_variation="0;1"
       bottom_edge_variation="0;1"
       bender="1132.958,537.08105 , 5,0"
       do_bend="false"
       growth="0"
       dist_rdm="0;1"
       direction="1132.958,532.08105 , 9.6887557,6.2134923"
       is_visible="true"
       id="path-effect4768-7"
       effect="rough_hatches" />
  </defs>
  <metadata
     id="metadata2830">
    <rdf:RDF>
      <cc:Work
         rdf:about="">
        <dc:format>image/svg+xml</dc:format>
        <dc:type
           rdf:resource="http://purl.org/dc/dcmitype/StillImage" />
        <dc:title />
      </cc:Work>
    </rdf:RDF>
  </metadata>
  <g
     transform="translate(0,-252.36218)"
     id="layer1"
     inkscape:groupmode="layer"
     inkscape:label="1 - black"
     style="display:inline">
    <path
       style="fill:none;fill-rule:evenodd;stroke:#12cde7;stroke-width:2.5;stroke-linecap:butt;stroke-linejoin:miter;stroke-miterlimit:4;stroke-dasharray:none;stroke-opacity:1"
       d="m 1505.6969,724.04007 c 26.9336,-41.7578 -29.4614,-248.77112 -144.9859,-235.60217 -65.0652,7.41694 -62.7496,156.13808 -49.839,195.73103 14.8619,45.57743 194.5055,42.23659 194.8249,39.87114 z"
       id="path4146"
       inkscape:connector-curvature="0"
       sodipodi:nodetypes="cssc" />
    <path
       style="fill:none;fill-rule:evenodd;stroke:#0bb9f4;stroke-width:2.5;stroke-linecap:butt;stroke-linejoin:miter;stroke-miterlimit:4;stroke-dasharray:none;stroke-opacity:1"
       d="m 1405.8232,494.88071 c -39.8951,97.41645 -27.2122,158.21604 -21.1449,223.62294 l 0,0 0,0"
       id="path4148"
       inkscape:connector-curvature="0"
       sodipodi:nodetypes="cccc" />
    <ellipse
       style="opacity:1;fill:none;fill-opacity:1;fill-rule:evenodd;stroke:#0bb9f4;stroke-width:2.5;stroke-miterlimit:4;stroke-dasharray:none;stroke-opacity:1"
       id="path4150"
       cx="1442.3459"
       cy="610.37646"
       rx="25.731117"
       ry="42.871273" />
    <path
       style="fill:none;fill-rule:evenodd;stroke:#0bbde9;stroke-width:2.5;stroke-linecap:butt;stroke-linejoin:miter;stroke-miterlimit:4;stroke-dasharray:none;stroke-opacity:1"
       d="m 1589.8132,477.29551 c 11.0144,0.26576 25.4248,9.48427 33.2253,19.18707 7.6605,9.52825 21.7732,25.58272 26.5914,49.97878 2.2726,11.50811 -25.2615,27.53143 -38.7656,24.34863 -22.0852,-5.20526 -52.1608,-29.67814 -53.8234,-43.57124 -2.3859,-19.93982 23.686,-50.16246 32.7723,-49.94324 z"
       id="path4152"
       inkscape:connector-curvature="0"
       sodipodi:nodetypes="ssssss" />
    <path
       style="fill:none;fill-rule:evenodd;stroke:#0ab1e5;stroke-width:2.5;stroke-linecap:butt;stroke-linejoin:miter;stroke-miterlimit:4;stroke-dasharray:none;stroke-opacity:1"
       d="m 1741.1858,494.10142 c -3.7368,7.00512 35.9666,22.06622 40.8905,13.13934 5.0433,-9.1434 12.5359,-58.6909 5.2104,-62.97827 -4.5688,-2.67413 -39.6735,37.78986 -46.1009,49.83893 z"
       id="path4154"
       inkscape:connector-curvature="0"
       sodipodi:nodetypes="ssss" />
    <path
       style="fill:none;fill-rule:evenodd;stroke:#1cafe4;stroke-width:2.5;stroke-linecap:butt;stroke-linejoin:miter;stroke-miterlimit:4;stroke-dasharray:none;stroke-opacity:1"
       d="m 1559.1604,310.15048 c 13.5425,-13.42228 156.3866,12.34822 182.1387,61.61904 3.6968,7.07315 -32.3987,50.23191 -55.7291,56.18205 -43.2946,11.04179 -92.4903,-0.30288 -107.3801,-7.24929 -40.7398,-19.00596 -48.4584,-81.38407 -19.0295,-110.5518 z"
       id="path4156"
       inkscape:connector-curvature="0"
       sodipodi:nodetypes="sssss" />
    <ellipse
       style="opacity:1;fill:none;fill-opacity:1;fill-rule:evenodd;stroke:#1cafe4;stroke-width:2.50004935;stroke-miterlimit:4;stroke-dasharray:none;stroke-opacity:1"
       id="path4158"
       cx="150.35687"
       cy="1804.7275"
       rx="5.1054373"
       ry="11.087173"
       transform="matrix(0.50874361,-0.86091808,0.86540676,0.50106999,0,0)" />
    <ellipse
       style="opacity:1;fill:none;fill-opacity:1;fill-rule:evenodd;stroke:#09bcfd;stroke-width:2.5;stroke-miterlimit:4;stroke-dasharray:none;stroke-opacity:1"
       id="path4160"
       cx="1484.1805"
       cy="-1130.6409"
       rx="4.9658389"
       ry="11.593633"
       transform="matrix(0.47197864,0.88160998,-0.88160998,0.47197864,0,0)" />
    <path
       style="fill:none;fill-rule:evenodd;stroke:#0ab5e5;stroke-width:2.5;stroke-linecap:butt;stroke-linejoin:miter;stroke-miterlimit:4;stroke-dasharray:none;stroke-opacity:1"
       d="m 1219.3495,742.16332 c 13.8682,19.91547 104.5447,40.7336 167.6401,38.96497 109.6364,-3.07322 280.808,63.23225 280.0042,64.33751 -1.0168,-4.40593 173.8399,-64.75638 269.1302,-62.5252 106.9724,2.50472 191.706,-43.55801 177.6076,-41.68345"
       id="path4162"
       inkscape:connector-curvature="0"
       sodipodi:nodetypes="cscsc" />
    <path
       style="fill:none;fill-rule:evenodd;stroke:#0eb5f5;stroke-width:2.5;stroke-linecap:butt;stroke-linejoin:miter;stroke-miterlimit:4;stroke-dasharray:none;stroke-opacity:1"
       d="m 1314.9498,775.6913 c 0.5029,2.92513 22.0735,41.98627 31.1493,40.32422 13.3828,-2.45077 20.6151,-35.22705 20.6151,-35.22705"
       id="path4166"
       inkscape:connector-curvature="0"
       sodipodi:nodetypes="csc" />
    <path
       style="fill:none;fill-rule:evenodd;stroke:#0cc6f7;stroke-width:2.5;stroke-linecap:butt;stroke-linejoin:miter;stroke-miterlimit:4;stroke-dasharray:none;stroke-opacity:1"
       d="m 1968.9722,781.69464 c -0.051,2.08376 7.6891,34.40522 17.5571,32.50857 18.9539,-3.64307 33.5316,-40.36609 30.9226,-39.30479"
       id="path4168"
       inkscape:connector-curvature="0"
       sodipodi:nodetypes="csc" />
    <path
       style="fill:none;fill-rule:evenodd;stroke:#05c3f4;stroke-width:2.5;stroke-linecap:butt;stroke-linejoin:miter;stroke-miterlimit:4;stroke-dasharray:none;stroke-opacity:1"
       d="m 1252.6832,761.43413 c -12.3455,1.98135 89.4174,179.76948 321.0173,194.78908 66.4008,4.3061 131.4479,4.0306 199.9152,0.6407 190.8263,-9.4479 320.8496,-182.37408 308.843,-199.2743 l 0,0 0,0"
       id="path4170"
       inkscape:connector-curvature="0"
       sodipodi:nodetypes="cssccc" />
    <path
       style="fill:none;fill-rule:evenodd;stroke:#0ab8f5;stroke-width:2.5;stroke-linecap:butt;stroke-linejoin:miter;stroke-miterlimit:4;stroke-dasharray:none;stroke-opacity:1"
       d="m 1821.9925,725.55194 c -20.6974,-16.0239 8.3338,-231.74902 133.9175,-239.00103 45.599,-2.63317 81.6234,134.91434 58.9493,197.67242 -13.5928,37.62272 -195.5416,43.03075 -192.8668,41.32861 z"
       id="path4174"
       inkscape:connector-curvature="0"
       sodipodi:nodetypes="cssc" />
    <path
       style="fill:none;fill-rule:evenodd;stroke:#0dbdf2;stroke-width:2.5;stroke-linecap:butt;stroke-linejoin:miter;stroke-miterlimit:4;stroke-dasharray:none;stroke-opacity:1"
       d="m 1921.3094,494.56032 c 30.5084,70.84264 27.9317,145.36142 20.5041,220.41918"
       id="path4176"
       inkscape:connector-curvature="0"
       sodipodi:nodetypes="cc" />
    <ellipse
       style="opacity:1;fill:none;fill-opacity:1;fill-rule:evenodd;stroke:#0dbdf2;stroke-width:2.5;stroke-miterlimit:4;stroke-dasharray:none;stroke-opacity:1"
       id="path4178"
       cx="1883.3445"
       cy="610.05603"
       rx="25.207813"
       ry="42.828537" />
    <path
       d="m 263.53196,1790.1477 c 0,0 0.84061,5.7753 -0.68105,10.4556 -1.52166,4.6803 -0.13863,-14.1023 -1.72376,-15.8788 -1.58512,-1.7764 0.19483,19.8194 -1.36652,20.4618 -1.56135,0.6424 -0.21758,-22.1338 -1.7796,-21.5603 -1.56203,0.5736 0.21914,22.2929 -1.36503,20.6136 -1.58418,-1.6792 -0.20322,-20.6727 -1.72821,-16.3318 -1.525,4.3409 -0.67279,11.2966 -0.67279,11.2966"
       sodipodi:ry="11.087173"
       sodipodi:rx="5.1054373"
       sodipodi:cy="1794.4257"
       sodipodi:cx="258.82187"
       sodipodi:type="arc"
       inkscape:path-effect="#path-effect4991"
       style="display:inline;opacity:1;fill:none;fill-opacity:1;fill-rule:evenodd;stroke:#1cafe4;stroke-width:2.50004935;stroke-miterlimit:4;stroke-dasharray:none;stroke-opacity:1"
       id="path4158-6"
       transform="matrix(0.50874361,-0.86091808,0.86540676,0.50106999,-46.055517,98.477572)" />
    <path
       d="m 1423.8083,-1213.9744 c 0,0 -1.747,-13.9996 -3.459,-15.0189 -1.7121,-1.0194 3.1301,17.4476 2.0081,19.7177 -1.1219,2.27 -3.6869,-20.5515 -5.0014,-19.3548 -1.3145,1.1967 3.8775,21.6142 2.4284,22.0607 -1.449,0.4466 -3.7682,-21.0048 -4.7089,-17.7243 -0.9407,3.2804 3.4371,19.1586 1.2092,15.2643 -2.2278,-3.8944 -2.0536,-7.1854 -2.0536,-7.1854"
       sodipodi:ry="11.593633"
       sodipodi:rx="4.9658389"
       sodipodi:cy="-1217.9385"
       sodipodi:cx="1419.1417"
       sodipodi:type="arc"
       inkscape:path-effect="#path-effect4989"
       style="display:inline;opacity:1;fill:none;fill-opacity:1;fill-rule:evenodd;stroke:#09bcfd;stroke-width:2.5;stroke-miterlimit:4;stroke-dasharray:none;stroke-opacity:1"
       id="path4160-6"
       transform="matrix(0.47197864,0.88160998,-0.88160998,0.47197864,-46.055517,98.477572)" />
  </g>
  <g
     inkscape:groupmode="layer"
     id="layer3"
     inkscape:label="4  - green"
     style="display:inline">
    <path
       transform="translate(0,-252.36218)"
       style="display:inline;fill:none;fill-rule:evenodd;stroke:#0bbde9;stroke-width:2.5;stroke-linecap:butt;stroke-linejoin:miter;stroke-miterlimit:4;stroke-dasharray:none;stroke-opacity:1"
       d="m 1648.2937,542.19498 c 0,0 0.9015,9.14262 -2.0295,12.98229 -2.9309,3.83966 0.9009,-17.66932 -1.5216,-23.80331 -2.4224,-6.134 -1.3938,27.34008 -4.2423,29.56279 -2.8485,2.22271 1.812,-35.54144 -0.6894,-40.12822 -2.5013,-4.58677 -2.1572,42.31242 -4.9759,43.95228 -2.8188,1.63985 2.4718,-48.48363 -0.069,-52.29157 -2.541,-3.80794 -2.749,53.922 -5.5469,55.15199 -2.7979,1.22999 3.0043,-58.92809 0.4405,-62.28999 -2.5638,-3.36191 -3.2385,63.522 -6.0169,64.36925 -2.7783,0.84724 3.4512,-67.6941 0.8779,-70.86869 -2.5733,-3.1746 -3.657,71.72984 -6.4127,72.13351 -2.7558,0.40367 3.8462,-75.44163 1.2453,-78.07553 -2.6009,-2.63389 -4.0033,78.52202 -6.7257,78.27209 -2.7224,-0.24993 4.1233,-80.87621 1.4948,-82.96856 -2.6285,-2.09236 -4.2112,82.60087 -6.9042,81.77242 -2.6929,-0.82845 4.2752,-83.85606 1.6263,-85.54862 -2.6488,-1.69256 -4.3189,84.71365 -6.9984,83.62191 -2.6795,-1.09174 4.3496,-85.31427 1.682,-86.64043 -2.6676,-1.32617 -4.3613,85.54515 -7.0294,84.22962 -2.6681,-1.31553 4.3622,-85.56242 1.6746,-86.49688 -2.6875,-0.93447 -4.3426,85.1798 -7.0004,83.66058 -2.6577,-1.51922 4.3138,-84.61199 1.6016,-85.06379 -2.7121,-0.4518 -4.2593,83.54473 -6.9069,81.82738 -2.6476,-1.71735 4.2115,-82.6073 1.4291,-81.68019 -2.7825,0.9271 -4.0768,79.96501 -6.7139,78.04054 -2.6371,-1.92447 3.9252,-76.99176 1.0785,-74.80299 -2.8468,2.18876 -3.7158,72.8839 -6.3409,70.7231 -2.625,-2.1608 3.4932,-68.5168 0.6062,-65.53819 -2.8871,2.97861 -3.2318,63.38977 -5.8413,60.92477 -2.6095,-2.46499 2.9553,-57.9677 0.027,-54.18274 -2.9282,3.78495 -2.6385,51.75247 -5.2236,48.80963 -2.5852,-2.94284 2.3012,-45.13775 -0.6921,-40.07467 -2.9933,5.06308 -1.9031,37.32948 -4.4258,33.16146 -2.5227,-4.16801 -0.135,-24.1763 -0.135,-24.1763"
       id="path4152-9"
       inkscape:connector-curvature="0"
       sodipodi:nodetypes="ssssss"
       inkscape:path-effect="#path-effect4865"
       inkscape:original-d="m 1589.4499,477.3651 c 11.0144,0.26576 25.4248,9.48427 33.2253,19.18707 7.6605,9.52825 21.7732,25.58272 26.5914,49.97878 2.2726,11.50811 -25.2615,27.53143 -38.7656,24.34863 -22.0852,-5.20526 -52.1608,-29.67814 -53.8234,-43.57124 -2.3859,-19.93982 23.686,-50.16246 32.7723,-49.94324 z" />
    <path
       transform="translate(0,-252.36218)"
       style="display:inline;fill:none;fill-rule:evenodd;stroke:#0ab1e5;stroke-width:2.5;stroke-linecap:butt;stroke-linejoin:miter;stroke-miterlimit:4;stroke-dasharray:none;stroke-opacity:1"
       d="m 1789.9816,458.14689 c 0,0 1.2352,6.40017 -1.2351,-6.7618 -2.4704,-13.16196 0,26.81438 -2.4704,39.38433 -2.4703,12.56995 0,-46.95011 -2.4703,-45.42301 -2.4704,1.52711 0,58.35453 -2.4704,61.82019 -2.4703,3.46567 0,-60.19046 -2.4703,-57.99743 -2.4703,2.19304 0,60.47082 -2.4703,60.74163 -2.4704,0.27082 0,-58.52909 -2.4704,-56.0699 -2.4703,2.4592 0,56.28776 -2.4703,56.04341 -2.4704,-0.24435 0,-53.57733 -2.4704,-50.94952 -2.4703,2.62781 0,50.69086 -2.4703,50.1689 -2.4704,-0.52197 0,-47.53851 -2.4704,-44.77826 -2.4703,2.76025 0,44.25165 -2.4703,43.5233 -2.4704,-0.72835 0,-40.76299 -2.4704,-37.88057 -2.4703,2.88242 0,37.15271 -2.4703,36.23402 -2.4704,-0.91868 0,-33.35439 -2.4704,-30.33953 -2.4703,3.01486 1e-4,29.42796 -2.4703,28.2908 -2.4703,-1.13717 0,-25.28526 -2.4703,-22.09308 -2.4704,3.19219 0,20.985 -2.4704,19.50122 -2.4703,-1.48377 0,-16.35178 -2.4703,-12.80568 -2.4704,3.5461 -1.2352,10.22335 -1.2352,10.22335"
       id="path4154-0"
       inkscape:connector-curvature="0"
       sodipodi:nodetypes="ssss"
       inkscape:path-effect="#path-effect4867"
       inkscape:original-d="m 1740.8225,494.17101 c -3.7368,7.00512 35.9666,22.06622 40.8905,13.13934 5.0433,-9.1434 12.5359,-58.6909 5.2104,-62.97827 -4.5688,-2.67413 -39.6735,37.78986 -46.1009,49.83893 z" />
    <path
       transform="translate(0,-252.36218)"
       style="display:inline;fill:none;fill-rule:evenodd;stroke:#1cafe4;stroke-width:2.5;stroke-linecap:butt;stroke-linejoin:miter;stroke-miterlimit:4;stroke-dasharray:none;stroke-opacity:1"
       d="m 1739.196,368.82194 c 0,0 1.2132,8.45105 -2.1962,13.90498 -3.4093,5.45392 0.719,-16.3524 -2.2953,-19.88354 -3.0143,-3.53115 -1.1052,25.13829 -4.4585,29.31733 -3.3533,4.17905 1.4414,-32.78612 -1.6062,-35.55846 -3.0477,-2.77233 -1.7458,39.70718 -5.0748,43.33283 -3.3289,3.62566 2.026,-46.08073 -1.0408,-48.41711 -3.0668,-2.33639 -2.2877,52.03428 -5.5986,55.2478 -3.3108,3.21351 2.5312,-57.57176 -0.5485,-59.61404 -3.0798,-2.04228 -2.7623,62.82676 -6.0565,65.66256 -3.2943,2.8358 2.9764,-67.69754 -0.1129,-69.52272 -3.0893,-1.82518 -3.1815,72.36267 -6.4586,74.80693 -3.277,2.44426 3.3691,-76.62741 0.2723,-78.28268 -3.0968,-1.65528 -3.5497,80.73646 -6.8071,82.73528 -3.2575,1.99883 3.7102,-84.38734 0.6073,-85.904 -3.1029,-1.51666 -3.8656,87.92085 -7.0987,89.36663 -3.2331,1.44578 3.9957,-90.88098 0.8877,-92.28093 -3.108,-1.39995 -4.1198,93.7049 -7.3246,94.50509 -3.2047,0.8002 4.2165,-95.90334 1.1041,-97.20251 -3.1124,-1.29917 -4.3085,97.99655 -7.5057,98.62539 -3.1972,0.62884 4.3932,-99.92327 1.2769,-101.13359 -3.1164,-1.21033 -4.4741,101.76055 -7.6648,102.24256 -3.1908,0.48202 4.5484,-103.4519 1.4285,-104.58245 -3.1198,-1.13056 -4.6192,105.06295 -7.8041,105.41171 -3.1849,0.34877 4.6842,-106.54151 1.5612,-107.5993 -3.1231,-1.0578 -4.746,107.94684 -7.9255,108.17332 -3.1795,0.22649 4.8024,-109.23053 1.6764,-110.22095 -3.126,-0.99043 -4.8559,110.44645 -8.0304,110.55954 -3.1745,0.11309 4.9044,-111.54953 1.7756,-112.4767 -3.1288,-0.92718 -4.9501,112.589 -8.12,112.59583 -3.1698,0.007 4.9912,-113.52269 1.8597,-114.38966 -3.1314,-0.86697 -5.0295,114.39588 -8.1949,114.30208 -3.1655,-0.0938 5.0635,-115.16884 1.9295,-115.97771 -3.134,-0.80887 -5.0949,115.88346 -8.2561,115.69325 -3.1612,-0.19021 5.1221,-116.50202 1.9856,-117.25402 -3.1365,-0.752 -5.1468,117.06354 -8.3039,116.77979 -3.1571,-0.28374 5.1674,-117.5318 2.0285,-118.22728 -3.139,-0.69548 -5.1856,117.94346 -8.3386,117.5676 -3.153,-0.37586 5.1996,-118.26322 2.0581,-118.9016 -3.1415,-0.63838 -5.2111,118.5259 -8.3601,118.05763 -3.149,-0.46827 5.2186,-118.69629 2.0745,-119.27591 -3.144,-0.57962 -5.2235,118.80813 -8.3683,118.24487 -3.1448,-0.56327 5.2243,-118.82496 2.0775,-119.3428 -3.1468,-0.51784 -5.2223,118.78057 -8.3627,118.1163 -3.1403,-0.66427 5.216,-118.63488 2.0662,-119.08611 -3.1497,-0.45123 -5.2066,118.4239 -8.342,117.64657 -3.1354,-0.77732 5.1924,-118.09894 2.0394,-118.47609 -3.153,-0.37715 -5.175,117.70319 -8.3043,116.78799 -3.1293,-0.9152 5.1514,-117.16695 1.9947,-117.4584 -3.1568,-0.29145 -5.1245,116.55545 -8.2451,115.44096 -3.1205,-1.11449 5.0885,-115.73541 1.9271,-115.92231 -3.1613,-0.18689 -5.0494,114.84689 -8.1522,113.32911 -3.1028,-1.51778 4.9911,-113.52155 1.8237,-113.57072 -3.1674,-0.0492 -4.927,112.06403 -8.0076,110.04179 -3.0807,-2.02224 4.8408,-110.10323 1.6644,-109.9471 -3.1765,0.15613 -4.7459,107.94389 -7.7991,105.29744 -3.0532,-2.64646 4.6244,-105.18114 1.4308,-104.63325 -3.1937,0.54789 -4.4855,102.02118 -7.5022,98.54331 -3.0166,-3.47786 4.3299,-98.48285 1.0549,-96.08305 -3.2751,2.3998 -4.0749,92.6819 -7.0365,87.95212 -2.9616,-4.72978 3.7506,-85.30738 0.3715,-80.54092 -3.3791,4.76646 -3.3449,76.07981 -6.1979,68.88062 -2.8531,-7.1992 2.8534,-64.90194 -0.7247,-55.60841 -3.5782,9.29353 -3.4195,41.73073 -3.4195,41.73073"
       id="path4156-4"
       inkscape:connector-curvature="0"
       sodipodi:nodetypes="sssss"
       inkscape:path-effect="#path-effect4863"
       inkscape:original-d="m 1558.7971,310.22007 c 13.5425,-13.42228 156.3866,12.34822 182.1387,61.61904 3.6968,7.07315 -32.3987,50.23191 -55.7291,56.18205 -43.2946,11.04179 -92.4903,-0.30288 -107.3801,-7.24929 -40.7398,-19.00596 -48.4584,-81.38407 -19.0295,-110.5518 z" />
  </g>
  <g
     inkscape:label="2 - pink"
     id="layer6"
     inkscape:groupmode="layer"
     style="display:inline">
    <path
       transform="translate(0,-252.36218)"
       inkscape:connector-curvature="0"
       style="display:inline;fill:none;fill-rule:evenodd;stroke:#000000;stroke-width:2.5;stroke-linecap:butt;stroke-linejoin:miter;stroke-miterlimit:4;stroke-dasharray:none;stroke-opacity:1"
       d="m 2082.5766,758.49307 c 0,0 2.3681,-1.02623 -2.2423,0.51713 -4.5481,1.5225 -6.2793,25.08112 -12.9297,34.58301 -3.3369,4.7676 -1.2126,-3.48991 1.1218,-12.72759 2.3357,-9.24221 4.8831,-19.48816 2.5735,-18.72008 -4.4232,1.47099 -10.3566,40.8042 -16.4855,48.24767 -3.0896,3.75238 -0.043,-7.926 3.1292,-20.36709 3.1712,-12.43848 6.4651,-25.64587 4.1676,-24.93845 -2.2839,0.70325 -5.5723,13.89466 -9.1053,27.715 -3.5374,13.83751 -7.3117,28.2635 -10.2942,31.52169 -2.9645,3.23853 0.8503,-11.20955 4.7323,-26.31974 3.88,-15.1029 7.8222,-30.86375 5.5361,-30.21425 -2.2669,0.64404 -6.2061,16.39735 -10.4058,32.70555 -4.2049,16.32849 -8.6616,33.16596 -11.5651,36.0798 -2.8782,2.88843 1.6199,-13.96951 6.1354,-31.42684 4.5127,-17.44626 9.0355,-35.47948 6.7603,-34.88625 -2.2503,0.58673 -6.7708,18.61543 -11.5739,37.14482 -4.809,18.55229 -9.8907,37.55485 -12.7338,40.20377 -2.8106,2.61868 2.313,-16.40287 7.4077,-35.9793 5.0911,-19.5622 10.1441,-39.6597 7.8796,-39.12173 -2.2338,0.53065 -7.2848,20.62503 -12.644,41.17782 -5.3657,20.57781 -11.0287,41.55975 -13.8221,43.99062 -2.7539,2.39655 2.9512,-18.60301 8.5831,-40.12341 5.6274,-21.50352 11.1708,-43.50193 8.9169,-43.01872 -2.2173,0.47534 -7.7587,22.47141 -13.6363,44.89165 -5.8847,22.44695 -12.0938,45.26045 -14.8444,47.50417 -2.6904,2.19458 4.1601,-22.90796 10.2847,-46.24267 6.1274,-23.34544 11.4991,-44.73372 6.9636,-35.16427 -4.4986,9.49156 -10.1029,31.18214 -15.2837,50.64026 -5.2135,19.58062 -10.0798,37.25026 -12.771,39.31238 -2.6681,2.0444 2.4383,-16.4727 7.3459,-34.82903 4.9022,-18.33549 9.6077,-36.51241 6.7522,-33.68341 -2.8253,2.79899 -7.5683,20.99185 -12.3786,38.89871 -4.8185,17.93686 -9.7098,35.61305 -12.3684,37.52866 -2.633,1.89714 2.299,-15.85299 7.1596,-33.88681 4.8572,-18.02134 9.6388,-36.31765 7.2865,-35.45045 -2.3259,0.85745 -7.1134,19.15339 -12.1117,37.66089 -5.0029,18.52451 -10.2122,37.23935 -12.8388,39.01965 -2.5987,1.76134 2.6322,-16.93267 7.9297,-36.50341 5.2995,-19.57829 10.6421,-39.96914 8.9442,-41.63919 -1.6747,-1.64733 -6.9876,18.75534 -12.7316,40.00723 -5.7463,21.26008 -11.9101,43.29528 -14.5123,44.95393 -2.5621,1.63311 3.6594,-20.47167 9.9654,-43.77777 6.3143,-23.33681 12.6636,-47.72825 11.3202,-50.82197 -1.3181,-3.0356 -7.6134,21.39829 -14.5253,47.03185 -6.913,25.63766 -14.4209,52.35273 -17.004,53.9 -2.5242,1.51192 5.0354,-25.20966 12.6338,-53.37576 7.6159,-28.23078 15.1835,-57.63448 14.0923,-61.81023 -1.062,-4.06427 -8.5505,25.42648 -16.8644,56.39709 -8.3129,30.96665 -17.4162,63.22179 -19.9861,64.66651 -2.4785,1.39339 6.546,-30.4152 15.2073,-62.61969 8.6551,-32.18143 16.9271,-64.69937 14.7509,-64.60938 -2.0998,0.0868 -10.3656,32.60419 -19.1985,65.42264 -8.8405,32.84614 -18.2319,65.91951 -20.7704,67.25671 -2.4476,1.28932 6.9797,-31.79276 16.0038,-65.26042 9.018,-33.44533 17.6118,-67.21278 15.4476,-67.18256 -2.0823,0.0291 -10.6687,33.79615 -19.8584,67.85733 -9.1969,34.08759 -18.9803,68.39342 -21.4951,69.63204 -2.4179,1.1909 7.4001,-33.12279 16.775,-67.81295 9.3692,-34.66894 18.2729,-69.64679 16.1213,-69.67814 -2.0645,-0.0301 -10.9597,34.94756 -20.4951,70.21454 -9.5421,35.29177 -19.707,70.79485 -22.1991,71.93953 -2.3891,1.09741 7.811,-34.42003 17.5217,-70.28161 9.7048,-35.83958 18.8988,-71.95801 16.7351,-71.9526 -2.0703,0.005 -11.2571,36.12334 -21.1115,72.49737 -9.861,36.39877 -20.3731,72.97984 -22.8429,74.03454 -2.3616,1.00846 8.1812,-35.57821 18.1902,-72.47103 10.0028,-36.86969 19.4522,-73.98533 17.2707,-73.91911 -2.0821,0.0632 -11.5264,37.17851 -21.6597,74.50937 -10.14,37.35591 -20.9541,74.8611 -23.4021,75.82934 -2.3352,0.92364 8.5072,-36.58627 18.7759,-74.36605 10.2621,-37.75585 19.9329,-75.72722 17.7356,-75.60681 -2.0926,0.11467 -11.7603,38.08567 -22.1351,76.23449 -10.3817,38.17395 -21.4573,76.46731 -23.8838,77.35233 -2.31,0.84254 8.7914,-37.45474 19.2834,-75.98703 10.4854,-38.50787 20.3459,-77.20286 18.1345,-77.03371 -2.1021,0.1608 -11.9615,38.85544 -22.5427,77.6924 -10.5881,38.86195 -21.8866,77.81611 -24.2919,78.62086 -2.286,0.76478 9.0359,-38.19255 19.717,-77.35127 10.6744,-39.13413 20.6947,-78.42864 18.4706,-78.21525 -2.1108,0.20253 -12.1319,39.49675 -22.8862,78.89977 -10.7611,39.42767 -22.2458,78.9226 -24.6304,79.6498 -2.2628,0.69008 9.2428,-38.80737 20.0804,-78.47366 10.8309,-39.64177 20.983,-79.41863 18.7474,-79.16479 -2.1189,0.24058 -12.2735,40.01725 -23.1692,79.87093 -10.9023,39.87784 -22.5381,79.7999 -24.9022,80.45208 -2.2406,0.61815 9.4135,-39.30586 20.3766,-79.36714 10.9565,-40.03708 21.2135,-80.18513 18.9675,-79.89408 -2.1265,0.27557 -12.3878,40.42356 -23.3946,80.61838 -11.0132,40.21834 -22.7664,80.45949 -25.1101,81.03899 -2.2195,0.54876 9.5495,-39.69383 20.6085,-80.04305 11.0524,-40.32555 21.3886,-80.73896 19.1333,-80.41347 -2.1339,0.30797 -12.4761,40.72147 -23.5649,81.15308 -11.0951,40.45436 -22.9332,80.9115 -25.2568,81.4205 -2.1991,0.48171 9.6523,-39.97644 20.7785,-80.51144 11.1199,-40.51204 21.5109,-81.08969 19.247,-80.73212 -2.141,0.33815 -12.5395,40.91605 -23.6824,81.48469 -11.149,40.59051 -23.0406,81.16492 -25.3445,81.60549 -2.1795,0.4168 9.7231,-40.15828 20.8892,-80.78126 11.1599,-40.60086 21.582,-81.24583 19.3103,-80.85826 -2.1479,0.36645 -12.579,41.01185 -23.7491,81.62184 -11.1758,40.63091 -23.0909,81.2278 -25.3751,81.60188 -2.1608,0.35386 9.7629,-40.24343 20.9423,-80.86047 11.1735,-40.59592 21.6039,-81.21506 19.3251,-80.79928 -2.1548,0.39315 -12.5956,41.01289 -23.7668,81.57224 -11.1766,40.57925 -23.0858,81.10737 -25.3507,81.41679 -2.1427,0.29274 9.7729,-40.23557 20.9399,-80.75628 11.1616,-40.50068 21.578,-81.00421 19.2928,-80.56179 -2.1616,0.41846 -12.5898,40.92279 -23.7369,81.34281 -11.1523,40.43884 -23.0273,80.81013 -25.273,81.05662 -2.1254,0.2333 9.7538,-40.13801 20.8838,-80.47514 11.1248,-40.3183 21.5058,-80.61951 19.2145,-80.15182 -2.1683,0.44262 -12.5623,40.74482 -23.6608,80.93981 -11.1034,40.21271 -22.9169,80.34193 -25.1435,80.52715 -2.1088,0.17542 9.7067,-39.95374 20.7754,-80.02291 11.0638,-40.05159 21.3884,-80.06653 19.0918,-79.57475 -2.1752,0.46578 -12.5139,40.48191 -23.5401,80.36886 -11.0307,39.90353 -22.7558,79.70808 -24.9637,79.8336 -2.0928,0.11897 9.6324,-39.68547 20.6164,-79.40487 10.9795,-39.70311 21.2271,-79.35033 18.9255,-78.83548 -2.1821,0.48812 -12.444,40.13337 -23.3761,79.63711 -10.9366,39.52009 -22.5512,78.93199 -24.7513,79.03515 -2.0876,0.0979 9.5262,-39.31391 20.4097,-78.62784 10.8791,-39.29801 21.0382,-78.52999 18.7318,-77.9929 -2.189,0.50976 -12.3638,39.74336 -23.1915,78.82691 -10.8323,39.09996 -22.3256,78.085 -24.5219,78.17975 -2.0865,0.09 9.4057,-38.89493 20.1806,-77.77385 10.7704,-38.86305 20.8345,-77.65331 18.5236,-77.09467 -2.1959,0.53084 -12.2763,39.32285 -22.9914,77.95656 -10.7196,38.65014 -22.0825,77.17872 -24.275,77.2648 -2.0852,0.0819 9.2761,-38.44661 19.9341,-76.86095 10.6537,-38.39859 20.6154,-76.71754 18.3001,-76.13788 -2.2028,0.55148 -12.1814,38.8723 -22.7756,77.0268 -10.5988,38.17087 -21.8222,76.2136 -24.0107,76.29077 -2.084,0.0735 9.1375,-37.96916 19.6705,-75.88957 10.5286,-37.90483 20.3804,-75.72302 18.0609,-75.12274 -2.2097,0.57185 -12.0789,38.39204 -22.5441,76.03806 -10.4697,37.66231 -21.5447,75.18989 -23.729,75.25791 -2.0828,0.0649 8.9898,-37.46265 19.3895,-74.85985 10.3954,-37.38182 20.1299,-74.66985 17.8061,-74.04917 -2.2166,0.59207 -11.9689,37.88222 -22.2968,74.9905 -10.3324,37.12441 -21.2498,74.10751 -23.4298,74.16615 -2.0816,0.056 8.8331,-36.92705 19.0912,-73.77163 10.2538,-36.82947 19.8633,-73.55779 17.5354,-72.91678 -2.2237,0.61234 -11.8514,37.34292 -22.0337,73.88398 -10.1866,36.55703 -20.9374,72.96606 -23.113,73.0151 -2.0804,0.0469 8.6673,-36.36211 18.7753,-72.62442 10.1039,-36.24748 19.5807,-72.38625 17.2486,-71.72473 -2.2309,0.63285 -11.7263,36.77399 -21.7544,72.71801 -10.0324,35.95977 -20.6073,71.76473 -22.7784,71.80396 -2.0791,0.0376 8.4924,-35.7674 18.4417,-71.41729 9.9453,-35.63538 19.2813,-71.15418 16.945,-70.47172 -2.2385,0.65386 -11.5935,36.17517 -21.4586,71.49168 -9.8694,35.33201 -20.259,70.50223 -22.4256,70.53144 -2.0778,0.028 8.3081,-35.14222 18.0899,-70.14878 9.7779,-34.99239 18.9647,-69.85999 16.6239,-69.15579 -2.2462,0.67573 -11.4524,35.54598 -21.1456,70.20356 -9.6975,34.67285 -19.892,69.17659 -22.0538,69.1956 -2.0766,0.0183 8.1139,-34.48555 17.719,-68.81673 9.6012,-34.31735 18.6303,-68.50123 16.2847,-67.77398 -2.2545,0.69899 -11.3033,34.88566 -20.8152,68.85151 -9.516,33.98084 -19.5053,67.78486 -21.6623,67.7935 -2.0753,0.008 7.9096,-33.79587 17.3283,-67.41788 9.4149,-33.60854 18.2769,-67.0743 15.9259,-66.32184 -2.2634,0.72441 -11.1455,34.19311 -20.4659,67.43227 -9.3246,33.25389 -19.0978,66.32261 -21.2499,66.32071 -2.0739,-0.002 7.6946,-33.07084 16.9163,-65.94727 9.2181,-32.86331 17.9029,-65.57358 15.5455,-64.79236 -2.2733,0.75338 -10.9786,33.46677 -20.0966,65.94094 -9.1222,32.48865 -18.6673,64.78284 -20.8144,64.77025 -2.0726,-0.0122 7.4676,-32.30689 16.4807,-64.39703 9.0096,-32.07734 17.5058,-63.98984 15.1404,-63.17351 -2.285,0.78861 -10.8022,32.70445 -19.7053,64.36963 -8.9071,31.67949 -18.2104,63.15352 -20.3524,63.13011 -2.0713,-0.0226 7.2269,-31.4979 16.0176,-62.75334 8.7872,-31.24283 17.0809,-62.30604 14.704,-61.44155 -2.3003,0.83665 -10.6157,31.90352 -19.2882,62.70457 -8.6766,30.81536 -17.7206,61.41094 -19.8573,61.37658 -2.07,-0.0333 6.9692,-30.63291 15.5191,-60.98835 8.5463,-30.34266 16.6178,-60.48278 14.2197,-59.5332 -2.3254,0.92077 -10.4203,31.0652 -18.8388,60.91793 -8.4226,29.86758 -17.1797,59.49182 -19.311,59.4464 -2.0688,-0.0441 6.6826,-29.67166 14.9569,-59.00193 8.2703,-29.31624 16.0799,-58.38138 13.6296,-57.2305 -2.3812,1.1184 -10.2186,30.18967 -18.3325,58.90962 -8.1188,28.737 -16.5267,57.17819 -18.652,57.12163 -2.0687,-0.055 6.4856,-29.00113 14.7059,-58.12262 8.2237,-29.13397 16.1022,-58.41055 14.164,-59.18902 -1.8832,-0.75637 -9.7453,28.52286 -18.0597,58.0082 -8.3112,29.47393 -17.0688,59.12586 -19.195,59.05787 -2.064,-0.066 6.6956,-29.71597 15.0988,-59.52843 8.4068,-29.82504 16.4464,-59.78071 14.496,-60.52097 -1.8924,-0.71826 -9.9161,29.23983 -18.4066,59.3917 -8.4873,30.14024 -17.4356,60.4468 -19.5598,60.36736 -2.0593,-0.077 6.8911,-30.38305 15.4647,-60.84254 8.5773,-30.47238 16.7672,-61.06672 14.8091,-61.7848 -1.8976,-0.69585 -10.0717,29.90081 -18.728,60.6833 -8.6529,30.77048 -17.7819,61.69959 -19.904,61.6086 -2.0546,-0.0881 7.0762,-31.01692 15.8109,-62.09133 8.7384,-31.08766 17.0701,-62.28967 15.1055,-62.99042 -1.9013,-0.67818 -10.2174,30.52605 -19.0306,61.90946 -8.8097,31.37097 -18.1107,62.8941 -20.2306,62.79149 -2.05,-0.0992 7.2525,-31.62216 16.1398,-63.28327 8.8913,-31.67476 17.3571,-63.45677 15.3867,-64.1424 -1.9045,-0.66273 -10.3548,31.12143 -19.317,63.07865 -8.9586,31.94433 -18.4231,64.03492 -20.5409,63.92064 -2.0453,-0.11038 7.4204,-32.20083 16.4527,-64.42229 9.0363,-32.23552 17.6289,-64.57149 15.6532,-65.24316 -1.9074,-0.64847 -10.4847,31.68958 -19.5883,64.19482 -9.0997,32.49191 -18.7199,65.12451 -20.8355,64.9985 -2.0407,-0.12155 7.5803,-32.75404 16.7501,-65.5105 9.1738,-32.77091 17.8864,-65.63568 15.9055,-66.29404 -1.9102,-0.63489 -10.6077,32.23248 -19.8452,65.26071 -9.2336,33.0144 -19.0015,66.16366 -21.114,66.02347 -2.0355,-0.13507 7.7328,-33.28424 17.0323,-66.54966 9.3037,-33.28029 18.1289,-66.64742 16.1431,-67.29282 -1.9129,-0.62167 -10.7232,32.7476 -20.085,66.26606 -9.3577,33.50376 -19.2617,67.13253 -21.3647,66.95631 -2.024,-0.1696 7.8794,-33.79829 17.2958,-67.52893 9.4207,-33.74633 18.3455,-67.56729 16.3548,-68.19983 -1.9155,-0.60867 -10.8256,33.21411 -20.2974,67.17411 -9.4675,33.9444 -19.492,68.00391 -21.585,67.7907 -2.0124,-0.205 8.0104,-34.26447 17.5292,-68.4112 9.5233,-34.16322 18.5345,-68.38879 16.5392,-69.00845 -1.9182,-0.59572 -10.9151,33.63156 -20.4826,67.98395 -9.5629,34.33593 -19.692,68.7771 -21.7749,68.52683 -2.001,-0.24043 8.1255,-34.68162 17.7322,-69.19526 9.6116,-34.53093 18.6961,-69.11201 16.6962,-69.71866 -1.921,-0.58273 -10.9917,33.99995 -20.6403,68.69548 -9.6439,34.67822 -19.8619,69.45182 -21.9346,69.1644 -1.9896,-0.27589 8.2246,-35.04959 17.9049,-69.88079 9.6853,-34.84928 18.8303,-69.73657 16.8259,-70.32998 -1.924,-0.56959 -11.0555,34.3192 -20.7709,69.30836 -9.7104,34.97104 -20.0014,70.02758 -22.0638,69.70292 -1.9784,-0.31142 8.3077,-35.36814 18.0471,-70.46729 9.7447,-35.11796 18.9371,-70.26187 16.9283,-70.84173 -1.927,-0.55624 -11.1065,34.58906 -20.8743,69.82202 -9.7624,35.21409 -20.1105,70.50369 -22.1625,70.1417 -1.9672,-0.34704 8.3748,-35.63693 18.1588,-70.95403 9.7895,-35.33662 19.0165,-70.68716 17.0033,-71.25307 -1.9302,-0.54261 -11.1448,34.80921 -20.9504,70.23573 -9.8,35.40694 -20.189,70.87928 -22.2305,70.47986 -1.9563,-0.38276 8.4256,-35.85552 18.2397,-71.34014 9.8197,-35.50479 19.0684,-71.01148 17.0509,-71.563 -1.9338,-0.5286 -11.1705,34.97925 -20.9992,70.54858 -9.8232,35.5491 -20.2368,71.15333 -22.2676,70.71635 -1.9455,-0.41861 8.46,-36.0234 18.2896,-71.62453 9.8353,-35.62193 19.0926,-71.23373 17.0707,-71.77033 -1.9374,-0.51416 -11.1833,35.09868 -21.0205,70.75947 -9.8315,35.63999 -20.2535,71.3246 -22.2736,70.84994 -1.9347,-0.45462 8.4781,-36.13997 18.3084,-71.80599 9.8361,-35.68739 19.089,-71.35258 17.0627,-71.87365 -1.9412,-0.49923 -11.1833,35.1669 -21.0143,70.86712 -9.825,35.6789 -20.2388,71.39169 -22.248,70.8792 -1.9241,-0.4908 8.4793,-36.20451 18.2955,-71.88308 9.8222,-35.70043 19.0574,-71.36654 17.0269,-71.87142 -1.9454,-0.48369 -11.1706,35.18324 -20.9803,70.87007 -9.8037,35.66509 -20.1927,71.35302 -22.1908,70.80255 -1.9137,-0.5272 8.4638,-36.21625 18.2509,-71.8542 9.7932,-35.66022 18.9975,-71.27392 16.9625,-71.76183 -1.9498,-0.4675 -11.1447,35.14691 -20.9181,70.76666 -9.7674,35.59764 -20.1146,71.20674 -22.1015,70.61812 -1.9034,-0.56384 8.4313,-36.17427 18.1742,-71.71748 9.749,-35.56584 18.9089,-71.07281 16.8695,-71.5429 -1.9546,-0.45053 -11.1058,35.05705 -20.8277,70.55499 -9.7157,35.4756 -20.004,70.95084 -21.9797,70.32389 -1.8932,-0.60075 8.3816,-36.07758 18.0649,-71.47087 9.6895,-35.41619 18.7913,-70.76103 16.7474,-71.21234 -1.9596,-0.4327 -11.0536,34.91264 -20.7084,70.23295 -9.6487,35.29781 -19.8608,70.583 -21.8251,69.9175 -1.883,-0.63797 8.3145,-35.925 17.9226,-71.11202 9.6144,-35.2101 18.6444,-70.33616 16.5958,-70.76761 -1.965,-0.41387 -10.988,34.71257 -20.56,69.79815 -9.5659,35.06302 -19.6842,70.10064 -21.6369,69.39637 -1.8731,-0.67554 8.2296,-35.71529 17.7467,-70.63832 9.5234,-34.94621 18.4674,-69.79544 16.4141,-70.20583 -1.9709,-0.39393 -10.9087,34.45559 -20.382,69.24789 -9.4671,34.76981 -19.4737,69.50086 -21.4147,68.75756 -1.8632,-0.71349 8.1268,-35.44697 17.5367,-70.0468 9.4163,-34.62301 18.2599,-69.13579 16.2017,-69.52376 -1.9772,-0.3727 -10.8155,34.14029 -20.1737,68.57915 -9.3521,34.41656 -19.2287,68.78036 -21.1579,67.99774 -1.8535,-0.75187 8.0057,-35.1184 17.292,-69.33411 9.2926,-34.23877 18.0211,-68.35372 15.9577,-68.71773 -1.9839,-0.35 -10.708,33.76506 -19.9344,67.78853 -9.2205,34.00145 -18.9485,67.93541 -20.8657,67.11317 -1.8438,-0.79073 7.8658,-34.72776 17.0118,-68.49648 9.1521,-33.79156 17.7501,-67.44527 15.6813,-67.78357 -1.9912,-0.32563 -10.5858,33.32812 -19.6634,66.87214 -9.0717,33.52243 -18.632,66.96182 -20.5372,66.09959 -1.8342,-0.83011 7.7069,-34.27291 16.6951,-67.52957 8.9942,-33.27918 17.4463,-66.40595 15.3717,-66.71654 -1.9992,-0.2993 -10.4487,32.82744 -19.3598,65.8256 -8.9054,32.97714 -18.2784,65.85478 -20.1713,64.95218 -1.8247,-0.87009 7.5283,-33.75149 16.3409,-66.42852 8.8185,-32.69908 17.1082,-65.23059 15.0274,-65.51117 -2.0077,-0.27072 -10.296,32.2607 -19.0225,64.6439 -8.7209,32.36288 -17.8865,64.60876 -19.7669,63.66535 -1.8153,-0.9107 7.3296,-33.16073 15.9481,-65.18763 8.6242,-32.04839 16.7347,-63.9133 14.6472,-64.16117 -2.0171,-0.23952 -10.1272,31.62526 -18.6501,63.32127 -8.5177,31.67652 -17.4549,63.21742 -19.3229,62.2327 -1.8058,-0.95202 7.1101,-32.49745 15.5153,-63.8004 8.4108,-31.32375 16.3243,-62.4472 14.2295,-62.65923 -2.0274,-0.2052 -9.9417,30.91811 -18.2414,61.85108 -8.2948,30.91446 -16.982,61.67336 -18.8372,60.64678 -1.7966,-0.99413 6.8689,-31.75796 15.0407,-62.25921 8.1772,-30.52122 15.875,-60.82427 13.7721,-60.99673 -2.0388,-0.16718 -9.7384,30.13573 -17.7944,60.22556 -8.0513,30.07245 -16.466,59.96789 -18.3082,58.89884 -1.7873,-1.03712 6.6051,-30.93791 14.5225,-60.55509 7.9225,-29.63621 15.3848,-59.03507 13.2727,-59.16347 -2.0513,-0.1247 -9.5166,29.27403 -17.307,58.4356 -7.7861,29.14544 -15.9044,58.09072 -17.7336,56.97849 -1.7779,-1.08107 6.3177,-30.03213 13.9583,-58.67737 7.6453,-28.66319 14.8508,-57.06826 12.7284,-57.14716 -2.0653,-0.0768 -9.2751,28.32823 -16.7768,56.47034 -7.4977,28.12739 -15.2945,56.02946 -17.1104,54.87325 -1.7686,-1.1261 6.0053,-29.03439 13.345,-56.61314 7.3442,-27.59552 14.2701,-54.91016 12.1357,-54.9328 -2.0812,-0.0221 -9.0125,27.29261 -16.2006,54.31669 -7.1845,27.01092 -14.6328,53.76898 -16.4352,52.56788 -1.7592,-1.17232 5.6661,-27.93707 12.6791,-54.3466 7.0172,-26.42497 13.6382,-52.54384 11.4899,-52.50165 -2.0993,0.0412 -8.7272,26.16026 -15.5745,51.95858 -6.8443,25.78685 -13.9149,51.29044 -15.7035,50.04341 -1.7498,-1.21995 5.2954,-26.72122 11.9586,-51.86834 6.6673,-25.16222 12.9674,-50.01563 10.8319,-50.01539 -2.0914,2.3e-4 -8.3974,24.85373 -14.8941,49.38635 -6.4937,24.52153 -13.1839,48.7555 -14.9588,47.46117 -1.74,-1.26894 4.928,-25.51041 11.2437,-49.40256 6.3196,-23.90694 12.3003,-47.50586 10.1815,-47.56369 -2.0792,-0.0568 -8.0648,23.54218 -14.2148,46.82389 -6.1473,23.27091 -12.464,46.25364 -14.225,44.91047 -1.7308,-1.32008 3.7337,-21.31144 8.5128,-39.30986 4.7862,-18.02498 8.9012,-34.05446 5.1167,-27.58354 -3.7655,6.43858 -7.9978,22.58768 -11.758,36.63138 -3.7724,14.08928 -7.1016,26.2127 -8.8375,24.82784 -1.7294,-1.37966 1.7551,-14.15218 5.0609,-26.51804 3.307,-12.37021 6.4411,-24.34912 4.2737,-24.16331 -2.1568,0.18492 -5.296,12.16422 -8.3884,23.73615 -3.0919,11.57051 -6.1373,22.74098 -7.8622,21.30114 -1.7184,-1.43436 1.3693,-12.80221 4.4055,-24.19432 3.0383,-11.3997 6.0246,-22.82225 4.3168,-24.40396 -1.7005,-1.57508 -4.6767,9.8505 -7.7208,21.30484 -3.0427,11.44913 -6.1535,22.92703 -7.8661,21.4306 -1.7053,-1.49015 1.4022,-12.99109 4.4837,-24.62024 3.0841,-11.63865 6.1398,-23.39911 4.5515,-25.45577 -1.5814,-2.0478 -4.6232,9.7184 -7.7652,21.61828 -3.1405,11.89375 -6.3818,23.92134 -8.0811,22.36565 -1.6915,-1.54848 1.542,-13.58239 4.7581,-25.80199 3.2193,-12.23125 6.4178,-24.63799 4.9002,-26.99039 -1.5104,-2.34131 -4.6921,10.07358 -7.9972,22.68169 -3.3032,12.60081 -6.731,25.39535 -8.4166,23.77679 -1.6767,-1.61004 1.7397,-14.39978 5.1449,-27.43414 3.409,-13.04901 6.8018,-26.32733 5.3556,-28.98779 -1.4384,-2.64627 -4.8108,10.64346 -8.3334,24.18848 -3.5204,13.53606 -7.1927,27.32835 -8.8639,25.64244 -1.66,-1.67465 2.1154,-15.90448 5.7842,-30.07045 3.672,-14.17821 7.2383,-28.29557 5.4963,-29.8065 -1.7307,-1.50108 -5.2858,12.61945 -8.9193,26.69071 -3.6313,14.06255 -7.3408,28.07659 -8.9955,26.31904 -1.6439,-1.74617 1.9713,-15.46507 5.4091,-28.80974 3.4397,-13.35249 6.7084,-26.3488 4.6737,-26.68887 -2.023,-0.33814 -5.2927,12.6584 -8.5411,25.28488 -3.2474,12.62256 -6.4731,24.88058 -8.1085,23.04584 -1.6275,-1.82594 1.583,-14.0899 4.6314,-25.9718 3.05,-11.8886 5.9433,-23.41057 3.9186,-23.78598 -2.0156,-0.37374 -4.9097,11.14867 -7.7633,22.28742 -2.8528,11.13585 -5.6643,21.89131 -7.279,19.96921 -1.609,-1.91521 1.1885,-12.67631 3.8373,-23.04585 2.6501,-10.37508 5.1559,-20.37141 3.1418,-20.78479 -2.0075,-0.412 -4.514,9.58514 -6.9616,19.18221 -2.4472,9.59516 -4.8341,18.79146 -6.4254,16.76826 -3.201,-4.0697 9.4773,-36.74934 5.3629,-37.68375 -1.9983,-0.45381 -4.1029,7.95664 -6.1308,15.94609 -2.0276,7.98847 -3.977,15.55529 -5.54,13.40939 -3.1388,-4.30925 7.7411,-30.24474 3.6897,-31.2644 -3.9122,-0.98466 -6.8295,26.97006 -9.8704,22.37059 -3.0591,-4.62698 5.9293,-23.35955 1.9377,-24.47681 -3.9196,-1.09711 -5.004,19.88854 -7.9323,14.77009 -2.936,-5.13167 3.9904,-15.87045 0.055,-17.1026 -3.9162,-1.22605 -3.0724,12.31245 -5.6204,5.58752 -2.5492,-6.72848 -0.2485,-7.4992 -0.2485,-7.4992 m 825.0385,15.25415 c 0,0 4.4274,-17.74822 4.4274,-17.74822"
       id="path4170-5"
       inkscape:path-effect="#path-effect5167"
       inkscape:original-d="m 2082.458,758.19473 c -17.0616,6.22529 -39.0798,12.95598 -63.8398,17.80469 -0.3827,4.81543 -13.9906,35.70888 -31.2149,39.01953 -9.745,1.87296 -17.3471,-29.94461 -17.4863,-32.7461 -8.0316,0.46675 -16.1817,0.64569 -24.3965,0.46875 -103.5932,-2.2313 -278.8879,58.01012 -277.8711,62.41602 0.8038,-1.1052 -170.3675,-67.41119 -280.0039,-64.33789 -5.716,0.16024 -12.413,0.0896 -19.7636,-0.20899 -0.4653,2.03013 -7.9493,33.84752 -20.9083,36.22071 -9.002,1.64851 -29.5348,-33.31449 -31.371,-41.26758 -21.7937,-3.24345 -44.1333,-8.02445 -62.9922,-14.52539 -12.1625,2.1848 90.3649,180.9804 321.9648,196 66.4008,4.3061 131.4468,4.03052 199.9141,0.64062 190.8263,-9.4479 319.9206,-182.26581 307.914,-199.16601 l 0.9297,-0.10742 -0.875,-0.21094 z" />
  </g>
  <g
     inkscape:groupmode="layer"
     id="layer2"
     inkscape:label="3 - red"
     style="display:inline">
    <g
       id="g5486"
       transform="translate(458.55691,-122.58192)"
       style="display:inline;stroke-width:2.5;stroke-miterlimit:4;stroke-dasharray:none">
      <path
         inkscape:connector-curvature="0"
         style="display:inline;fill:none;fill-rule:evenodd;stroke:#12cde7;stroke-width:2.5;stroke-linecap:butt;stroke-linejoin:miter;stroke-miterlimit:4;stroke-dasharray:none;stroke-opacity:1"
         d="m 1053.4974,311.3459 c 0,0 1.1324,10.30623 -1.1324,-16.07634 -2.2648,-26.38258 0,33.04251 -2.2648,39.82757 -2.2647,6.78507 0,-60.71262 -2.2647,-70.90366 -2.2648,-10.19104 0,78.18274 -2.2648,78.53093 -2.2647,0.34819 0,-88.48692 -2.2647,-96.343 -2.2648,-7.85608 0,96.62879 -2.2648,96.75279 -2.2648,0.124 0,-104.53537 -2.2648,-111.16242 -2.2647,-6.62704 0,111.28223 -2.2647,111.35636 -2.2648,0.0741 0,-117.94932 -2.2648,-123.75647 -2.2648,-5.80715 0,123.82927 -2.2648,123.87349 -2.2647,0.0442 0,-129.66146 -2.2647,-134.85571 -2.2648,-5.19425 0,134.89932 -2.2648,134.92111 -2.2647,0.0218 0,-140.10324 -2.2647,-144.80744 -2.2648,-4.7042 0,144.8289 -2.2648,144.832 -2.2648,0.003 0,-149.52793 -2.2648,-153.82259 -2.2647,-4.29465 0,153.82549 -2.2647,153.81203 -2.2648,-0.0135 0,-158.10071 -2.2648,-162.04227 -2.2647,-3.94157 0,162.02868 -2.2647,161.99996 -2.2648,-0.0287 0,-165.93703 -2.2648,-169.56706 -2.2648,-3.63004 0,169.53825 -2.2648,169.49508 -2.2647,-0.0432 0,-106.93477 -2.2647,-98.02873 -2.2648,8.90604 0,97.9855 -2.2648,97.92837 -2.2647,-0.0571 0,-89.95066 -2.2647,-85.79369 -2.2648,4.15698 0,85.73653 -2.2648,85.66571 -2.26477,-0.0708 0,-81.63033 -2.26477,-79.05566 -2.26476,2.57467 0,78.98484 -2.26476,78.90045 -2.26476,-0.0844 0,-76.3665 -2.26476,-74.78169 -2.26476,1.58481 0,74.6973 -2.26476,74.59931 -2.26476,-0.098 0,-73.03138 -2.26476,-72.21698 -2.26476,0.8144 0,72.11902 -2.26476,72.0073 -2.26476,-0.11172 0,-71.19018 -2.26476,-71.07574 -2.26477,0.11444 0,70.96406 -2.26477,70.83838 -2.26476,-0.12567 -1.13238,-0.31013 -1.13238,-0.31013 m 27.17718,-125.46172 c 0,0 1.1323,-46.3368 -1.1324,-49.6871 -2.2648,-3.35029 0,43.58266 -2.2648,37.97949 -2.2647,-5.60317 0,-41.32699 -2.2647,-44.42256 -2.2648,-3.09558 0,39.08611 -2.2648,35.84189 -2.26477,-3.24422 0,-38.93519 -2.26477,-41.79624 -2.26476,-2.86104 0,38.61897 -2.26476,36.57995 -2.26476,-2.03902 0,-39.4391 -2.26476,-42.08221 -2.26476,-2.64311 0,40.06925 -2.26476,38.88653 -2.26476,-1.18272 0,-41.52805 -2.26476,-43.9671 -2.26476,-2.43905 -1.13238,42.56134 -1.13238,42.56134"
         id="path5346"
         transform="translate(0,252.36218)"
         inkscape:path-effect="#path-effect5350"
         inkscape:original-d="m 987.06055,141.94336 -1.33203,44.13281 a 25.731117,42.871273 0 0 1 23.53128,42.6875 25.731117,42.871273 0 0 1 -25.7305,42.8711 25.731117,42.871273 0 0 1 -0.37891,-0.0312 l -2.13281,70.73046 c 36.07442,2.05844 65.73202,1.05172 65.86132,0.0937 19.095,-29.60485 -3.7586,-142.1334 -59.81835,-200.48437 z" />
      <path
         inkscape:connector-curvature="0"
         style="display:inline;fill:none;fill-rule:evenodd;stroke:#12cde7;stroke-width:2.5;stroke-linecap:butt;stroke-linejoin:miter;stroke-miterlimit:4;stroke-dasharray:none;stroke-opacity:1"
         d="m 985.52446,140.3661 c 0,0 1.0824,45.75595 -1.08239,45.6036 -2.16479,-0.15236 0,-46.72034 -2.16479,-48.78764 -2.16479,-2.0673 0,48.64553 -2.16479,49.12929 -2.16479,0.48376 0,-51.19577 -2.16479,-53.102 -2.16478,-1.90624 0,53.57624 -2.16478,54.71623 -2.16479,1.13998 0,-56.62173 -2.16479,-58.3731 -2.16479,-1.75137 0,59.49055 -2.16479,61.41042 -2.16479,1.91988 0,-63.16112 -2.16479,-64.76321 -2.16479,-1.60208 0,66.62805 -2.16479,69.6208 -2.16478,2.99274 0,-71.22228 -2.16478,-72.68014 -2.16479,-1.45785 0,75.47948 -2.16479,80.4245 -2.16479,4.94501 0,-81.8818 -2.16479,-83.20003 -2.16479,-1.31822 -1.0824,92.86659 -1.0824,92.86659 m 21.64789,58.19988 c 0,0 1.08239,62.14062 -1.0824,67.90471 -2.16479,5.76408 0,-67.98729 -2.16479,-68.78964 -2.16478,-0.80236 0,71.60874 -2.16478,71.47032 -2.16479,-0.13842 0,-72.25779 -2.16479,-73.76518 -2.16479,-1.50739 0,73.62685 -2.16479,73.47538 -2.16479,-0.15147 0,-74.94832 -2.16479,-77.34959 -2.16479,-2.40127 0,77.19821 -2.16479,77.03297 -2.16478,-0.16524 0,-79.33861 -2.16478,-83.11409 -2.16479,-3.77548 0,82.94895 -2.16479,82.76918 -2.16479,-0.17978 0,-86.0049 -2.16479,-93.19895 -2.16479,-7.19405 0,93.01928 -2.16479,92.82414 -2.16479,-0.19514 0,-221.64344 -2.16479,-222.82624 -2.16479,-1.18281 0,222.63122 -2.16479,222.4198 -2.16478,-0.21141 0,-223.60215 -2.16478,-224.65339 -2.16479,-1.05125 0,224.44211 -2.16479,224.21344 -2.16479,-0.22868 0,-225.85245 -2.16479,-225.59932 -2.16479,0.25313 0,225.37078 -2.16479,225.12375 -2.16479,-0.24703 0,-222.39261 -2.16479,-216.76466 -2.16479,5.62794 0,216.51779 -2.16479,216.2512 -2.16478,-0.26659 0,-210.64427 -2.16478,-204.48582 -2.16479,6.15846 0,204.2194 -2.16479,203.9319 -2.16479,-0.2875 0,-197.80873 -2.16479,-190.9044 -2.16479,6.90432 0,190.6171 -2.16479,190.30719 -2.16479,-0.30992 0,-183.47694 -2.16479,-175.40581 -2.16478,8.07114 0,175.09612 -2.16478,174.76209 -2.16479,-0.33403 0,-166.90006 -2.16479,-156.63224 -2.16479,10.26781 0,157.13288 -2.16479,136.28318 -2.16479,-20.8497 0,-127.32373 -2.16479,-110.0936 -2.16479,17.23013 -1.08239,76.42967 -1.08239,76.42967"
         id="path5305"
         transform="translate(0,252.36218)"
         inkscape:path-effect="#path-effect5348"
         inkscape:original-d="m 946.96875,113.36523 c -2.47759,6.05373 -4.75612,11.96923 -6.8418,17.75 -2.09713,5.81253 -4.0027,11.49218 -5.73242,17.04883 -1.72972,5.55665 -3.28262,10.98965 -4.67383,16.31055 -1.39121,5.3209 -2.62152,10.52948 -3.70312,15.63477 -1.08161,5.10528 -2.0155,10.10778 -2.81641,15.01757 -0.8009,4.9098 -1.46847,9.72651 -2.01758,14.46094 -0.5491,4.73444 -0.97847,9.38564 -1.30468,13.96484 -0.32621,4.57921 -0.54943,9.08715 -0.68164,13.53125 -0.26444,8.88821 -0.17015,17.52558 0.16796,25.99414 0.33812,8.46858 0.92143,16.76855 1.63086,24.97852 1.41326,16.35492 3.33164,32.35592 4.84571,48.64063 18.21843,2.92597 37.41814,4.62345 55.17578,5.63671 l 2.13281,-70.73046 a 25.731117,42.871273 0 0 1 -25.35156,-42.83985 25.731117,42.871273 0 0 1 25.73047,-42.87109 25.731117,42.871273 0 0 1 2.19922,0.18359 l 1.33203,-44.13281 c -11.90417,-12.3907 -25.27296,-22.39225 -40.0918,-28.57813 z" />
    </g>
    <g
       id="g5490"
       transform="translate(-496.873,-107.74989)"
       style="display:inline;stroke-width:2.5;stroke-miterlimit:4;stroke-dasharray:none">
      <path
         transform="translate(0,252.36218)"
         inkscape:connector-curvature="0"
         style="display:inline;fill:none;fill-rule:evenodd;stroke:#0ab8f5;stroke-width:2.5;stroke-linecap:butt;stroke-linejoin:miter;stroke-miterlimit:4;stroke-dasharray:none;stroke-opacity:1"
         d="m 2382.2644,278.38294 c 0,0 1.2965,45.9333 -1.2966,46.16602 -2.5931,0.23272 0,-69.37279 -2.5931,-69.68688 -2.5932,-0.31409 0,69.91956 -2.5932,70.13874 -2.5931,0.21918 0,-70.4394 -2.5931,-71.71027 -2.5931,-1.27086 0,71.92943 -2.5931,72.13534 -2.5932,0.20592 0,-73.36571 -2.5932,-75.79816 -2.5931,-2.43245 0,76.00407 -2.5931,76.19686 -2.5932,0.19278 0,-78.50394 -2.5932,-82.70372 -2.5931,-4.19978 0,82.89651 -2.5931,83.07613 -2.5931,0.17962 0,-86.3735 -2.5931,-95.48551 -2.5932,-9.11201 0,95.66518 -2.5932,95.8314 -2.5931,0.16623 0,-172.0741 -2.5931,-167.71091 -2.5931,4.36318 0,167.87722 -2.5931,168.02953 -2.5932,0.15232 0,-163.67594 -2.5932,-158.82235 -2.5931,4.8536 0,158.97482 -2.5931,159.11227 -2.5931,0.13746 0,-154.27214 -2.5931,-148.83686 -2.5932,5.43529 0,148.97459 -2.5932,149.0955 -2.5931,0.12091 0,-143.68042 -2.5931,-137.53066 -2.5931,6.14975 0,137.65211 -2.5931,137.75331 -2.5932,0.10119 0,-131.63694 -2.5932,-124.56315 -2.5931,7.07378 0,124.66562 -2.5931,124.74027 -2.5932,0.0747 0,-117.73064 -2.5932,-109.35724 -2.5931,8.3734 0,109.43676 -2.5931,109.46349 -2.5931,0.0267 0,-101.25344 -2.5931,-90.73579 -2.5932,10.51766 0,91.54128 -2.5932,89.88662 -2.5931,-1.65466 0,-80.2472 -2.5931,-64.21516 -2.5931,16.03203 -1.2966,57.43603 -1.2966,57.43603 m 62.2353,-154.61581 c 0,0 1.2966,3.6852 -1.2966,4.46424 -2.5931,0.77905 0,-42.98163 -2.5931,-40.05136 -2.5931,2.93027 0,40.80617 -2.5931,42.61733 -2.5932,1.81117 0,-39.69066 -2.5932,-36.45857 -2.5931,3.23208 0,38.20123 -2.5931,41.39197 -2.5932,3.19073 0,-38.1643 -2.5932,-34.59846 -2.5931,3.56585 0,37.51685 -2.5931,43.27033 -2.5931,5.75347 0,-39.71002 -2.5931,-35.77077 -2.5932,3.93926 -1.2966,47.75947 -1.2966,47.75947"
         id="path5340"
         inkscape:path-effect="#path-effect5354"
         inkscape:original-d="m 2384.373,324.23828 -3.1855,-69.27344 a 25.207813,42.828537 0 0 1 -1.0234,0.0625 25.207813,42.828537 0 0 1 -25.2071,-42.82812 25.207813,42.828537 0 0 1 22.3067,-42.49024 l -1.9317,-42.01562 c -59.6084,64.66742 -71.9849,188.02865 -56.5195,200.00195 -1.0909,0.69422 29.197,-0.0662 65.5605,-3.45703 z" />
      <path
         inkscape:connector-curvature="0"
         style="display:inline;fill:none;fill-rule:evenodd;stroke:#0ab8f5;stroke-width:2.5;stroke-linecap:butt;stroke-linejoin:miter;stroke-miterlimit:4;stroke-dasharray:none;stroke-opacity:1"
         d="m 2442.8199,262.74217 c 0,0 1.8099,-11.69713 -2.8794,32.61451 -4.6894,44.31163 3.7112,-72.58407 2.3213,-92.80072 -1.39,-20.21666 -5.8889,115.17223 -8.3332,115.57608 -2.4443,0.40385 6.8741,-134.44128 5.0654,-146.46816 -1.8087,-12.02687 -7.5097,146.87174 -9.9526,147.24973 -2.443,0.378 8.1307,-159.01758 6.1714,-168.10021 -1.9592,-9.08262 -8.6144,168.47796 -11.0562,168.83222 -2.4417,0.35425 9.0919,-177.81501 7.0501,-185.28299 -2.0419,-7.46799 -9.4918,185.637 -11.9325,185.9695 -2.4406,0.33249 9.8881,-193.38844 7.7927,-199.80742 -2.0954,-6.41899 -10.2333,200.13968 -12.6729,200.45227 -2.4397,0.31258 10.576,-206.84258 8.4424,-212.51516 -2.1336,-5.67257 -10.8821,212.82753 -13.3208,213.12197 -2.4387,0.29445 11.2346,-219.72212 8.9755,-222.939857 -2.2592,-3.21774 -11.4142,223.234097 -13.852,223.512117 -2.4379,0.27801 11.4845,-224.611636 9.0007,-223.433566 -2.4839,1.178071 -11.4386,223.711366 -13.8757,223.974596 -2.4371,0.26322 5.0077,-97.93855 2.149,-89.431 -2.8586,8.50756 -4.5861,89.69402 -7.0226,89.94407 -2.4364,0.25005 4.2089,-82.31549 1.5914,-78.52376 -2.6175,3.79173 -4.0278,78.77361 -6.4636,79.01209 -2.4359,0.23849 3.8523,-75.34193 1.3196,-73.21015 -2.5326,2.13178 -3.8727,75.74192 -6.0735,71.38349 -2.2008,-4.35843 3.5429,-69.29198 1.0649,-68.22876 -2.478,1.06321 -2.7391,53.57132 -3.8867,28.61488 -1.1477,-24.95645 0.1924,-27.46393 0.1924,-27.46393 m 27.2747,-154.22237 c 0,0 -4.23,106.42965 -6.1825,97.21538 -1.9525,-9.21427 4.9385,-96.58664 2.4417,-95.15477 -2.4969,1.43187 -4.4391,86.81861 -6.6326,82.31746 -2.1935,-4.50115 4.1358,-80.88707 1.6296,-79.27228 -2.5062,1.61479 -3.8293,74.89265 -6.1077,72.05116 -2.2784,-2.8415 3.6015,-70.43804 1.0853,-68.62774 -2.5162,1.81029 -3.3657,65.8265 -5.6987,64.05346 -2.333,-1.77303 3.1826,-62.24507 0.6557,-60.22504 -2.527,2.02002 -2.9895,58.46728 -5.3663,57.5514 -2.3769,-0.91587 2.8394,-55.53355 0.301,-53.28757 -2.5385,2.24598 -2.6778,52.37005 -5.0954,52.2515 -2.4175,-0.11854 2.557,-50.00802 0.01,-47.51744 -2.551,2.49058 -3.0736,60.11255 -4.2357,35.43931 -1.1621,-24.67323 0.4025,-31.57323 0.4025,-31.57323"
         id="path5332"
         transform="translate(0,252.36218)"
         inkscape:path-effect="#path-effect5352"
         inkscape:original-d="m 2418.1328,96.708984 c -16.388,6.850766 -30.5655,17.710686 -42.8008,30.984376 l 1.9317,42.01562 a 25.207813,42.828537 0 0 1 2.9004,-0.33789 25.207813,42.828537 0 0 1 25.2089,42.82813 25.207813,42.828537 0 0 1 -24.1855,42.76562 l 3.1855,69.27344 c 17.6694,-1.64766 36.2399,-3.72806 54.3653,-6.92578 0.8827,-9.0399 1.7055,-18.07333 2.3965,-27.0918 0.7216,-9.41829 1.3121,-18.82223 1.7168,-28.20508 0.4046,-9.38284 0.6241,-18.74501 0.6015,-28.08007 -0.023,-9.33507 -0.2875,-18.64302 -0.8476,-27.91797 -0.2801,-4.63748 -0.6332,-9.26658 -1.0684,-13.88672 -0.4351,-4.62014 -0.9526,-9.23078 -1.5566,-13.83203 -0.604,-4.60126 -1.2954,-9.19261 -2.0821,-13.77344 -0.7866,-4.58083 -1.6673,-9.15011 -2.6504,-13.70898 -0.983,-4.55887 -2.0684,-9.10722 -3.2617,-13.64258 -1.1932,-4.53537 -2.4948,-9.05805 -3.9121,-13.56836 -1.4172,-4.51032 -2.9504,-9.00846 -4.6054,-13.49219 -1.6544,-4.48181 -3.4303,-8.95059 -5.336,-13.404296 z" />
    </g>
  </g>
  <eggbot
     totaldeltay="0"
     totaldeltax="0"
     lastpathnc="0"
     lastpath="0"
     node="0"
     layer="0" />
</svg>
