<?xml version="1.0" encoding="UTF-8" standalone="no"?>
<!-- Created with Inkscape (http://www.inkscape.org/) -->

<svg
   xmlns:dc="http://purl.org/dc/elements/1.1/"
   xmlns:cc="http://creativecommons.org/ns#"
   xmlns:rdf="http://www.w3.org/1999/02/22-rdf-syntax-ns#"
   xmlns:svg="http://www.w3.org/2000/svg"
   xmlns="http://www.w3.org/2000/svg"
   xmlns:sodipodi="http://sodipodi.sourceforge.net/DTD/sodipodi-0.dtd"
   xmlns:inkscape="http://www.inkscape.org/namespaces/inkscape"
   id="svg4136"
   version="1.1"
   inkscape:version="0.91 r13725"
   width="570"
   height="428"
   viewBox="0 0 570 428"
   sodipodi:docname="bulbisarre2.svg">
  <metadata
     id="metadata4142">
    <rdf:RDF>
      <cc:Work
         rdf:about="">
        <dc:format>image/svg+xml</dc:format>
        <dc:type
           rdf:resource="http://purl.org/dc/dcmitype/StillImage" />
        <dc:title></dc:title>
      </cc:Work>
    </rdf:RDF>
  </metadata>
  <defs
     id="defs4140" />
  <sodipodi:namedview
     pagecolor="#ffffff"
     bordercolor="#666666"
     borderopacity="1"
     objecttolerance="10"
     gridtolerance="10"
     guidetolerance="10"
     inkscape:pageopacity="0"
     inkscape:pageshadow="2"
     inkscape:window-width="1920"
     inkscape:window-height="1057"
     id="namedview4138"
     showgrid="false"
     inkscape:zoom="2.0794393"
     inkscape:cx="200.01702"
     inkscape:cy="231.60612"
     inkscape:window-x="-8"
     inkscape:window-y="-8"
     inkscape:window-maximized="1"
     inkscape:current-layer="svg4136" />
  <path
     style="fill:none;fill-rule:evenodd;stroke:#12cde7;stroke-width:1px;stroke-linecap:butt;stroke-linejoin:miter;stroke-opacity:1"
     d="M 205.34382,253.43371 C 219.63748,231.27291 189.70872,121.41126 128.4,128.4 c -34.529981,3.93616 -33.301034,82.86224 -26.44944,103.87416 7.88721,24.18787 103.22377,22.41489 103.39326,21.15955 z"
     id="path4146"
     inkscape:connector-curvature="0"
     sodipodi:nodetypes="cssc" />
  <path
     style="fill:none;fill-rule:evenodd;stroke:#0bb9f4;stroke-width:1px;stroke-linecap:butt;stroke-linejoin:miter;stroke-opacity:1"
     d="m 152.34099,131.81919 c -21.17228,51.69876 -14.44146,83.96501 -11.22154,118.67635 l 0,0 0,0"
     id="path4148"
     inkscape:connector-curvature="0"
     sodipodi:nodetypes="cccc" />
  <ellipse
     style="opacity:1;fill:none;fill-opacity:1;fill-rule:evenodd;stroke:#0bb9f4;stroke-width:1.89281893;stroke-miterlimit:4;stroke-dasharray:none;stroke-opacity:1"
     id="path4150"
     cx="171.72366"
     cy="193.11263"
     rx="13.655464"
     ry="22.751719" />
  <path
     style="fill:none;fill-rule:evenodd;stroke:#0bbde9;stroke-width:1px;stroke-linecap:butt;stroke-linejoin:miter;stroke-opacity:1"
     d="m 249.98424,122.48675 c 5.84528,0.14104 13.49285,5.03329 17.63264,10.18255 4.06533,5.05663 11.55499,13.57671 14.11194,26.52366 1.20616,6.10734 -13.40618,14.61089 -20.57283,12.92178 -11.7206,-2.76242 -27.68167,-15.75014 -28.56394,-23.12319 -1.26626,-10.58203 12.57012,-26.62114 17.39219,-26.5048 z"
     id="path4152"
     inkscape:connector-curvature="0"
     sodipodi:nodetypes="ssssss" />
  <path
     style="fill:none;fill-rule:evenodd;stroke:#0ab1e5;stroke-width:1px;stroke-linecap:butt;stroke-linejoin:miter;stroke-opacity:1"
     d="m 330.31742,131.40562 c -1.98311,3.71761 19.08746,11.71051 21.70056,6.97303 2.67649,-4.85239 6.65272,-31.14717 2.76517,-33.42247 -2.42476,-1.41916 -21.05471,20.05502 -24.46573,26.44944 z"
     id="path4154"
     inkscape:connector-curvature="0"
     sodipodi:nodetypes="ssss" />
  <path
     style="fill:none;fill-rule:evenodd;stroke:#1cafe4;stroke-width:1px;stroke-linecap:butt;stroke-linejoin:miter;stroke-opacity:1"
     d="m 233.71686,33.783145 c 7.18699,-7.123186 82.99405,6.553175 96.66067,32.701124 1.96193,3.75371 -17.19387,26.657998 -29.57528,29.815731 -22.9764,5.85986 -49.08451,-0.160737 -56.98652,-3.847191 C 222.19519,82.366376 218.09895,49.262413 233.71686,33.783145 Z"
     id="path4156"
     inkscape:connector-curvature="0"
     sodipodi:nodetypes="sssss" />
  <ellipse
     style="opacity:1;fill:none;fill-opacity:1;fill-rule:evenodd;stroke:#1cafe4;stroke-width:2.00003958;stroke-miterlimit:4;stroke-dasharray:none;stroke-opacity:1"
     id="path4158"
     cx="-104.50534"
     cy="380.04245"
     rx="2.7094476"
     ry="5.8839459"
     transform="matrix(0.50874361,-0.86091808,0.86540676,0.50106999,0,0)" />
  <ellipse
     style="opacity:1;fill:none;fill-opacity:1;fill-rule:evenodd;stroke:#09bcfd;stroke-width:2;stroke-miterlimit:4;stroke-dasharray:none;stroke-opacity:1"
     id="path4160"
     cx="392.09946"
     cy="-138.33469"
     rx="2.6353631"
     ry="6.1527228"
     transform="matrix(0.47197864,0.88160998,-0.88160998,0.47197864,0,0)" />
  <path
     style="fill:none;fill-rule:evenodd;stroke:#0ab5e5;stroke-width:1px;stroke-linecap:butt;stroke-linejoin:miter;stroke-opacity:1"
     d="m 53.379775,263.05169 c 7.35972,10.56911 55.481645,21.61726 88.966295,20.67865 58.18382,-1.63095 149.02434,33.55726 148.59775,34.14382 -0.53959,-2.33822 92.25664,-34.36611 142.82697,-33.18203 56.77015,1.32925 101.73814,-23.11617 94.25618,-22.12134 l 0.4809,-0.4809"
     id="path4162"
     inkscape:connector-curvature="0"
     sodipodi:nodetypes="cscscc" />
  <path
     style="fill:none;fill-rule:evenodd;stroke:#0eb5f5;stroke-width:1px;stroke-linecap:butt;stroke-linejoin:miter;stroke-opacity:1"
     d="m 104.11461,280.84494 c 0.26688,1.55236 11.71438,22.28205 16.5309,21.4 7.10219,-1.30062 10.94045,-18.69494 10.94045,-18.69494"
     id="path4166"
     inkscape:connector-curvature="0"
     sodipodi:nodetypes="csc" />
  <path
     style="fill:none;fill-rule:evenodd;stroke:#0cc6f7;stroke-width:1px;stroke-linecap:butt;stroke-linejoin:miter;stroke-opacity:1"
     d="m 451.20337,284.0309 c -0.0267,1.10585 4.08061,18.2588 9.31742,17.25225 10.05885,-1.93337 17.79527,-21.42222 16.41067,-20.85899"
     id="path4168"
     inkscape:connector-curvature="0"
     sodipodi:nodetypes="csc" />
  <path
     style="fill:none;fill-rule:evenodd;stroke:#05c3f4;stroke-width:1px;stroke-linecap:butt;stroke-linejoin:miter;stroke-opacity:1"
     d="m 71.069793,273.27868 c -6.551657,1.0515 47.453777,95.40337 170.363477,103.37424 35.23874,2.28528 69.75915,2.13905 106.09462,0.34006 101.27126,-5.014 170.27444,-96.78566 163.90258,-105.75458 l 0,0 0,0"
     id="path4170"
     inkscape:connector-curvature="0"
     sodipodi:nodetypes="cssccc" />
  <path
     style="fill:none;fill-rule:evenodd;stroke:#0ab8f5;stroke-width:1px;stroke-linecap:butt;stroke-linejoin:miter;stroke-opacity:1"
     d="m 373.20143,254.23606 c -10.98411,-8.50386 4.42272,-122.98885 71.06979,-126.83748 24.19927,-1.39742 43.31737,71.59883 31.28431,104.90445 -7.21368,19.96632 -103.7736,22.83635 -102.3541,21.93303 z"
     id="path4174"
     inkscape:connector-curvature="0"
     sodipodi:nodetypes="cssc" />
  <path
     style="fill:none;fill-rule:evenodd;stroke:#0dbdf2;stroke-width:1px;stroke-linecap:butt;stroke-linejoin:miter;stroke-opacity:1"
     d="m 425.90869,131.64916 c 16.19081,37.59608 14.8233,77.14308 10.8815,116.97612"
     id="path4176"
     inkscape:connector-curvature="0"
     sodipodi:nodetypes="cc" />
  <ellipse
     style="opacity:1;fill:none;fill-opacity:1;fill-rule:evenodd;stroke:#0dbdf2;stroke-width:1.93818069;stroke-miterlimit:4;stroke-dasharray:none;stroke-opacity:1"
     id="path4178"
     cx="405.76089"
     cy="192.9426"
     rx="13.377748"
     ry="22.729038" />
</svg>
