<?xml version="1.0" encoding="UTF-8" standalone="no"?>
<!-- Created with Inkscape (http://www.inkscape.org/) -->

<svg
   xmlns:dc="http://purl.org/dc/elements/1.1/"
   xmlns:cc="http://creativecommons.org/ns#"
   xmlns:rdf="http://www.w3.org/1999/02/22-rdf-syntax-ns#"
   xmlns:svg="http://www.w3.org/2000/svg"
   xmlns="http://www.w3.org/2000/svg"
   xmlns:sodipodi="http://sodipodi.sourceforge.net/DTD/sodipodi-0.dtd"
   xmlns:inkscape="http://www.inkscape.org/namespaces/inkscape"
   width="3200"
   height="800"
   id="svg2825"
   version="1.1"
   inkscape:version="0.91 r13725"
   sodipodi:docname="pokemon_2.svg">
  <sodipodi:namedview
     id="base"
     pagecolor="#ffffff"
     bordercolor="#666666"
     borderopacity="1.0"
     inkscape:pageopacity="0.0"
     inkscape:pageshadow="2"
     inkscape:zoom="0.6087561"
     inkscape:cx="1580.6197"
     inkscape:cy="300.50587"
     inkscape:document-units="px"
     inkscape:current-layer="layer6"
     showgrid="false"
     inkscape:window-width="1920"
     inkscape:window-height="1057"
     inkscape:window-x="-8"
     inkscape:window-y="-8"
     inkscape:window-maximized="1" />
  <defs
     id="defs2827">
    <inkscape:path-effect
       back_thickness="0.25"
       front_thickness="1"
       stroke_width_bottom="1"
       stroke_width_top="1"
       fat_output="false"
       bottom_smth_variation="0;1"
       top_smth_variation="0;1"
       scale_tb="2"
       scale_tf="2"
       scale_bb="2"
       scale_bf="2"
       top_tgt_variation="0;1"
       bottom_tgt_variation="0;1"
       top_edge_variation="0;1"
       bottom_edge_variation="0;1"
       bender="1671.2351,559.52603 , 6.5411711,0"
       do_bend="false"
       growth="0"
       dist_rdm="0;1"
       direction="1671.2351,552.98487 , 14.266899,-0.75979633"
       is_visible="true"
       id="path-effect5172"
       effect="rough_hatches" />
    <inkscape:path-effect
       effect="rough_hatches"
       id="path-effect5043"
       is_visible="true"
       direction="2153.1492,468.38583 , 18.798944,-2.3231202"
       dist_rdm="0;1"
       growth="0"
       do_bend="false"
       bender="2153.1492,473.38583 , 5,0"
       bottom_edge_variation="0;1"
       top_edge_variation="0;1"
       bottom_tgt_variation="0;1"
       top_tgt_variation="0;1"
       scale_bf="2"
       scale_bb="2"
       scale_tf="2"
       scale_tb="2"
       top_smth_variation="0;1"
       bottom_smth_variation="0;1"
       fat_output="false"
       stroke_width_top="1"
       stroke_width_bottom="1"
       front_thickness="1"
       back_thickness="0.25" />
    <inkscape:path-effect
       effect="rough_hatches"
       id="path-effect5041"
       is_visible="true"
       direction="2236.0795,464.80783 , 17.209408,-2.3231202"
       dist_rdm="0;1"
       growth="0"
       do_bend="false"
       bender="2236.0795,469.80783 , 5,0"
       bottom_edge_variation="0;1"
       top_edge_variation="0;1"
       bottom_tgt_variation="0;1"
       top_tgt_variation="0;1"
       scale_bf="2"
       scale_bb="2"
       scale_tf="2"
       scale_tb="2"
       top_smth_variation="0;1"
       bottom_smth_variation="0;1"
       fat_output="false"
       stroke_width_top="1"
       stroke_width_bottom="1"
       front_thickness="1"
       back_thickness="0.25" />
    <inkscape:path-effect
       effect="rough_hatches"
       id="path-effect5039"
       is_visible="true"
       direction="2029.3449,656.54116 , 16.592554,-3.0391853"
       dist_rdm="0;1"
       growth="0"
       do_bend="false"
       bender="2029.3449,663.08233 , 6.5411711,0"
       bottom_edge_variation="0;1"
       top_edge_variation="0;1"
       bottom_tgt_variation="0;1"
       top_tgt_variation="0;1"
       scale_bf="2"
       scale_bb="2"
       scale_tf="2"
       scale_tb="2"
       top_smth_variation="0;1"
       bottom_smth_variation="0;1"
       fat_output="false"
       stroke_width_top="1"
       stroke_width_bottom="1"
       front_thickness="1"
       back_thickness="0.25" />
    <inkscape:path-effect
       effect="rough_hatches"
       id="path-effect5037"
       is_visible="true"
       direction="1314.9236,656.81944 , 16.886408,6.0783705"
       dist_rdm="0;1"
       growth="0"
       do_bend="false"
       bender="1314.9236,663.3606 , 6.5411711,0"
       bottom_edge_variation="0;1"
       top_edge_variation="0;1"
       bottom_tgt_variation="0;1"
       top_tgt_variation="0;1"
       scale_bf="2"
       scale_bb="2"
       scale_tf="2"
       scale_tb="2"
       top_smth_variation="0;1"
       bottom_smth_variation="0;1"
       fat_output="false"
       stroke_width_top="1"
       stroke_width_bottom="1"
       front_thickness="1"
       back_thickness="0.25" />
    <inkscape:path-effect
       effect="rough_hatches"
       id="path-effect5035"
       is_visible="true"
       direction="1405.9363,593.81285 , 17.429103,4.6462403"
       dist_rdm="0;1"
       growth="0"
       do_bend="false"
       bender="1405.9363,598.81285 , 5,0"
       bottom_edge_variation="0;1"
       top_edge_variation="0;1"
       bottom_tgt_variation="0;1"
       top_tgt_variation="0;1"
       scale_bf="2"
       scale_bb="2"
       scale_tf="2"
       scale_tb="2"
       top_smth_variation="0;1"
       bottom_smth_variation="0;1"
       fat_output="false"
       stroke_width_top="1"
       stroke_width_bottom="1"
       front_thickness="1"
       back_thickness="0.25" />
    <inkscape:path-effect
       effect="rough_hatches"
       id="path-effect5033"
       is_visible="true"
       direction="1345.0223,572.1186 , 17.040108,3.4846802"
       dist_rdm="0;1"
       growth="0"
       do_bend="false"
       bender="1336.8914,592.21888 , 5,0"
       bottom_edge_variation="0;1"
       top_edge_variation="0;1"
       bottom_tgt_variation="0;1"
       top_tgt_variation="0;1"
       scale_bf="2"
       scale_bb="2"
       scale_tf="2"
       scale_tb="2"
       top_smth_variation="0;1"
       bottom_smth_variation="0;1"
       fat_output="false"
       stroke_width_top="1"
       stroke_width_bottom="1"
       front_thickness="1"
       back_thickness="0.25" />
    <inkscape:path-effect
       back_thickness="0.25"
       front_thickness="1"
       stroke_width_bottom="1"
       stroke_width_top="1"
       fat_output="false"
       bottom_smth_variation="0;1"
       top_smth_variation="0;1"
       scale_tb="2"
       scale_tf="2"
       scale_bb="2"
       scale_bf="2"
       top_tgt_variation="0;1"
       bottom_tgt_variation="0;1"
       top_edge_variation="0;1"
       bottom_edge_variation="0;1"
       bender="1162.6319,547.0293 , 5,0"
       do_bend="false"
       growth="0"
       dist_rdm="0;1"
       direction="1162.6319,542.0293 , 11.390554,6.9901789"
       is_visible="true"
       id="path-effect4770"
       effect="rough_hatches" />
    <inkscape:path-effect
       back_thickness="0.25"
       front_thickness="1"
       stroke_width_bottom="1"
       stroke_width_top="1"
       fat_output="false"
       bottom_smth_variation="0;1"
       top_smth_variation="0;1"
       scale_tb="2"
       scale_tf="2"
       scale_bb="2"
       scale_bf="2"
       top_tgt_variation="0;1"
       bottom_tgt_variation="0;1"
       top_edge_variation="0;1"
       bottom_edge_variation="0;1"
       bender="1132.958,537.08105 , 5,0"
       do_bend="false"
       growth="0"
       dist_rdm="0;1"
       direction="1132.958,532.08105 , 9.6887557,6.2134923"
       is_visible="true"
       id="path-effect4768"
       effect="rough_hatches" />
    <inkscape:path-effect
       effect="rough_hatches"
       id="path-effect4660"
       is_visible="true"
       direction="1414.0982,232.60425 , 14.613875,-6.2225882"
       dist_rdm="0;1"
       growth="0"
       do_bend="false"
       bender="1414.0982,239.28067 , 6.676426,0"
       bottom_edge_variation="0;1"
       top_edge_variation="0;1"
       bottom_tgt_variation="0;1"
       top_tgt_variation="0;1"
       scale_bf="2"
       scale_bb="2"
       scale_tf="2"
       scale_tb="2"
       top_smth_variation="0;1"
       bottom_smth_variation="0;1"
       fat_output="false"
       stroke_width_top="1"
       stroke_width_bottom="1"
       front_thickness="1"
       back_thickness="0.25" />
    <inkscape:path-effect
       effect="rough_hatches"
       id="path-effect4658"
       is_visible="true"
       direction="1957.0546,244.32551 , 15.064525,7.2596863"
       dist_rdm="0;1"
       growth="0"
       do_bend="false"
       bender="1957.0546,251.00194 , 6.676426,0"
       bottom_edge_variation="0;1"
       top_edge_variation="0;1"
       bottom_tgt_variation="0;1"
       top_tgt_variation="0;1"
       scale_bf="2"
       scale_bb="2"
       scale_tf="2"
       scale_tb="2"
       top_smth_variation="0;1"
       bottom_smth_variation="0;1"
       fat_output="false"
       stroke_width_top="1"
       stroke_width_bottom="1"
       front_thickness="1"
       back_thickness="0.25" />
    <inkscape:path-effect
       effect="rough_hatches"
       id="path-effect4626"
       is_visible="true"
       direction="1670.6264,641.90651 , 18.40852,0"
       dist_rdm="0;1"
       growth="0"
       do_bend="false"
       bender="1670.6264,648.58293 , 6.676426,0"
       bottom_edge_variation="0;1"
       top_edge_variation="0;1"
       bottom_tgt_variation="0;1"
       top_tgt_variation="0;1"
       scale_bf="2"
       scale_bb="2"
       scale_tf="2"
       scale_tb="2"
       top_smth_variation="0;1"
       bottom_smth_variation="0;1"
       fat_output="false"
       stroke_width_top="1"
       stroke_width_bottom="1"
       front_thickness="1"
       back_thickness="0.25" />
    <inkscape:path-effect
       effect="rough_hatches"
       id="path-effect4609"
       is_visible="true"
       direction="1207.748,560.4414 , 31.938475,0"
       dist_rdm="0;1"
       growth="0"
       do_bend="false"
       bender="1207.748,565.4414 , 5,0"
       bottom_edge_variation="0;1"
       top_edge_variation="0;1"
       bottom_tgt_variation="0;1"
       top_tgt_variation="0;1"
       scale_bf="2"
       scale_bb="2"
       scale_tf="2"
       scale_tb="2"
       top_smth_variation="0;1"
       bottom_smth_variation="0;1"
       fat_output="false"
       stroke_width_top="1"
       stroke_width_bottom="1"
       front_thickness="1"
       back_thickness="0.25" />
    <inkscape:perspective
       id="perspective2833"
       inkscape:persp3d-origin="372.04724 : 350.78739 : 1"
       inkscape:vp_z="744.09448 : 526.18109 : 1"
       inkscape:vp_y="0 : 1000 : 0"
       inkscape:vp_x="0 : 526.18109 : 1"
       sodipodi:type="inkscape:persp3d" />
    <inkscape:path-effect
       effect="rough_hatches"
       id="path-effect4542"
       is_visible="true"
       direction="1620.6041,524.31325 , 33.742323,1.3502925e-013"
       dist_rdm="0;1"
       growth="0"
       do_bend="false"
       bender="1620.6041,536.19055 , 11.877298,0"
       bottom_edge_variation="0;1"
       top_edge_variation="0;1"
       bottom_tgt_variation="0;1"
       top_tgt_variation="0;1"
       scale_bf="2"
       scale_bb="2"
       scale_tf="2"
       scale_tb="2"
       top_smth_variation="0;1"
       bottom_smth_variation="0;1"
       fat_output="false"
       stroke_width_top="1"
       stroke_width_bottom="1"
       front_thickness="1"
       back_thickness="0.25" />
    <inkscape:path-effect
       effect="rough_hatches"
       id="path-effect4346"
       is_visible="true"
       direction="613.92859,221.52151 , 12.367072,2.8421709e-014"
       dist_rdm="0;1"
       growth="0"
       do_bend="false"
       bender="613.92859,226.52151 , 5,0"
       bottom_edge_variation="0;1"
       top_edge_variation="0;1"
       bottom_tgt_variation="0;1"
       top_tgt_variation="0;1"
       scale_bf="2"
       scale_bb="2"
       scale_tf="2"
       scale_tb="2"
       top_smth_variation="0;1"
       bottom_smth_variation="0;1"
       fat_output="false"
       stroke_width_top="1"
       stroke_width_bottom="1"
       front_thickness="1"
       back_thickness="0.25" />
    <inkscape:path-effect
       effect="rough_hatches"
       id="path-effect4329"
       is_visible="true"
       direction="217.61212,222.52214 , 13.662296,2.8421709e-014"
       dist_rdm="0;1"
       growth="0"
       do_bend="false"
       bender="217.61212,227.52214 , 5,0"
       bottom_edge_variation="0;1"
       top_edge_variation="0;1"
       bottom_tgt_variation="0;1"
       top_tgt_variation="0;1"
       scale_bf="2"
       scale_bb="2"
       scale_tf="2"
       scale_tb="2"
       top_smth_variation="0;1"
       bottom_smth_variation="0;1"
       fat_output="false"
       stroke_width_top="1"
       stroke_width_bottom="1"
       front_thickness="1"
       back_thickness="0.25" />
    <inkscape:path-effect
       back_thickness="0.25"
       front_thickness="1"
       stroke_width_bottom="1"
       stroke_width_top="1"
       fat_output="false"
       bottom_smth_variation="0;1"
       top_smth_variation="0;1"
       scale_tb="2"
       scale_tf="2"
       scale_bb="2"
       scale_bf="2"
       top_tgt_variation="0;1"
       bottom_tgt_variation="0;1"
       top_edge_variation="0;1"
       bottom_edge_variation="0;1"
       bender="266.98926,108.33887 , 5,0"
       do_bend="false"
       growth="0"
       dist_rdm="0;1"
       direction="266.98926,103.33887 , -9.1728653,-6.363961"
       is_visible="true"
       id="path-effect4426-2"
       effect="rough_hatches" />
    <inkscape:path-effect
       back_thickness="0.25"
       front_thickness="1"
       stroke_width_bottom="1"
       stroke_width_top="1"
       fat_output="false"
       bottom_smth_variation="0;1"
       top_smth_variation="0;1"
       scale_tb="2"
       scale_tf="2"
       scale_bb="2"
       scale_bf="2"
       top_tgt_variation="0;1"
       bottom_tgt_variation="0;1"
       top_edge_variation="0;1"
       bottom_edge_variation="0;1"
       bender="283.66895,114.87988 , 5,0"
       do_bend="false"
       growth="0"
       dist_rdm="0;1"
       direction="283.66895,109.87988 , 9.3006274,6.0104076"
       is_visible="true"
       id="path-effect4424-0"
       effect="rough_hatches" />
    <inkscape:path-effect
       back_thickness="0.25"
       front_thickness="1"
       stroke_width_bottom="1"
       stroke_width_top="1"
       fat_output="false"
       bottom_smth_variation="0;1"
       top_smth_variation="0;1"
       scale_tb="2"
       scale_tf="2"
       scale_bb="2"
       scale_bf="2"
       top_tgt_variation="0;1"
       bottom_tgt_variation="0;1"
       top_edge_variation="0;1"
       bottom_edge_variation="0;1"
       bender="266.98926,108.33887 , 5,0"
       do_bend="false"
       growth="0"
       dist_rdm="0;1"
       direction="266.98926,103.33887 , -9.1728653,-6.363961"
       is_visible="true"
       id="path-effect4426"
       effect="rough_hatches" />
    <inkscape:path-effect
       back_thickness="0.25"
       front_thickness="1"
       stroke_width_bottom="1"
       stroke_width_top="1"
       fat_output="false"
       bottom_smth_variation="0;1"
       top_smth_variation="0;1"
       scale_tb="2"
       scale_tf="2"
       scale_bb="2"
       scale_bf="2"
       top_tgt_variation="0;1"
       bottom_tgt_variation="0;1"
       top_edge_variation="0;1"
       bottom_edge_variation="0;1"
       bender="283.66895,114.87988 , 5,0"
       do_bend="false"
       growth="0"
       dist_rdm="0;1"
       direction="283.66895,109.87988 , 9.3006274,6.0104076"
       is_visible="true"
       id="path-effect4424"
       effect="rough_hatches" />
    <inkscape:path-effect
       back_thickness="0.25"
       front_thickness="1"
       stroke_width_bottom="1"
       stroke_width_top="1"
       fat_output="false"
       bottom_smth_variation="0;1"
       top_smth_variation="0;1"
       scale_tb="2"
       scale_tf="2"
       scale_bb="2"
       scale_bf="2"
       top_tgt_variation="0;1"
       bottom_tgt_variation="0;1"
       top_edge_variation="0;1"
       bottom_edge_variation="0;1"
       bender="1620.2884,445.79101 , 2.9693245,-1.4846622"
       do_bend="false"
       growth="0"
       dist_rdm="0;1"
       direction="1622.6639,436.88304 , 15.18634,-0.29693245"
       is_visible="true"
       id="path-effect4236"
       effect="rough_hatches" />
    <inkscape:path-effect
       back_thickness="0.25"
       front_thickness="1"
       stroke_width_bottom="1"
       stroke_width_top="1"
       fat_output="false"
       bottom_smth_variation="0;1"
       top_smth_variation="0;1"
       scale_tb="2"
       scale_tf="2"
       scale_bb="2"
       scale_bf="2"
       top_tgt_variation="0;1"
       bottom_tgt_variation="0;1"
       top_edge_variation="0;1"
       bottom_edge_variation="0;1"
       bender="1748.5005,398.7383 , 8.535169,0"
       do_bend="false"
       growth="0"
       dist_rdm="0;1"
       direction="1748.5005,390.56086 , 14.892322,-4.647647"
       is_visible="true"
       id="path-effect4179"
       effect="rough_hatches" />
    <inkscape:path-effect
       back_thickness="0.25"
       front_thickness="1"
       stroke_width_bottom="1"
       stroke_width_top="1"
       fat_output="false"
       bottom_smth_variation="0;1"
       top_smth_variation="0;1"
       scale_tb="2"
       scale_tf="2"
       scale_bb="2"
       scale_bf="2"
       top_tgt_variation="0;1"
       bottom_tgt_variation="0;1"
       top_edge_variation="0;1"
       bottom_edge_variation="0;1"
       bender="1483.7621,397.99872 , 8.535169,0"
       do_bend="false"
       growth="0"
       dist_rdm="0;1"
       direction="1483.7621,389.82127 , 15.332581,3.253353"
       is_visible="true"
       id="path-effect4183"
       effect="rough_hatches" />
    <inkscape:path-effect
       back_thickness="0.25"
       front_thickness="1"
       stroke_width_bottom="1"
       stroke_width_top="1"
       fat_output="false"
       bottom_smth_variation="0;1"
       top_smth_variation="0;1"
       scale_tb="2"
       scale_tf="2"
       scale_bb="2"
       scale_bf="2"
       top_tgt_variation="0;1"
       bottom_tgt_variation="0;1"
       top_edge_variation="0;1"
       bottom_edge_variation="0;1"
       bender="1635.7902,534.38316 , 13.640715,0"
       do_bend="false"
       growth="0"
       dist_rdm="0;1"
       direction="1635.7902,520.52818 , 17.711692,-1.5751295e-013"
       is_visible="true"
       id="path-effect4320"
       effect="rough_hatches" />
    <inkscape:path-effect
       effect="rough_hatches"
       id="path-effect4198-9"
       is_visible="true"
       direction="334.46355,362.89976 , 3.9435519,3.0141287"
       dist_rdm="0;1"
       growth="0"
       do_bend="false"
       bender="334.46355,367.89976 , 5,0"
       bottom_edge_variation="0;1"
       top_edge_variation="0;1"
       bottom_tgt_variation="0;1"
       top_tgt_variation="0;1"
       scale_bf="2"
       scale_bb="2"
       scale_tf="2"
       scale_tb="2"
       top_smth_variation="0;1"
       bottom_smth_variation="0;1"
       fat_output="false"
       stroke_width_top="1"
       stroke_width_bottom="1"
       front_thickness="1"
       back_thickness="0.25" />
    <inkscape:path-effect
       effect="rough_hatches"
       id="path-effect4196-8"
       is_visible="true"
       direction="340.02506,364.77812 , 3.8801809,2.8131868"
       dist_rdm="0;1"
       growth="0"
       do_bend="false"
       bender="340.02506,369.77812 , 5,0"
       bottom_edge_variation="0;1"
       top_edge_variation="0;1"
       bottom_tgt_variation="0;1"
       top_tgt_variation="0;1"
       scale_bf="2"
       scale_bb="2"
       scale_tf="2"
       scale_tb="2"
       top_smth_variation="0;1"
       bottom_smth_variation="0;1"
       fat_output="false"
       stroke_width_top="1"
       stroke_width_bottom="1"
       front_thickness="1"
       back_thickness="0.25" />
    <inkscape:path-effect
       effect="rough_hatches"
       id="path-effect4198"
       is_visible="true"
       direction="334.46355,362.89976 , 3.9435519,3.0141287"
       dist_rdm="0;1"
       growth="0"
       do_bend="false"
       bender="334.46355,367.89976 , 5,0"
       bottom_edge_variation="0;1"
       top_edge_variation="0;1"
       bottom_tgt_variation="0;1"
       top_tgt_variation="0;1"
       scale_bf="2"
       scale_bb="2"
       scale_tf="2"
       scale_tb="2"
       top_smth_variation="0;1"
       bottom_smth_variation="0;1"
       fat_output="false"
       stroke_width_top="1"
       stroke_width_bottom="1"
       front_thickness="1"
       back_thickness="0.25" />
    <inkscape:path-effect
       effect="rough_hatches"
       id="path-effect4196"
       is_visible="true"
       direction="340.02506,364.77812 , 3.8801809,2.8131868"
       dist_rdm="0;1"
       growth="0"
       do_bend="false"
       bender="340.02506,369.77812 , 5,0"
       bottom_edge_variation="0;1"
       top_edge_variation="0;1"
       bottom_tgt_variation="0;1"
       top_tgt_variation="0;1"
       scale_bf="2"
       scale_bb="2"
       scale_tf="2"
       scale_tb="2"
       top_smth_variation="0;1"
       bottom_smth_variation="0;1"
       fat_output="false"
       stroke_width_top="1"
       stroke_width_bottom="1"
       front_thickness="1"
       back_thickness="0.25" />
    <inkscape:path-effect
       back_thickness="0.25"
       front_thickness="1"
       stroke_width_bottom="1"
       stroke_width_top="1"
       fat_output="false"
       bottom_smth_variation="0;1"
       top_smth_variation="0;1"
       scale_tb="2"
       scale_tf="2"
       scale_bb="2"
       scale_bf="2"
       top_tgt_variation="0;1"
       bottom_tgt_variation="0;1"
       top_edge_variation="0;1"
       bottom_edge_variation="0;1"
       bender="1162.6319,547.0293 , 5,0"
       do_bend="false"
       growth="0"
       dist_rdm="0;1"
       direction="1162.6319,542.0293 , 11.390554,6.9901789"
       is_visible="true"
       id="path-effect4770-5"
       effect="rough_hatches" />
    <inkscape:path-effect
       back_thickness="0.25"
       front_thickness="1"
       stroke_width_bottom="1"
       stroke_width_top="1"
       fat_output="false"
       bottom_smth_variation="0;1"
       top_smth_variation="0;1"
       scale_tb="2"
       scale_tf="2"
       scale_bb="2"
       scale_bf="2"
       top_tgt_variation="0;1"
       bottom_tgt_variation="0;1"
       top_edge_variation="0;1"
       bottom_edge_variation="0;1"
       bender="1132.958,537.08105 , 5,0"
       do_bend="false"
       growth="0"
       dist_rdm="0;1"
       direction="1132.958,532.08105 , 9.6887557,6.2134923"
       is_visible="true"
       id="path-effect4768-7"
       effect="rough_hatches" />
  </defs>
  <metadata
     id="metadata2830">
    <rdf:RDF>
      <cc:Work
         rdf:about="">
        <dc:format>image/svg+xml</dc:format>
        <dc:type
           rdf:resource="http://purl.org/dc/dcmitype/StillImage" />
        <dc:title />
      </cc:Work>
    </rdf:RDF>
  </metadata>
  <g
     transform="translate(0,-252.36218)"
     id="layer1"
     inkscape:groupmode="layer"
     inkscape:label="2 - brown"
     style="display:inline">
    <path
       style="display:inline;fill:none;fill-rule:evenodd;stroke:#f31818;stroke-width:1.30823421px;stroke-linecap:butt;stroke-linejoin:miter;stroke-opacity:1"
       d="m 1421.7459,688.59756 c 0,0 -16.6721,51.616 -24.1918,61.90851 -7.5198,10.29251 25.9829,-72.1836 26.5534,-84.36669 0.5705,-12.18309 -33.7625,93.79625 -39.4624,99.03294 -5.6998,5.23669 40.1081,-111.42475 39.8793,-121.38722 -0.2289,-9.96247 -45.5275,126.48039 -50.5434,129.81706 -5.0159,3.33667 50.2035,-139.47114 47.2721,-141.92551 -2.9314,-2.45436 -52.2598,145.18387 -56.8957,147.46471 -4.6359,2.28085 53.9096,-149.76704 50.7719,-151.64835 -3.1377,-1.88131 -55.3961,153.89674 -59.8024,155.53985 -4.4063,1.64311 56.6833,-157.47274 53.3109,-158.702 -3.3724,-1.22926 -57.7113,160.32865 -61.9559,161.52251 -4.2446,1.19386 58.5819,-162.74741 54.8327,-162.9298 -3.7492,-0.18239 -59.071,164.10608 -63.1962,164.96819 -4.1252,0.86211 59.419,-165.07268 55.5406,-164.89618 -3.8784,0.17649 -59.6654,165.75726 -63.6984,166.36307 -4.0329,0.6058 59.8825,-166.36021 55.5506,-164.92382 -4.332,1.43639 -11.723,27.2687 -11.723,27.2687 m -15.3603,42.6727 c 0,0 -32.5,95.58779 -36.4428,95.94305 -3.9427,0.35526 32.2027,-89.46268 26.0164,-82.87457 -6.1863,6.58811 -29.9591,83.22985 -33.8123,83.33616 -3.8531,0.10631 27.6904,-76.92708 22.8192,-73.99235 -4.8713,2.93473 -26.6725,74.09907 -30.4354,73.95469 -3.7629,-0.14437 25.5822,-71.07012 21.1543,-69.36711 -4.4279,1.70301 -24.9174,69.22348 -28.5884,68.82379 -3.671,-0.39969 24.1618,-67.12438 20.1507,-66.57931 -4.011,0.54506 -23.8217,66.17941 -27.3985,65.51814 -3.5768,-0.66128 23.4091,-65.03309 19.7501,-65.4662 -3.659,-0.43312 -23.3265,64.80373 -26.8128,63.89074 -3.4862,-0.91299 23.1672,-64.3609 19.7139,-65.36544 -3.4533,-1.00454 -23.2,64.45231 -26.5976,63.29288 -3.3975,-1.15944 23.1553,-64.32792 19.8183,-65.65563 -3.3369,-1.32771 -23.2161,64.49706 -26.5239,63.08828 -3.3077,-1.40877 23.1788,-64.3934 19.9584,-66.04474 -3.2205,-1.65133 -23.2669,64.63794 -26.4808,62.96856 -3.214,-1.66937 23.2474,-64.58405 20.225,-66.78544 -3.0225,-2.20139 -23.4421,65.12459 -26.5487,63.15707 -3.1067,-1.96751 23.5051,-65.29977 20.8215,-68.44262 -2.6836,-3.14286 -23.9282,66.47523 -26.9206,64.19026 -2.9924,-2.28498 24.2345,-67.32607 21.9599,-71.6052 -2.2746,-4.27913 -24.9528,69.32182 -27.8285,66.71266 -2.8757,-2.60916 25.5695,-71.03497 23.6615,-76.33259 -1.908,-5.29762 -26.5385,73.72703 -29.2902,70.7733 -2.7516,-2.95373 27.2913,-75.81832 25.7978,-82.26726 -1.4935,-6.44895 -28.5553,79.32992 -31.1614,75.97175 -2.6061,-3.35817 29.7404,-82.62217 28.8741,-90.81368 -0.8663,-8.19151 -31.4795,87.45371 -33.9006,83.58143 -2.421,-3.87228 32.9842,-91.63372 32.1855,-100.01312 -0.7986,-8.3794 -34.6032,96.13186 -36.8545,91.7879 -2.2512,-4.34396 35.9809,-99.95889 35.7218,-109.83737 -0.259,-9.87848 -37.9665,105.47526 -40.0867,100.76733 -2.1202,-4.70792 39.9393,-110.9559 39.9915,-121.69905 0.052,-10.74315 -42.1071,116.97835 -44.1517,112.06027 -2.0446,-4.91808 44.223,-122.85667 44.2484,-133.52516 0.025,-10.66849 -46.3042,128.6383 -48.1975,123.30003 -1.8934,-5.33827 48.2319,-133.99382 48.1134,-144.26291 -0.1184,-10.26909 -50.0277,138.98271 -51.6491,132.8891 -1.6214,-6.0936 51.6834,-143.58245 51.0831,-152.51283 -0.6003,-8.93037 -52.739,146.51491 -53.8413,138.97914 -1.1023,-7.53578 52.7522,-146.55178 49.6612,-148.56261 -3.0911,-2.01082 -50.7762,141.06208 -51.2562,131.79739 -0.48,-9.2647 48.1399,-133.73819 43.9639,-132.73503 -4.1759,1.00316 -44.4096,123.37505 -44.3232,112.53697 0.086,-10.83809 40.1622,-111.57514 35.3284,-108.74468 -4.8337,2.83047 -35.1435,97.63264 -35.0469,86.76619 0.097,-10.86645 30.254,-84.04906 24.5083,-78.68489 -5.7458,5.36417 -24.6195,68.39586 -24.5353,57.56354 0.084,-10.83231 19.6423,-54.5684 10.0568,-38.53699 -9.5855,16.0314 -8.5107,18.34479 -8.5107,18.34479"
       id="path4945-9"
       inkscape:connector-curvature="0"
       sodipodi:nodetypes="sssssssssssssssssssssssssssssssssssssssss"
       inkscape:path-effect="#path-effect5037"
       inkscape:original-d="m 1205.5421,624.81906 c -0.1535,21.34803 -1.4769,42.95531 2.0322,64.01353 1.8931,11.36027 5.6929,22.40795 10.1609,33.02285 5.0861,12.08321 10.5601,24.34826 18.7977,34.547 7.0172,8.68798 15.6883,16.33545 25.4021,21.84589 10.7134,6.07743 22.8449,10.06584 35.055,11.685 14.4619,1.91776 29.4612,0.6716 43.6918,-2.5402 11.4115,-2.57556 22.6976,-6.84707 32.5149,-13.20916 9.4485,-6.12295 17.7064,-14.30696 24.3862,-23.37001 7.8634,-10.66883 13.376,-23.06316 17.7815,-35.56308 3.975,-11.27797 5.9945,-23.20818 7.6206,-35.05503 1.1765,-8.57131 1.3757,-17.25985 1.5243,-25.91024 0.089,-5.20824 0.3377,-8.98882 -0.022,-14.18539 -0.1031,-1.48789 -0.1726,-4.56251 -0.8672,-5.88235 -1.2018,-2.28391 -3.6912,-3.6548 -5.8425,-5.08044 -3.5355,-2.34285 -7.3288,-4.51151 -11.431,-5.58849 -3.4867,-0.91536 -7.1923,-0.72859 -10.7959,-0.63506 -2.6828,0.0696 -5.413,0.18167 -8.0017,0.88908 -2.687,0.73429 -5.4266,1.713 -7.6207,3.42931 -1.1874,0.92888 -2.2737,3.1351 -2.435,4.63402 -0.7038,6.53812 -1.6193,10.73875 -2.8016,16.5527 -1.557,7.65719 -3.6833,15.20366 -6.1071,22.6322 -2.0691,6.3425 -3.9738,12.83252 -7.1847,18.68054 -3.5848,6.52902 -8.1877,12.5375 -13.2919,17.96206 -3.3203,3.52851 -6.9344,6.92846 -11.1365,9.34028 -5.8474,3.35623 -12.321,6.26621 -19.0398,6.82559 -6.0626,0.50473 -12.267,-1.09432 -17.962,-3.23317 -7.1904,-2.70035 -14.5561,-6.20437 -19.7584,-11.85498 -6.2388,-6.77662 -9.4286,-16.00773 -12.2142,-24.78764 -2.7863,-8.78214 -3.2744,-18.14728 -4.3108,-27.30234 -1.1747,-10.37645 -2.1274,-20.81128 -2.1554,-31.25399 -0.068,-25.60841 0.5501,-48.93734 -0.3593,-79.0331 -0.069,-2.29018 -0.3477,-4.78748 -1.6498,-6.67275 -1.228,-1.77799 -3.2144,-3.26491 -5.3345,-3.68331 -3.3159,-0.65443 -6.7956,0.83898 -9.9068,2.15918 -4.6372,1.96768 -8.7048,5.15725 -12.5741,8.38273 -2.8058,2.33889 -5.2745,5.07494 -7.6206,7.87469 -2.785,3.32341 -5.2896,6.88586 -7.6207,10.5419 -2.0075,3.14831 -3.8462,6.41351 -5.4615,9.77985 -1.3639,2.84232 -2.8813,5.68427 -3.5564,8.76376 -2.9494,13.45466 -1.8061,27.50476 -1.9051,41.27857 z" />
    <path
       style="display:inline;fill:none;fill-rule:evenodd;stroke:#ed1818;stroke-width:1.30823421px;stroke-linecap:butt;stroke-linejoin:miter;stroke-opacity:1"
       d="m 2144.5713,611.51042 c 0,0 -5.3347,-38.48745 -10.2713,-46.71353 -4.9366,-8.22608 9.9727,54.4461 9.5568,70.90071 -0.416,16.45461 -14.4196,-78.72403 -18.6762,-83.238 -4.2567,-4.51397 18.67,101.92992 17.9768,116.87088 -0.6931,14.94095 -22.1917,-121.1565 -26.18,-124.20582 -3.9884,-3.04932 25.3382,138.33514 23.6867,148.0441 -1.6515,9.70896 -27.677,-151.10352 -31.4746,-153.11131 -3.7976,-2.0078 29.8046,162.71912 27.721,170.06899 -2.0836,7.34987 -31.5177,-172.072 -35.1222,-173.02574 -3.6046,-0.95374 33.0152,180.24802 30.6825,186.2378 -2.3327,5.98978 -34.296,-187.2402 -37.6839,-187.01116 -3.3879,0.22904 35.348,192.98392 32.818,197.89657 -2.53,4.91264 -36.2627,-197.97804 -39.2387,-195.50028 -2.9761,2.47775 36.6991,200.36027 34.0173,204.44452 -2.6817,4.08425 -37.5945,-205.24852 -38.1635,-189.62972 -0.569,15.61879 35.4803,193.70595 32.7093,197.30276 -2.7711,3.5968 -33.1593,-181.03445 -32.4226,-158.28695 0.7367,22.74749 29.6506,161.87883 26.7994,165.03802 -2.8512,3.15918 -26.2115,-143.10287 -25.8795,-122.56508 0.3319,20.53779 23.0277,125.72083 20.1024,128.47546 -2.9253,2.75463 -19.9043,-108.66819 -21.2934,-97.52707 -1.3892,11.14112 18.3655,100.26718 15.3749,102.66554 -2.9905,2.39836 -16.7044,-91.19855 -18.7669,-83.73328 -2.0625,7.46527 15.7763,86.13146 12.732,88.23598 -3.0444,2.10452 -14.8434,-81.03807 -17.4332,-76.45145 -2.5897,4.58661 14.3889,78.55661 11.2904,80.36538 -3.0986,1.80876 -13.8994,-75.88423 -16.7068,-72.48611 -2.8075,3.39813 13.6085,74.29621 10.4543,75.80126 -3.1542,1.50506 -13.268,-72.43739 -16.201,-69.72437 -2.9329,2.71301 13.0471,71.2307 9.8351,72.42012 -3.212,1.18941 -12.7707,-69.72203 -15.7948,-67.50665 -3.024,2.21538 12.5813,68.68766 9.3237,69.62819 -3.2576,0.94053 -12.3476,-67.41208 -15.4508,-65.6287 -3.1032,1.78339 12.1926,66.56611 8.8962,67.29448 -3.2964,0.72837 -11.9985,-65.50658 -15.1847,-64.17598 -3.1861,1.33059 11.8878,64.90172 8.5567,65.44083 -3.3311,0.53912 -11.7409,-64.10006 -15.0207,-63.2805 -3.2797,0.81957 11.6892,63.81736 8.327,64.18671 -3.3622,0.36935 -11.6039,-63.35213 -14.9965,-63.14877 -3.3926,0.20335 11.6339,63.51615 8.2437,63.73261 -3.3902,0.21645 -11.638,-63.53823 -15.1275,-63.8639 -3.4895,-0.32566 11.737,64.0786 8.3215,64.15705 -3.4154,0.0784 -11.8088,-64.47104 -15.4005,-65.35464 -3.5917,-0.8836 11.9862,65.43939 8.5446,65.37539 -3.4415,-0.064 -12.1303,-66.22587 -15.8551,-67.83646 -3.7249,-1.6106 12.4141,67.7751 8.9401,67.53417 -3.474,-0.24093 -12.6402,-69.00954 -16.6022,-71.91473 -3.9619,-2.90519 13.1289,71.67733 9.618,71.2349 -3.5109,-0.44244 -13.5456,-73.95258 -18.0125,-79.6144 -4.4669,-5.66182 14.5025,79.17678 10.9486,78.49967 -3.5539,-0.67711 -15.489,-84.56299 -20.4318,-92.82272 -4.9427,-8.25972 16.8792,92.15239 13.2739,91.19466 -3.6053,-0.95774 -14.9302,-81.51211 -27.4942,-131.38039 -12.564,-49.86828 23.8885,130.42049 20.2242,129.14023 -3.6644,-1.28026 -28.9045,-157.80551 -32.7667,-160.16597 -3.8623,-2.36046 29.1034,158.89119 25.3904,157.34565 -3.7129,-1.54553 -29.2383,-159.62795 -32.8393,-160.56212 -3.6009,-0.93417 29.1281,159.02605 25.3556,157.15525 -3.7725,-1.87079 -28.9511,-158.05998 -32.3503,-157.89261 -3.3992,0.16738 28.5807,156.03759 24.7305,153.74278 -3.8502,-2.29481 -28.1259,-153.55452 -31.4149,-152.78564 -3.289,0.76887 27.5701,150.52034 23.6102,147.62629 -3.9599,-2.89406 -26.8981,-146.85149 -30.094,-145.57389 -3.1958,1.27761 26.1463,142.74659 22.0097,138.88799 -4.1366,-3.85861 -25.2058,-137.61179 -28.3118,-135.84394 -3.106,1.76785 24.1914,132.07408 19.7683,126.65125 -4.4231,-5.42282 -22.8831,-124.93125 -25.8792,-122.56343 -2.9962,2.36781 21.5012,117.38668 16.5667,109.17214 -4.9345,-8.21454 -20.2473,-110.54115 -21.5102,-98.71039 -1.2629,11.83076 13.5045,83.09124 13.5045,83.09124"
       id="path4943-4"
       inkscape:connector-curvature="0"
       sodipodi:nodetypes="ssssssssssssssssszssssssssssssss"
       inkscape:path-effect="#path-effect5039"
       inkscape:original-d="m 1966.3784,630.43406 c 1.9692,5.3893 3.8102,24.72148 7.6206,36.57916 2.946,9.16736 6.6884,18.18717 11.685,26.41828 5.627,9.26933 11.2348,19.48551 20.3218,25.40221 7.7797,5.06534 17.6512,7.49943 26.9264,7.11261 8.081,-0.33703 16.0764,-3.72738 22.862,-8.1287 8.4413,-5.47532 16.0235,-13.00638 20.8298,-21.84589 5.5722,-10.24846 6.6852,-22.46324 8.1287,-34.03894 1.5298,-12.26855 0.5052,-24.72366 0.5079,-37.08721 0,-25.57379 -2.1402,-47.66226 -1.016,-76.71464 0.135,-3.4886 1.3502,-7.45693 4.0644,-9.65284 2.8144,-2.27708 7.0924,-2.59308 10.6689,-2.03217 8.3853,1.31505 15.9459,6.62718 22.3539,12.19305 6.853,5.9524 12.1293,13.76183 16.2575,21.8459 2.8257,5.53328 4.616,11.64508 5.5884,17.78152 2.7036,17.06144 0.7282,34.54757 0.5081,51.82049 -0.1834,14.40238 0.2142,28.88548 -1.5241,43.18374 -1.2948,10.64949 -3.4073,21.71773 -6.6046,31.49873 -3.1973,9.781 -6.895,18.61924 -12.193,26.92632 -6.0054,9.41594 -13.2881,18.2269 -21.846,25.4022 -8.1456,6.82956 -17.4249,12.67883 -27.4343,16.2574 -13.712,4.90233 -28.6218,6.58851 -43.1837,6.60457 -12.5021,0.0137 -25.2508,-1.56386 -37.0874,-5.58848 -13.5639,-4.61202 -26.8154,-11.39318 -37.5952,-20.8298 -10.4742,-9.16913 -18.6666,-21.08094 -24.8941,-33.5309 -5.8486,-11.69267 -8.6432,-24.76929 -11.1769,-37.59525 -2.2762,-11.52231 -3.4571,-23.18955 -4.6342,-34.87541 -0.6822,-6.77344 -2.1556,-15.10319 -0.9544,-20.50138 0.886,-3.98107 4.7386,-6.87759 8.1288,-9.14479 6.8559,-4.58495 15.1275,-7.83291 23.37,-8.1287 4.5568,-0.16353 9.2615,1.27402 13.2092,3.5563 2.9026,1.67819 5.9618,3.96332 7.1125,7.11262 z" />
  </g>
  <g
     inkscape:label="1 - black"
     id="layer6"
     inkscape:groupmode="layer"
     style="display:inline">
    <path
       style="display:inline;fill:none;fill-rule:evenodd;stroke:#ff0000;stroke-width:1.30823421px;stroke-linecap:butt;stroke-linejoin:miter;stroke-opacity:1"
       d="m 1407.113,57.294305 c 0,0 24.2331,22.870474 34.4873,35.924132 11.5738,14.733483 30.1763,47.419853 30.1763,47.419853"
       id="path4914"
       inkscape:connector-curvature="0"
       sodipodi:nodetypes="csc" />
    <path
       style="display:inline;fill:none;fill-rule:evenodd;stroke:#ff0000;stroke-width:1.30823421px;stroke-linecap:butt;stroke-linejoin:miter;stroke-opacity:1"
       d="m 1944.5381,60.16824 c 0,0 -22.9243,22.443203 -32.034,35.082367 -10.6463,14.770983 -25.4445,46.824643 -25.4445,46.824643"
       id="path4916"
       inkscape:connector-curvature="0"
       sodipodi:nodetypes="csc" />
    <path
       style="display:inline;fill:none;fill-rule:evenodd;stroke:#ff0000;stroke-width:1.30823421px;stroke-linecap:butt;stroke-linejoin:miter;stroke-opacity:1"
       d="m 1440.8561,659.35498 c 0,0 16.7088,19.05503 27.4343,25.40218 11.061,6.54564 24.44,10.92019 37.0871,13.20916 18.3426,3.31977 36.7822,2.32321 55.3769,1.01608 19.2196,-1.35107 37.8434,-7.32741 56.9009,-10.16089 14.1699,-2.10679 28.3571,-4.62932 42.6757,-5.08044 12.2059,-0.38455 24.4617,0.51748 36.5792,2.03219 15.7529,1.9691 31.0159,6.95814 46.7399,9.14477 16.1583,2.24702 32.4589,5.19557 48.7723,5.08046 13.9522,-0.0984 28.0744,-1.90097 41.6597,-5.08046 10.2287,-2.39387 20.7273,-5.34761 29.4666,-11.17696 6.976,-4.65331 17.2733,-18.28958 17.2733,-18.28958"
       id="path4918"
       inkscape:connector-curvature="0"
       sodipodi:nodetypes="cssssssssssc" />
    <path
       style="display:inline;fill:none;fill-rule:evenodd;stroke:#f51010;stroke-width:1.30823421px;stroke-linecap:butt;stroke-linejoin:miter;stroke-opacity:1"
       d="m 1669.4757,583.65642 c 2.5402,-0.50805 31.1154,-10.80238 45.7239,-18.28958 3.93,-2.01421 8.4125,-3.6689 11.1771,-7.11263 1.2409,-1.54572 1.7698,-3.62375 2.0322,-5.58847 0.27,-2.02126 0.7113,-4.46202 -0.508,-6.09653 -4.4567,-5.97402 -13.605,-6.29766 -20.8299,-8.1287 -9.2644,-2.34794 -18.902,-3.14589 -28.4504,-3.55631 -8.8045,-0.37845 -17.6592,0.0461 -26.4183,1.01609 -6.5037,0.72032 -12.9772,1.89235 -19.3057,3.5563 -5.0242,1.32101 -10.6212,1.90598 -14.7332,5.08045 -1.9333,1.49248 -3.576,3.70349 -4.0644,6.09654 -0.5513,2.70109 0.082,5.77879 1.524,8.12869 1.4524,2.36759 4.2031,3.68497 6.6047,5.08044 14.7663,8.58025 47.248,19.81371 47.248,19.81371 z"
       id="path4920"
       inkscape:connector-curvature="0"
       sodipodi:nodetypes="cssssssssssssc" />
    <path
       style="display:inline;fill:none;fill-rule:evenodd;stroke:#000000;stroke-width:1.30823421px;stroke-linecap:butt;stroke-linejoin:miter;stroke-opacity:1"
       d="m 1427.6468,229.5498 c 6.2387,35.42848 13.028,70.86087 16.2575,106.68922 2.129,23.62262 1.4063,45.4996 -0.508,72.14224 -1.9959,27.77778 -6.0812,54.55262 -16.7655,80.27095 -6.4187,15.45011 -14.952,31.0279 -27.4344,42.16764 -14.8083,13.2154 -33.3768,22.00599 -52.8366,25.91023 -22.2715,4.46837 -46.5591,4.22702 -68.0778,-3.04826 -23.0524,-7.79381 -45.3659,-22.17931 -59.9493,-41.65959 -14.7632,-19.72034 -19.4241,-45.794 -23.37,-70.11007 -5.805,-35.77251 -2.454,-72.56411 0,-108.7214 2.037,-30.01204 5.5693,-60.07299 12.1932,-89.41574 7.123,-31.55458 14.8222,-63.62001 29.4665,-92.464 9.8751,-19.45046 22.1158,-38.56302 38.6114,-52.836577 9.8532,-8.525957 21.7189,-16.004425 34.5468,-18.289573 12.4498,-2.217758 26.2326,-0.469635 37.5954,5.080441 19.5838,9.565779 34.3462,27.795519 46.74,45.723959 11.9876,17.34079 19.0644,37.81134 25.4021,57.91701 4.1536,13.17699 5.7327,27.03672 8.1287,40.64352 z"
       id="path4922"
       inkscape:connector-curvature="0"
       sodipodi:nodetypes="ssssssssssssssssss" />
    <path
       style="display:inline;fill:none;fill-rule:evenodd;stroke:#000000;stroke-width:1.30823421px;stroke-linecap:butt;stroke-linejoin:miter;stroke-opacity:1"
       d="m 1958.0447,119.8123 c -15.402,20.63559 -25.7716,44.88557 -34.5469,69.09398 -8.5389,23.55675 -13.3601,48.40918 -17.2735,73.15833 -6.4753,40.9507 -10.1337,82.50325 -10.1609,123.96272 -0.014,21.06732 0.164,42.51181 5.0805,62.99744 5.8126,24.21967 14.6925,45.95159 29.1689,66.22005 8.6481,12.10825 21.3475,23.07735 34.6087,29.82579 17.9421,9.13055 38.3567,13.90719 57.1368,15.00535 17.0273,0.99566 37.7023,-1.55994 53.6783,-7.53349 21.4698,-8.02773 39.4609,-18.75778 54.0269,-36.45589 12.633,-15.34934 18.8072,-35.52003 23.3701,-54.86874 7.7104,-32.69558 6.5101,-67.00283 6.0965,-100.59272 -0.3433,-27.87196 -2.0927,-55.90086 -7.1127,-83.31919 -6.4682,-35.3289 -15.1242,-70.71266 -29.4665,-103.64096 -11.2264,-25.77503 -22.8652,-53.25732 -43.6917,-72.14226 -13.3546,-12.10957 -30.7991,-21.970823 -48.7722,-23.370021 -14.1017,-1.097814 -28.3812,5.143324 -40.6435,12.193052 -12.4646,7.165997 -22.8988,17.944479 -31.4988,29.466559 z"
       id="path4924"
       inkscape:connector-curvature="0"
       sodipodi:nodetypes="ssssssssssssssssss" />
    <ellipse
       style="display:inline;fill:none;fill-opacity:1;fill-rule:evenodd;stroke:#f51010;stroke-width:2.61646843;stroke-miterlimit:4;stroke-dasharray:none;stroke-opacity:1"
       id="path4926"
       cx="2009.3572"
       cy="201.60735"
       rx="41.232754"
       ry="57.998196" />
    <ellipse
       style="display:inline;fill:none;fill-opacity:1;fill-rule:evenodd;stroke:#f51010;stroke-width:2.61646843;stroke-miterlimit:4;stroke-dasharray:none;stroke-opacity:1"
       id="path4926-5"
       cx="1336.1989"
       cy="200.08324"
       rx="41.232754"
       ry="57.998196" />
    <path
       style="display:inline;fill:none;fill-rule:evenodd;stroke:#ed1818;stroke-width:1.30823421px;stroke-linecap:butt;stroke-linejoin:miter;stroke-opacity:1"
       d="m 1967.1896,378.40667 c 1.9691,5.3893 3.8101,24.72148 7.6206,36.57915 2.9458,9.16737 6.6883,18.18718 11.6849,26.41829 5.627,9.26933 11.2348,19.48551 20.3219,25.40221 7.7795,5.06534 17.651,7.49943 26.9264,7.11261 8.0809,-0.33703 16.0763,-3.72738 22.8619,-8.1287 8.4413,-5.47532 16.0236,-13.00638 20.8298,-21.84589 5.5723,-10.24846 6.6852,-22.46324 8.1287,-34.03895 1.5299,-12.26854 0.5053,-24.72365 0.508,-37.0872 0,-25.57378 -2.1403,-47.66226 -1.0161,-76.71464 0.135,-3.4886 1.3502,-7.45693 4.0644,-9.65284 2.8144,-2.27708 7.0924,-2.59308 10.6689,-2.03217 8.3853,1.31505 15.9459,6.62718 22.3539,12.19305 6.853,5.95241 12.1293,13.76183 16.2575,21.8459 2.8256,5.53328 4.6159,11.64508 5.5884,17.78153 2.7036,17.06143 0.7281,34.54756 0.508,51.82048 -0.1833,14.40238 0.2143,28.88548 -1.524,43.18374 -1.2948,10.64949 -3.4073,21.71773 -6.6046,31.49873 -3.1974,9.78099 -6.895,18.61924 -12.1931,26.92632 -6.0053,9.41594 -13.288,18.2269 -21.8459,25.40221 -8.1456,6.82955 -17.4249,12.67883 -27.4343,16.25739 -13.712,4.90233 -28.6218,6.5885 -43.1837,6.60457 -12.5021,0.0137 -25.2508,-1.56386 -37.0873,-5.58848 -13.5641,-4.61201 -26.8155,-11.39318 -37.5953,-20.8298 -10.4742,-9.16913 -18.6666,-21.08094 -24.8941,-33.5309 -5.8487,-11.69267 -8.6432,-24.76929 -11.1769,-37.59525 -2.2762,-11.52231 -3.4571,-23.18955 -4.6342,-34.87541 -0.6822,-6.77344 -2.1556,-15.10318 -0.9543,-20.50138 0.8859,-3.98107 4.7385,-6.87759 8.1287,-9.14479 6.8559,-4.58494 15.1275,-7.83291 23.37,-8.1287 4.5568,-0.16353 9.2615,1.27402 13.2092,3.55631 2.9026,1.67819 5.9619,3.96331 7.1126,7.11261 z"
       id="path4943"
       inkscape:connector-curvature="0"
       sodipodi:nodetypes="ssssssssssssssssszssssssssssssss" />
    <path
       style="display:inline;fill:none;fill-rule:evenodd;stroke:#f31818;stroke-width:1.30823421px;stroke-linecap:butt;stroke-linejoin:miter;stroke-opacity:1"
       d="m 1205.6316,372.81819 c -0.1535,21.34803 -1.4769,42.9553 2.0322,64.01353 1.8931,11.36027 5.6929,22.40795 10.1609,33.02285 5.0861,12.08321 10.5601,24.34826 18.7977,34.54699 7.0172,8.68798 15.6883,16.33546 25.4021,21.8459 10.7134,6.07743 22.8449,10.06583 35.055,11.685 14.4619,1.91776 29.4612,0.6716 43.6918,-2.54021 11.4114,-2.57554 22.6976,-6.84706 32.5148,-13.20915 9.4483,-6.12295 17.7063,-14.30695 24.3862,-23.37002 7.8634,-10.66882 13.3759,-23.06315 17.7815,-35.56307 3.975,-11.27797 5.9945,-23.20818 7.6206,-35.05503 1.1765,-8.57132 1.3756,-17.25985 1.5242,-25.91025 0.089,-5.20823 0.3378,-8.98881 -0.022,-14.18539 -0.1031,-1.48788 -0.1727,-4.56251 -0.8672,-5.88234 -1.2019,-2.28391 -3.6912,-3.6548 -5.8426,-5.08044 -3.5354,-2.34285 -7.3287,-4.51151 -11.431,-5.58848 -3.4867,-0.91538 -7.1922,-0.7286 -10.7958,-0.63507 -2.6829,0.0696 -5.413,0.18166 -8.0017,0.88909 -2.6871,0.73428 -5.4266,1.71298 -7.6206,3.42929 -1.1874,0.92889 -2.2737,3.13511 -2.435,4.63403 -0.7038,6.53812 -1.6193,10.73874 -2.8016,16.5527 -1.557,7.65719 -3.6833,15.20366 -6.1071,22.6322 -2.0692,6.3425 -3.9738,12.83251 -7.1848,18.68053 -3.5847,6.52902 -8.1876,12.5375 -13.2918,17.96207 -3.3203,3.52851 -6.9344,6.92847 -11.1365,9.34028 -5.8474,3.35623 -12.321,6.26621 -19.0398,6.82558 -6.0626,0.50475 -12.267,-1.0943 -17.962,-3.23317 -7.1904,-2.70033 -14.5562,-6.20436 -19.7584,-11.85497 -6.2388,-6.77663 -9.4287,-16.00773 -12.2142,-24.78765 -2.7863,-8.78213 -3.2745,-18.14728 -4.3108,-27.30234 -1.1747,-10.37645 -2.1275,-20.81128 -2.1554,-31.25398 -0.068,-25.60841 0.5501,-48.93733 -0.3593,-79.0331 -0.069,-2.29018 -0.3477,-4.78748 -1.6498,-6.67275 -1.2281,-1.778 -3.2145,-3.26492 -5.3345,-3.68332 -3.3159,-0.65442 -6.7956,0.83898 -9.9068,2.15919 -4.6372,1.96767 -8.7048,5.15725 -12.5741,8.38273 -2.8058,2.33888 -5.2746,5.07495 -7.6206,7.87468 -2.785,3.32342 -5.2897,6.88587 -7.6207,10.54191 -2.0075,3.14831 -3.8462,6.41351 -5.4615,9.77985 -1.3639,2.84233 -2.8813,5.68428 -3.5564,8.76375 -2.9494,13.45467 -1.8061,27.50476 -1.9051,41.27858 z"
       id="path4945"
       inkscape:connector-curvature="0"
       sodipodi:nodetypes="sssssssssssssssssssssssssssssssssssssssss" />
    <g
       transform="matrix(1.3082342,0,0,1.3082342,-472.43749,-457.26271)"
       style="display:inline"
       id="g5153">
      <path
         inkscape:original-d="m 1401.1722,420.46447 c -3.0336,-2.25546 -6.2097,-4.2895 -9.5996,-5.94531 -6.5142,-3.18181 -14.0701,-4.72838 -21.4551,-4.58789 -2.4617,0.0468 -4.9041,0.28127 -7.2832,0.70508 -9.8055,1.74674 -18.8746,7.46332 -26.4063,13.98047 -12.609,10.91055 -21.9652,25.519 -29.5136,40.38672 -11.1939,22.04803 -17.0806,46.5597 -22.5254,70.67968 -5.0632,22.42928 -7.7633,45.40678 -9.3203,68.34766 -1.8758,27.63824 -4.4373,55.76135 0,83.10547 3.0162,18.58694 6.5804,38.51779 17.8652,53.5918 11.1474,14.89052 28.2032,25.88625 45.8242,31.84375 2.2183,0.74996 4.4794,1.3846 6.7656,1.94336 l 2.3477,-14.93555 c -7.527,-1.55208 -14.8945,-4.20813 -21.541,-7.97852 -7.4251,-4.21212 -14.0521,-10.05823 -19.416,-16.69922 -6.2967,-7.79581 -10.4815,-17.16998 -14.3692,-26.40625 -3.4153,-8.11392 -6.3205,-16.55851 -7.7675,-25.24218 -2.6823,-16.09668 -1.6702,-32.61343 -1.5528,-48.93164 0.076,-10.52855 -0.7995,-21.26814 1.4551,-31.55274 0.516,-2.35392 1.6762,-4.52658 2.7187,-6.69922 1.2347,-2.57319 2.6395,-5.07003 4.1739,-7.47656 1.7819,-2.79464 3.6973,-5.51626 5.8261,-8.05664 1.7933,-2.14009 3.6796,-4.23171 5.8243,-6.01953 2.9577,-2.46552 6.0686,-4.90413 9.6132,-6.40821 2.081,-0.883 4.3776,-1.86649 6.6172,-1.76367 0.32,0.0147 0.6383,0.0508 0.9551,0.11328 1.6205,0.31982 3.1375,1.45733 4.0762,2.81641 0.9953,1.44108 1.2087,3.34902 1.2617,5.09961 0.6951,23.00487 0.2234,40.83732 0.2754,60.41211 0.021,7.98229 0.7486,15.95897 1.6465,23.89062 0.7922,6.99802 1.1651,14.15618 3.2949,20.86914 2.1292,6.71128 4.569,13.76729 9.3379,18.94727 3.9765,4.31926 9.6054,6.99839 15.1016,9.0625 0.1987,0.0746 0.4169,0.10885 0.6171,0.18164 l 25.3418,-161.23633 a 31.517868,44.333191 0 0 1 -29.8515,-44.21679 31.517868,44.333191 0 0 1 31.5195,-44.33203 31.517868,44.333191 0 0 1 11.7441,3.22851 l 6.3985,-40.7168 z"
         inkscape:path-effect="#path-effect5033"
         id="path4973"
         d="m 1345.8343,759.1317 c 0,0 -1.3302,15.18603 -4.6757,14.18313 -3.3454,-1.0029 2.9735,-14.54008 -0.3682,-15.5616 -3.3416,-1.02152 -2.9738,14.54205 -6.2643,13.2706 -3.2906,-1.27146 2.9219,-14.28815 -0.353,-15.63638 -3.2748,-1.34823 -2.9378,14.36609 -6.1799,12.85762 -3.242,-1.50848 2.9037,-14.19878 -0.2955,-15.91714 -3.1991,-1.71835 -2.947,14.41107 -6.1377,12.65139 -3.1907,-1.75969 2.9371,-14.36231 -0.1698,-16.53182 -3.1069,-2.16951 -3.0217,14.77618 -6.1558,12.73969 -3.1341,-2.03649 3.0477,-14.90336 0.042,-17.56512 -3.0062,-2.66176 -3.1769,15.53513 -6.2459,13.1802 -3.069,-2.35492 3.237,-15.82901 0.3463,-19.05578 -2.8906,-3.22676 -3.4174,16.71147 -6.4075,13.97085 -2.9901,-2.74061 3.5061,-17.14475 0.7816,-21.18423 -2.7245,-4.03948 -3.7755,18.46214 -6.6635,15.22214 -2.8879,-3.23999 3.9412,-19.2725 1.4063,-24.23908 -2.5348,-4.96659 -4.3068,21.06042 -7.039,17.05898 -2.7323,-4.00144 4.5169,-22.08805 2.1139,-27.69945 -2.403,-5.6114 -4.8557,23.74437 -7.3369,18.51534 -2.4812,-5.22903 4.9063,-23.99164 2.6796,-30.46553 -2.2266,-6.4739 -5.1718,25.29008 -7.318,18.42315 -2.1463,-6.86694 4.9932,-24.41669 3.36,-33.79255 -1.6332,-9.37586 -5.5044,26.91651 -7.2654,18.16558 -1.761,-8.75093 5.5124,-26.95566 5.3736,-43.63933 -0.1387,-16.68366 -7.164,35.03228 -8.5765,24.57714 -1.4125,-10.45514 8.702,-42.55314 8.7766,-60.27986 0.075,-17.72673 -10.3199,50.46448 -10.5126,34.04469 -0.1928,-16.41978 42.1983,-206.35035 36.4539,-195.62231 -5.7444,10.72804 -36.5325,178.64443 -34.7641,152.63459 1.7684,-26.00984 30.5217,-149.25115 19.9578,-114.95578 -10.5639,34.29537 -15.2592,65.93637 -15.2592,65.93637 m 87.5965,75.15587 c 0,0 -12.0844,67.77382 -15.3384,66.32374 -3.254,-1.45008 27.0235,-132.14505 27.2359,-150.54568 0.2123,-18.40063 -30.5025,149.15722 -33.6227,147.05303 -3.1203,-2.10418 31.9958,-156.45972 28.7348,-157.87599 -3.2609,-1.41626 -31.8846,155.91621 -34.7026,152.33399 -2.818,-3.58223 31.4395,-153.73921 28.3896,-156.1875 -3.0499,-2.44828 -31.2162,152.64715 -33.5838,146.86261 -2.3676,-5.78454 30.5258,-149.27134 27.7262,-152.94352 -2.7995,-3.67218 -30.2326,147.83769 -31.9417,138.83333 -1.7092,-9.00437 29.1165,-142.38027 26.6903,-147.8782 -2.4262,-5.49792 -28.2212,138.0019 -29.3301,126.0623 -1.1089,-11.93961 26.7236,-130.67856 25.3044,-141.1008 -1.4192,-10.42224 -26.3169,128.68966 -26.2371,110.93739 0.08,-17.75227 43.2723,-211.60201 39.6376,-211.19045 -3.6347,0.41156 -39.4651,192.98485 -39.7046,176.79355 -0.2394,-16.19131 36.0773,-176.4181 32.2908,-175.26421 -3.7865,1.15389 -32.4073,158.47183 -35.4739,156.1054 -3.0666,-2.36642 31.6892,-154.9604 27.7252,-152.93851 -3.964,2.02189 -30.8611,150.91087 -34.6519,152.08565 -3.7908,1.17478 30.6906,-150.07717 26.5311,-147.09955 -4.1594,2.97763 -30.2997,148.16598 -34.4275,150.98881 -4.1278,2.82283 30.2772,-148.056 25.8843,-143.93682 -4.3929,4.11918 -29.9465,146.43849 -34.5214,151.4478 -4.5749,5.00931 30.1474,-147.42111 25.4038,-141.58698 -4.7436,5.83413 -29.8118,145.77973 -35.4536,156.00603 -5.6418,10.2263 28.0908,-146.0451 28.0908,-146.0451 m 83.5375,-26.53095 c 0,0 -6.5055,40.49309 -9.8016,39.24864 -3.296,-1.24444 8.2715,-40.44734 5.1189,-42.39354 -3.1525,-1.9462 -8.4126,41.13757 -11.9198,40.92579 -3.5072,-0.21179 8.771,-42.89005 5.5095,-44.30384 -3.2614,-1.4138 -9.0095,44.05655 -12.7688,45.0774 -3.7593,1.02084 9.5051,-46.47993 6.1324,-47.34968 -3.3727,-0.86975 -9.866,48.24502 -13.999,51.0933 -4.133,2.84829 10.6259,-51.96088 7.1526,-52.33865 -3.4733,-0.37778 -11.1044,54.30068 -16.2474,62.08785 -5.143,7.78717 10.9869,-62.40719 10.9869,-62.40719"
         style="display:inline;fill:none;fill-rule:evenodd;stroke:#000000;stroke-width:1px;stroke-linecap:butt;stroke-linejoin:miter;stroke-opacity:1"
         inkscape:connector-curvature="0" />
      <path
         inkscape:original-d="m 1401.1722,420.46447 -6.3985,40.7168 a 31.517868,44.333191 0 0 1 19.7735,41.10352 31.517868,44.333191 0 0 1 -31.5176,44.33398 31.517868,44.333191 0 0 1 -1.668,-0.11719 l -25.3418,161.23633 c 4.1876,1.52191 8.6907,2.65727 13.1133,2.28906 5.1358,-0.42758 10.085,-2.65133 14.5547,-5.21679 3.212,-1.84357 5.9738,-4.44348 8.5117,-7.14063 3.9016,-4.14648 7.42,-8.7378 10.1602,-13.72851 2.4544,-4.47016 3.9105,-9.43116 5.4922,-14.2793 1.8526,-5.67829 3.4777,-11.4477 4.6679,-17.30078 0.9037,-4.44412 1.6047,-7.65468 2.1426,-12.65235 0.1233,-1.14576 0.9537,-2.83293 1.8613,-3.54296 1.6771,-1.31193 3.7704,-2.05982 5.8243,-2.6211 1.9788,-0.54074 4.0664,-0.62649 6.1171,-0.67969 2.7548,-0.0715 5.5868,-0.21337 8.252,0.48633 3.1357,0.82323 6.0358,2.48064 8.7383,4.27149 1.6445,1.08974 3.5461,2.13702 4.4648,3.88281 0.5309,1.00887 0.5851,3.35877 0.6641,4.49609 0.2752,3.97221 0.084,6.86263 0.016,10.84375 -0.1136,6.61227 -0.2647,13.25482 -1.164,19.80664 -1.243,9.0556 -2.7878,18.17418 -5.8262,26.79493 -3.3676,9.55481 -7.5811,19.02846 -13.5918,27.18359 -5.106,6.92771 -11.4184,13.18296 -18.6406,17.86328 -7.5042,4.86311 -16.1308,8.12894 -24.8536,10.09766 -10.8777,2.45507 -22.3439,3.40731 -33.3984,1.9414 -1.7582,-0.23315 -3.5068,-0.59288 -5.2539,-0.95312 l -2.3477,14.93555 c 14.6667,3.58453 30.5433,3.34167 45.2715,0.38671 14.8749,-2.98437 29.0694,-9.70297 40.3887,-19.80468 9.5414,-8.5151 16.0644,-20.42253 20.9707,-32.23243 8.167,-19.65881 11.2889,-40.12634 12.8145,-61.35937 1.4633,-20.36534 2.0161,-37.08765 0.3886,-55.14453 -2.4685,-27.3868 -7.6589,-54.47159 -12.4277,-81.55274 -1.8315,-10.40088 -3.0379,-20.99406 -6.2129,-31.0664 -4.8445,-15.36856 -10.2548,-31.01637 -19.418,-44.27149 -7.3283,-10.60094 -15.7642,-21.30126 -26.1269,-29.00586 z"
         inkscape:path-effect="#path-effect5035"
         id="path4922-5"
         d="m 1464.3873,668.66241 c 0,0 -14.1084,59.92625 -20.7168,70.71054 -6.6084,10.78428 21.7683,-81.65778 22.3546,-97.86235 0.5862,-16.20456 -28.6979,107.65236 -33.696,112.39578 -4.998,4.74341 34.1978,-128.28369 33.5329,-139.79476 -0.6649,-11.51108 -15.6474,58.69713 -15.3057,43.40975 0.3418,-15.28739 14.5529,-54.59104 13.3991,-64.2683 -1.1538,-9.67725 -12.9969,48.75426 -16.0567,46.22689 -3.0598,-2.52738 14.8882,-55.84882 13.5393,-64.79417 -1.3489,-8.94534 -16.6228,62.35556 -19.9011,60.6481 -3.2784,-1.70746 18.5432,-69.5598 17.0913,-78.11873 -1.4519,-8.55893 -20.3422,76.30832 -23.9521,75.84435 -3.6098,-0.46396 22.4934,-84.37776 21.0004,-92.78269 -1.4929,-8.40494 -24.6535,92.48095 -28.4344,92.65877 -3.781,0.17783 26.9224,-100.99234 25.4658,-109.53357 -1.4566,-8.54124 -29.1829,109.47195 -33.4186,111.35544 -4.2356,1.88349 32.0534,-120.23969 30.4828,-128.35327 -1.5706,-8.11357 -47.7288,179.04155 -53.3659,186.18221 -5.6371,7.14067 51.7674,-194.19106 49.7413,-200.59605 -2.0261,-6.40499 -55.3464,207.61699 -59.9893,211.02807 -4.6429,3.41107 57.9707,-217.46132 55.8266,-223.42353 -2.1442,-5.96221 -60.3988,226.56942 -64.5838,228.26297 -4.185,1.69356 62.4441,-234.24191 60.1284,-239.56051 -2.3157,-5.31859 -64.317,241.26757 -68.145,241.62213 -3.8281,0.35455 65.8295,-246.94163 63.3246,-251.55056 -2.5049,-4.60893 -67.1292,251.81701 -70.6668,251.08185 -3.5375,-0.73516 49.3639,-185.1752 43.3082,-176.46411 -6.0557,8.71108 -50.1772,188.22599 -46.8787,161.84727 3.2985,-26.37872 41.164,-154.41573 36.7322,-151.79614 -4.4319,2.61959 -32.4012,121.54426 -27.0377,87.41924 5.3635,-34.12503 22.6439,-84.94243 18.7286,-84.26051 -3.9154,0.68192 -10.6834,33.07297 -10.6834,33.07297 m 58.7719,143.67252 c 0,0 -7.6011,35.516 -12.1595,38.61037 -4.5584,3.09437 8.6297,-32.37188 3.234,-26.13673 -5.3957,6.23514 -7.7801,29.18461 -12.1045,31.4011 -4.3244,2.21649 6.7752,-25.41532 2.0558,-21.71684 -4.7195,3.69849 -6.3742,23.911 -10.5348,25.51308 -4.1607,1.60207 5.841,-21.91094 1.4787,-19.55242 -4.3623,2.35852 -5.6361,21.14212 -9.6689,22.26487 -4.0328,1.12276 5.3187,-19.95185 1.1591,-18.35353 -4.1596,1.59832 -5.1879,19.46094 -9.1178,20.1978 -3.93,0.73685 4.9637,-18.62003 0.9398,-17.53067 -4.024,1.08936 -4.8691,18.26476 -8.7242,18.72086 -3.8551,0.4561 4.7057,-17.65226 0.7768,-16.91915 -3.929,0.73311 -4.6316,17.37404 -8.4159,17.56467 -3.7844,0.19062 4.487,-16.83176 0.6388,-16.40193 -3.8481,0.42982 -4.4232,16.59237 -8.1382,16.52294 -3.715,-0.0694 4.2899,-16.09235 0.5233,-15.96818 -3.7667,0.12416 -4.2385,15.89944 -7.8836,15.56783 -3.6452,-0.33161 4.1165,-15.44205 0.4339,-15.6331 -3.6826,-0.19105 -4.0795,15.30303 -7.6524,14.70032 -3.5728,-0.60271 3.9648,-14.87264 0.3792,-15.42772 -3.5855,-0.55507 -5.7009,14.38262 -5.7009,14.38262 m 64.8965,-117.39319 c 0,0 -1.546,5.79933 -1.546,5.79933 m 19.0063,-211.35058 c 0,0 -14.1682,60.15106 -14.6624,47.99947 -0.4942,-12.1516 13.3413,-50.0461 10.6199,-53.84303 -2.7213,-3.79693 -11.4547,42.9692 -13.5703,36.90014 -2.1157,-6.06906 10.8515,-40.70658 8.0556,-44.22387 -2.7959,-3.51728 -10.2093,38.29733 -12.8411,34.16439 -2.6318,-4.13295 10.047,-37.68861 7.1592,-40.86089 -2.8879,-3.17228 -9.8024,36.77096 -12.7711,33.90186 -2.9687,-2.86911 9.8846,-37.07928 6.8919,-39.85852 -2.9926,-2.77924 -12.1979,45.75714 -10.78,26.43281 1.418,-19.32433 6.2349,-30.39113 6.2349,-30.39113"
         style="display:inline;fill:none;fill-rule:evenodd;stroke:#000000;stroke-width:1px;stroke-linecap:butt;stroke-linejoin:miter;stroke-opacity:1"
         inkscape:connector-curvature="0" />
    </g>
    <g
       style="display:inline"
       transform="matrix(1.3082342,0,0,1.3082342,-847.44296,-625.42417)"
       id="g5149">
      <path
         inkscape:original-d="m 2173.7832,292.36914 c -1.8206,0.91949 -3.6349,1.85509 -5.3613,2.84766 -9.5278,5.47761 -17.5025,13.71608 -24.0762,22.52343 -11.7732,15.77362 -19.7005,34.30981 -26.4082,52.81446 -6.5271,18.00652 -10.2117,37.00389 -13.2031,55.92187 -4.9496,31.30227 -7.7468,63.06469 -7.7676,94.75586 -0.011,16.10363 0.1267,32.49531 3.8848,48.1543 4.4431,18.51325 11.2293,35.12615 22.2949,50.61914 6.6105,9.2554 16.3184,17.63847 26.4551,22.79687 13.7148,6.9793 29.3185,10.63131 43.6738,11.47071 5.0508,0.29535 10.5388,0.0591 16.0566,-0.45703 l -1.6425,-16.69336 c -2.3491,0.12603 -4.6987,0.22202 -7.0352,0.22461 -9.5564,0.011 -19.3,-1.19509 -28.3477,-4.27149 -10.3682,-3.5254 -20.4982,-8.71053 -28.7382,-15.92383 -8.0064,-7.00874 -14.2691,-16.11229 -19.0293,-25.6289 -4.4706,-8.93775 -6.6062,-18.93426 -8.543,-28.73828 -1.7399,-8.80753 -2.6433,-17.72566 -3.543,-26.65821 -0.5215,-5.17754 -1.6467,-11.54555 -0.7285,-15.67187 0.6772,-3.04309 3.6215,-5.25721 6.2129,-6.99024 5.2406,-3.50468 11.5628,-5.98679 17.8633,-6.21289 3.4832,-0.125 7.0801,0.9742 10.0976,2.71875 2.2188,1.28279 4.5579,3.03021 5.4375,5.4375 1.5052,4.11952 2.9117,18.89511 5.8243,27.95899 2.2518,7.00743 5.1122,13.90354 8.9316,20.19531 4.3012,7.08537 8.5891,14.89336 15.5352,19.41602 5.9466,3.87189 13.4921,5.73319 20.582,5.4375 0.2285,-0.01 0.4534,-0.074 0.6816,-0.0898 l -16.1308,-164.0039 a 31.517868,44.333191 0 0 1 -3.1914,0.27539 31.517868,44.333191 0 0 1 -31.5176,-44.33399 31.517868,44.333191 0 0 1 26.082,-43.66211 l -4.3496,-44.23242 z"
         inkscape:path-effect="#path-effect5043"
         transform="translate(0,252.36218)"
         id="path5016"
         d="m 2173.4101,292.55785 c 0,0 2.0046,0.77682 1.8299,30.25174 -0.1748,29.47491 -3.6359,-29.42172 -7.1951,-27.3339 -3.5592,2.08782 5.2651,42.60534 1.7459,45.01707 -3.5192,2.41172 -5.3056,-42.93344 -8.7857,-40.20556 -3.4801,2.72789 5.2578,42.5464 1.9414,46.59963 -3.3163,4.05322 -5.4218,-43.87387 -8.8202,-40.48521 -3.3985,3.38866 5.4679,44.24689 2.5099,51.20007 -2.9579,6.95317 -5.9086,-47.81362 -9.2233,-43.74669 -3.3146,4.06694 5.2363,57.81734 5.2363,57.81734 m 33.2417,52.77034 c 0,0 -1.7492,-29.59937 10.3802,99.44212 12.1293,129.04149 -12.2386,-99.03613 -16.13,-99.63611 -3.8913,-0.59997 20.3101,164.35116 16.4379,163.90658 -3.8721,-0.44458 -20.3205,-164.43567 -24.4147,-166.6772 -4.0942,-2.24153 20.5468,166.26697 16.558,164.87805 -3.9889,-1.38891 -20.6162,-166.82799 -25.0688,-171.96972 -4.4526,-5.14173 21.1032,170.76942 16.9066,167.69897 -4.1967,-3.07046 -24.0355,-179.05321 -24.0355,-179.05321 m 48.0322,234.23562 c 0,0 3.9675,16.66067 0.1793,16.89574 -3.7881,0.23507 -2.0744,-16.78676 -5.8989,-16.84528 -3.8244,-0.0585 2.1126,17.095 -1.709,17.05996 -3.8215,-0.035 -2.1147,-17.11251 -5.975,-17.46123 -3.8603,-0.34872 2.1511,17.40712 -1.71,17.0515 -3.8612,-0.35563 -2.1492,-17.39119 -6.0526,-18.08934 -3.9035,-0.69815 2.1916,17.73478 -1.7025,17.11299 -3.894,-0.62179 -2.1993,-17.79687 -6.1572,-18.93606 -3.958,-1.13919 2.2635,18.3172 -1.6654,17.41335 -3.9289,-0.90385 -2.2955,-18.57595 -6.3083,-20.15881 -4.0128,-1.58286 2.3801,19.26026 -1.5877,18.04181 -3.9678,-1.21844 -2.4229,-19.60694 -6.4944,-21.66435 -4.0715,-2.05742 2.5277,20.45481 -1.4858,18.86586 -4.0136,-1.58896 -2.5812,-20.88748 -6.7368,-23.62524 -4.1555,-2.73775 2.7258,22.05709 -1.3466,19.99182 -4.0725,-2.06526 -2.7975,-22.63775 -7.0959,-26.53119 -4.2983,-3.89343 3.0266,24.49169 -1.1465,21.61146 -4.1732,-2.88023 -3.1348,-25.36704 -7.6902,-31.3408 -4.5555,-5.97376 3.5234,28.51209 -0.7835,24.5496 -4.3068,-3.96248 -3.6708,-29.70457 -8.8376,-40.62593 -5.1668,-10.92136 4.558,36.88396 5e-4,30.89312 -4.5576,-5.99084 -22.118,-178.981 -23.8928,-162.45369 -1.7748,16.5273 19.3596,156.65985 14.4224,147.59682 -4.9372,-9.06302 -16.3009,-131.90879 -17.2829,-108.96554 -0.9819,22.94326 12.7161,102.89985 6.2471,81.44111 -6.469,-21.45874 -6.5664,-37.69091 -6.5664,-37.69091 m 45.2037,-221.10246 c 0,0 33.9022,258.89525 29.2468,252.11269 -4.6554,-6.78256 -30.8841,-249.91768 -34.063,-244.75257 -3.1789,5.16512 29.5298,238.95883 24.3165,227.6609 -5.2134,-11.29792 -27.4966,-222.50478 -30.572,-216.50276 -3.0755,6.00203 22.1123,178.93536 17.7046,174.15721 -4.4077,-4.77816 -20.7801,-168.15463 -23.7474,-161.27726 -2.9673,6.87737 19.444,157.34251 15.4951,156.27746 -3.9488,-1.06504 -18.4597,-149.3784 -21.329,-141.70791 -2.8693,7.67049 17.3962,140.7724 13.6401,141.26643 -3.7562,0.49402 -16.5337,-133.79201 -19.2131,-124.58498 -2.6794,9.20702 15.459,125.09578 11.8142,126.49126 -3.6447,1.39548 -14.5,-117.33608 -16.8938,-105.81755 -2.3938,11.51854 13.248,107.20412 9.7109,109.47093 -3.5371,2.26681 -12.0942,-97.86764 -14.2134,-84.12718 -2.1192,13.74047 9.0031,88.29864 9.0031,88.29864"
         style="display:inline;fill:none;fill-rule:evenodd;stroke:#000000;stroke-width:1px;stroke-linecap:butt;stroke-linejoin:miter;stroke-opacity:1"
         inkscape:connector-curvature="0" />
      <path
         inkscape:original-d="m 2173.7832,292.36914 4.3496,44.23242 a 31.517868,44.333191 0 0 1 5.4356,-0.66992 31.517868,44.333191 0 0 1 31.5175,44.33203 31.517868,44.333191 0 0 1 -28.3261,44.0586 l 16.1308,164.0039 c 5.9427,-0.41226 11.798,-2.88316 16.793,-6.12305 6.4525,-4.18525 12.2481,-9.94239 15.9219,-16.69921 4.2594,-7.83381 5.1095,-17.17119 6.2129,-26.01953 1.1694,-9.37794 0.3865,-18.89904 0.3886,-28.34961 0,-19.54832 -1.6347,-36.43136 -0.7754,-58.63868 0.1032,-2.66665 1.0308,-5.70037 3.1055,-7.3789 1.6135,-1.30543 3.8574,-1.76768 6.0313,-1.73633 0.7246,0.0104 1.4415,0.0764 2.125,0.18359 6.4096,1.00521 12.1877,5.06583 17.0859,9.32032 5.2383,4.54995 9.2722,10.51789 12.4277,16.69726 2.1599,4.22959 3.5282,8.90117 4.2715,13.5918 2.0666,13.04158 0.5569,26.40809 0.3887,39.61133 -0.1402,11.00902 0.1628,22.08032 -1.166,33.00976 -0.9897,8.14035 -2.6029,16.60164 -5.0469,24.07813 -2.444,7.47649 -5.2705,14.23219 -9.3203,20.58203 -4.5904,7.19745 -10.1576,13.93121 -16.6992,19.41601 -6.2264,5.2204 -13.3196,9.69234 -20.9707,12.42774 -8.2812,2.96071 -17.1329,4.34983 -25.9746,4.82422 l 1.6425,16.69336 c 8.701,-0.81394 17.5018,-2.50662 24.9746,-5.30079 16.4112,-6.1363 30.1648,-14.33888 41.2989,-27.86718 9.6565,-11.73283 14.3755,-27.15146 17.8633,-41.94141 5.8937,-24.99214 4.9763,-51.21684 4.6601,-76.89258 -0.2624,-21.30503 -1.6003,-42.72923 -5.4375,-63.6875 -4.9443,-27.00503 -11.5604,-54.05261 -22.5234,-79.22265 -8.5814,-19.70215 -17.4769,-40.70909 -33.3965,-55.14453 -10.2081,-9.25642 -23.5429,-16.79376 -37.2813,-17.86329 -0.6737,-0.0524 -1.3491,-0.0839 -2.0234,-0.0937 -8.1279,-0.11859 -16.2378,2.80587 -23.6836,6.56641 z"
         inkscape:path-effect="#path-effect5041"
         transform="translate(0,252.36218)"
         id="path4924-5"
         d="m 2290.5578,427.02789 c 0,0 6.142,32.51856 7.1684,66.08413 1.0265,33.56556 -12.1223,-89.80082 -18.1755,-108.68083 -6.0533,-18.88001 19.2099,142.3046 18.2103,160.86198 -0.9995,18.55738 -24.0634,-178.25916 -29.1393,-189.89928 -5.0759,-11.64012 15.9665,118.27824 11.4134,110.51118 -4.553,-7.76707 -16.5308,-122.45893 -21.2768,-131.65459 -4.7459,-9.19566 16.7803,124.30611 12.742,120.35309 -4.0382,-3.95302 -17.4726,-129.43522 -21.8307,-135.75813 -4.3582,-6.32291 17.8062,131.90686 13.9594,129.37148 -3.8469,-2.53538 -18.3034,-135.58957 -22.4004,-139.97763 -4.0969,-4.38805 18.5524,137.43404 14.8862,136.23686 -3.6662,-1.19718 -18.9706,-140.53185 -22.9056,-143.72066 -3.9351,-3.18882 19.2274,142.43462 15.775,142.82162 -3.4523,0.387 -19.7069,-145.98682 -23.5366,-148.39488 -3.8296,-2.40805 19.8389,146.96401 17.2682,153.88262 -2.5706,6.91862 -21.0965,-156.28059 -24.8381,-158.03636 -3.7416,-1.75578 23.0506,170.75611 23.9022,203.02658 0.8517,32.27048 -27.6433,-204.77824 -31.3042,-205.93656 -3.661,-1.15832 32.5353,241.01789 30.8615,254.58043 -1.6738,13.56255 -34.5224,-255.73801 -38.1052,-256.31754 -3.5829,-0.57954 10.4625,77.50548 5.7021,68.2023 -4.7605,-9.30318 -9.2894,-68.81461 -12.7824,-68.72879 -3.493,0.0858 8.1753,60.5615 4.1934,57.0259 -3.9819,-3.53559 -7.6835,-56.91859 -11.0918,-56.20482 -3.4082,0.71378 7.1289,52.80977 3.4111,51.23013 -3.7179,-1.57964 -6.8172,-50.50056 -10.1605,-49.30608 -3.3434,1.19449 6.4485,47.76976 2.9044,47.47772 -3.544,-0.29203 -6.246,-46.2702 -9.5399,-44.70911 -3.2939,1.5611 4.2987,44.82539 4.2987,44.82539 m 107.2152,171.15716 c 0,0 9.2364,55.44119 7.154,65.97658 -2.0824,10.53538 -7.4128,-54.91329 -8.0184,-33.43737 -0.6055,21.47593 5.9033,43.73093 3.4721,51.68252 -2.4312,7.9516 -4.4106,-32.67342 -6.5563,-22.60633 -2.1456,10.0671 4.1181,30.50615 1.4137,36.43402 -2.7044,5.92787 -3.6178,-26.80016 -6.2017,-19.97957 -2.5838,6.8206 3.4891,25.8466 0.577,30.23591 -2.9121,4.38931 -3.1693,-23.47832 -5.9974,-18.46683 -2.8281,5.01149 3.0718,22.75554 0.025,26.15069 -3.0463,3.39514 -2.8681,-21.24609 -5.8331,-17.24928 -2.9651,3.99681 2.7846,20.62799 -0.3407,23.43834 -3.1252,2.81035 -2.6262,-19.4551 -5.6852,-16.15406 -3.059,3.30104 2.5582,18.9513 -0.63,21.29461 -3.1883,2.34331 -2.4303,-18.00353 -5.5712,-15.30893 -3.1409,2.69461 2.3815,17.6417 -0.8571,19.61223 -3.2386,1.97053 -2.285,-16.92668 -5.4878,-14.6912 -3.2028,2.23547 2.248,16.6532 -1.0306,18.32701 -3.2787,1.67381 -2.1722,-16.09101 -5.4344,-14.2954 -3.2622,1.7956 2.1548,15.96225 -1.1556,17.40114 -3.3103,1.43888 -2.1063,-15.60324 -5.4294,-14.25902 -3.3232,1.34421 2.119,15.69733 -1.2177,16.94153 -3.3366,1.2442 -2.1084,-15.61867 -5.4832,-14.65716 -3.3748,0.96151 2.146,15.89723 -1.2342,16.81863 -3.3802,0.92139 -2.1415,-15.86378 -5.5562,-15.19773 -3.4146,0.66605 2.1749,16.11133 -1.2399,16.7765 -3.4148,0.66516 -2.1755,-16.11579 -5.6236,-15.69748 -3.4481,0.41832 2.2082,16.35842 -1.2348,16.81436 -3.4431,0.45593 -3.9521,-16.29572 -3.9521,-16.29572 m 4.6067,-251.45237 c 0,0 24.7648,170.47343 22.1108,176.7746 -2.654,6.30117 -22.8434,-169.22147 -25.3915,-162.13537 -2.548,7.0861 22.6792,168.00472 19.6724,171.69282 -3.0067,3.6881 -22.2628,-164.92086 -25.1975,-160.69862 -2.9346,4.22224 22.1812,164.31549 19.0373,166.98786 -3.1438,2.67236 -21.982,-162.8407 -25.1224,-160.14245 -3.1404,2.69825 21.9763,162.79814 18.7402,164.78731 -3.236,1.98917 -21.8839,-162.11385 -25.1797,-160.56674 -3.2957,1.54711 21.9441,162.55946 18.6174,163.87711 -3.3267,1.31766 -25.0433,-185.51808 -22.2208,-138.64751 2.8225,46.87058 18.8965,139.98337 15.4676,140.54348 -3.429,0.5601 -4.6473,-21.44577 -4.6473,-21.44577"
         style="display:inline;fill:none;fill-rule:evenodd;stroke:#000000;stroke-width:1px;stroke-linecap:butt;stroke-linejoin:miter;stroke-opacity:1"
         inkscape:connector-curvature="0" />
    </g>
    <path
       inkscape:original-d="m 1669.4031,583.9808 c 2.5402,-0.50806 31.1154,-10.80239 45.7239,-18.28958 3.93,-2.01422 8.4125,-3.6689 11.1771,-7.11262 1.2409,-1.54574 1.7698,-3.62376 2.0322,-5.58848 0.27,-2.02126 0.7113,-4.46203 -0.508,-6.09652 -4.4568,-5.97404 -13.6051,-6.29766 -20.8299,-8.12871 -9.2644,-2.34794 -18.902,-3.14589 -28.4504,-3.55632 -8.8045,-0.37845 -17.6592,0.0461 -26.4183,1.01609 -6.5037,0.72033 -12.9772,1.89236 -19.3057,3.55631 -5.0242,1.321 -10.6212,1.90598 -14.7332,5.08044 -1.9333,1.4925 -3.576,3.70349 -4.0645,6.09654 -0.5512,2.7011 0.082,5.77879 1.5241,8.1287 1.4524,2.36758 4.2031,3.68497 6.6047,5.08043 14.7662,8.58025 47.248,19.81372 47.248,19.81372 z"
       inkscape:path-effect="#path-effect5172"
       style="display:inline;fill:none;fill-rule:evenodd;stroke:#f51010;stroke-width:1.30823421px;stroke-linecap:butt;stroke-linejoin:miter;stroke-opacity:1"
       d="m 1728.4288,552.31266 c 0,0 1.2568,-3.26582 -1.7743,-6.44964 -3.031,-3.18381 0.6377,11.97408 -2.0969,14.35592 -2.7346,2.38184 -0.9096,-17.08022 -3.8287,-18.16162 -2.919,-1.08139 1.0821,20.31879 -1.7053,21.7094 -2.7874,1.39061 -1.2097,-22.71525 -4.1041,-23.33286 -2.8944,-0.61761 1.3163,24.71574 -1.472,26.09041 -2.7883,1.37466 -1.4196,-26.65691 -4.3143,-27.27949 -2.8946,-0.62259 1.5256,28.64519 -1.2689,29.90369 -2.7944,1.25851 -1.6301,-30.60989 -4.524,-31.21725 -2.8938,-0.60736 1.7294,32.47224 -1.0688,33.66113 -2.7981,1.18889 -1.8247,-34.26351 -4.7096,-34.70242 -2.8848,-0.4389 1.9114,35.8896 -0.8894,37.029 -2.8008,1.13939 -1.9952,-37.4636 -4.873,-37.77098 -2.8779,-0.30737 2.0721,38.90953 -0.7308,40.0094 -2.8029,1.09988 -2.1469,-40.31291 -5.0194,-40.52126 -2.8726,-0.20834 2.2165,41.6209 -0.5882,42.68557 -2.8048,1.06468 -2.2842,-42.89031 -5.1531,-43.0294 -2.8689,-0.13909 2.3483,44.0947 -0.4584,45.12296 -2.8067,1.02826 -2.4109,-45.27053 -5.2749,-45.31703 -2.8639,-0.0465 2.4684,46.34945 -0.3411,47.32535 -2.8095,0.97589 -2.5228,-47.37077 -5.3812,-47.31393 -2.8584,0.0568 2.6113,49.03301 -0.2845,48.38931 -2.8957,-0.6437 -2.5739,-48.33149 -5.4273,-48.17953 -2.8534,0.15196 2.5213,47.34326 -0.3969,46.27758 -2.9182,-1.06568 -2.4564,-46.12471 -5.3051,-45.88515 -2.8487,0.23957 2.3869,44.81959 -0.5332,43.71855 -2.9201,-1.10104 -2.3156,-43.48011 -5.1598,-43.15598 -2.8442,0.32414 2.2397,42.05563 -0.6825,40.91588 -2.9221,-1.13975 -2.1618,-40.59296 -4.9998,-40.15202 -2.838,0.44095 2.0777,39.01351 -0.8469,37.82745 -2.9246,-1.18607 -1.9911,-37.38731 -4.8225,-36.82267 -2.8314,0.56464 1.898,35.63876 -1.0298,34.39304 -2.9279,-1.24572 -1.8017,-33.82943 -4.6261,-33.13377 -2.8244,0.69567 1.6985,31.89216 -1.2338,30.56251 -2.9323,-1.32965 -1.5892,-29.84027 -4.4167,-29.20169 -2.8274,0.63858 1.4849,27.88152 -1.4546,26.41663 -2.9395,-1.4649 -1.3769,-25.85479 -4.1877,-24.90293 -2.8108,0.95187 1.2481,23.43657 -1.7029,21.75438 -2.9511,-1.6822 -1.1189,-21.00943 -3.8598,-18.74507 -2.7409,2.26436 0.9911,18.60978 -2.1595,13.18068 -3.1506,-5.4291 -1.7949,-6.83831 -1.7949,-6.83831"
       id="path4920-4"
       inkscape:connector-curvature="0"
       sodipodi:nodetypes="cssssssssssssc" />
  </g>
  <eggbot
     totaldeltay="0"
     totaldeltax="0"
     lastpathnc="0"
     lastpath="0"
     node="0"
     layer="0" />
</svg>
